M48
;Layer_Color=9474304
;FILE_FORMAT=2:4
INCH,LZ
;TYPE=PLATED
T1F00S00C0.0118
T2F00S00C0.0394
%
T01
X120624Y125398
X136471Y125339
X148782Y125398
X164629Y125339
X16457Y141166
X164629Y15345
X148782Y153509
X148694Y141304
X136412Y141166
X136471Y15345
X120624Y153509
X120536Y141304
Y169414
X136412Y169276
X148694Y169414
X16457Y169276
T02
X158245Y144024
Y145024
X157245
Y144024
X156245
Y145024
X155245
Y144024
X130087
Y145024
X129087
Y144024
X128087
Y145024
X127087
Y144024
X157245Y172135
X158245
Y173135
X157245
X156245
Y172135
X155245
Y173135
X130087
Y172135
X129087
Y173135
X128087
Y172135
X127087
Y173135
M30
