G04*
G04 #@! TF.GenerationSoftware,Altium Limited,Altium Designer,18.1.11 (251)*
G04*
G04 Layer_Physical_Order=1*
G04 Layer_Color=255*
%FSLAX24Y24*%
%MOIN*%
G70*
G01*
G75*
%ADD10C,0.0079*%
%ADD11C,0.0039*%
%ADD12C,0.0157*%
%ADD13R,0.0079X0.0581*%
%ADD14R,0.0581X0.0079*%
%ADD15R,0.1956X0.3742*%
%ADD16R,0.3809X0.1956*%
%ADD17R,0.3775X0.1956*%
%ADD18R,0.1956X0.3715*%
%ADD19R,0.1956X0.3844*%
%ADD20R,0.3710X0.1956*%
%ADD21R,0.1956X0.3822*%
%ADD22R,0.0630X0.0512*%
%ADD23O,0.0630X0.0512*%
%ADD24C,0.0276*%
G36*
X162837Y169988D02*
X162829D01*
X163826Y168991D01*
X161811D01*
X161811Y172722D01*
X165572Y172722D01*
X162837Y169988D01*
D02*
G37*
G36*
X134680D02*
X134671D01*
X135668Y168991D01*
X133653D01*
X133653Y172722D01*
X137414Y172722D01*
X134680Y169988D01*
D02*
G37*
G36*
X151580Y168985D02*
X149473Y168985D01*
X150554Y170065D01*
X150562D01*
X147887Y172741D01*
X151580D01*
Y168985D01*
D02*
G37*
G36*
X123423D02*
X121315Y168985D01*
X122396Y170065D01*
X122404D01*
X119729Y172741D01*
X123423D01*
Y168985D01*
D02*
G37*
G36*
X150302Y170112D02*
X148075Y167884D01*
X145570Y170390D01*
X147797Y172617D01*
X150302Y170112D01*
D02*
G37*
G36*
X122144D02*
X119917Y167884D01*
X117412Y170390D01*
X119639Y172617D01*
X122144Y170112D01*
D02*
G37*
G36*
X167822Y170331D02*
X165316Y167825D01*
X163089Y170052D01*
X165595Y172558D01*
X167822Y170331D01*
D02*
G37*
G36*
X139664D02*
X137159Y167825D01*
X134931Y170052D01*
X137437Y172558D01*
X139664Y170331D01*
D02*
G37*
G36*
X168044Y166547D02*
X164265Y166547D01*
X164265Y168569D01*
X165260Y167574D01*
Y167565D01*
X168044Y170349D01*
Y166547D01*
D02*
G37*
G36*
X139886D02*
X136107Y166547D01*
X136107Y168569D01*
X137102Y167574D01*
Y167565D01*
X139886Y170349D01*
Y166547D01*
D02*
G37*
G36*
X148140Y167642D02*
Y167634D01*
X149100Y168594D01*
Y166616D01*
X145298Y166616D01*
Y170484D01*
X148140Y167642D01*
D02*
G37*
G36*
X119982D02*
Y167634D01*
X120942Y168594D01*
Y166616D01*
X117140Y166616D01*
Y170484D01*
X119982Y167642D01*
D02*
G37*
G36*
X149107Y154072D02*
X147961Y155218D01*
Y155227D01*
X145298Y152564D01*
Y156245D01*
X149107D01*
X149107Y154072D01*
D02*
G37*
G36*
X120949D02*
X119803Y155218D01*
Y155227D01*
X117140Y152564D01*
Y156245D01*
X120949D01*
X120949Y154072D01*
D02*
G37*
G36*
X167955Y156257D02*
X167955Y152566D01*
X165291Y155231D01*
Y155239D01*
X164265Y154213D01*
Y156257D01*
X167955Y156257D01*
D02*
G37*
G36*
X139798D02*
X139798Y152566D01*
X137133Y155231D01*
Y155239D01*
X136107Y154213D01*
Y156257D01*
X139798Y156257D01*
D02*
G37*
G36*
X167841Y152493D02*
X165614Y150266D01*
X163109Y152772D01*
X165336Y154999D01*
X167841Y152493D01*
D02*
G37*
G36*
X139684D02*
X137457Y150266D01*
X134951Y152772D01*
X137178Y154999D01*
X139684Y152493D01*
D02*
G37*
G36*
X150214Y152742D02*
X147708Y150237D01*
X145481Y152464D01*
X147986Y154969D01*
X150214Y152742D01*
D02*
G37*
G36*
X122056D02*
X119550Y150237D01*
X117323Y152464D01*
X119829Y154969D01*
X122056Y152742D01*
D02*
G37*
G36*
X162877Y152808D02*
X162868D01*
X165613Y150064D01*
X161850D01*
Y153863D01*
X163931Y153863D01*
X162877Y152808D01*
D02*
G37*
G36*
X134719D02*
X134711D01*
X137455Y150064D01*
X133693D01*
Y153863D01*
X135774Y153863D01*
X134719Y152808D01*
D02*
G37*
G36*
X151493Y150027D02*
X147763D01*
X150467Y152731D01*
X150475D01*
X149331Y153875D01*
X151493D01*
X151493Y150027D01*
D02*
G37*
G36*
X123336D02*
X119605D01*
X122309Y152731D01*
X122317D01*
X121173Y153875D01*
X123336D01*
X123336Y150027D01*
D02*
G37*
G36*
X162837Y141877D02*
X162829D01*
X163826Y140880D01*
X161811D01*
X161811Y144611D01*
X165572Y144611D01*
X162837Y141877D01*
D02*
G37*
G36*
X134680D02*
X134671D01*
X135668Y140880D01*
X133653D01*
X133653Y144611D01*
X137414Y144611D01*
X134680Y141877D01*
D02*
G37*
G36*
X151580Y140874D02*
X149473Y140874D01*
X150554Y141955D01*
X150562D01*
X147887Y144630D01*
X151580D01*
Y140874D01*
D02*
G37*
G36*
X123423D02*
X121315Y140874D01*
X122396Y141955D01*
X122404D01*
X119729Y144630D01*
X123423D01*
Y140874D01*
D02*
G37*
G36*
X150302Y142001D02*
X148075Y139774D01*
X145570Y142279D01*
X147797Y144507D01*
X150302Y142001D01*
D02*
G37*
G36*
X122144D02*
X119917Y139774D01*
X117412Y142279D01*
X119639Y144507D01*
X122144Y142001D01*
D02*
G37*
G36*
X167822Y142220D02*
X165316Y139715D01*
X163089Y141942D01*
X165595Y144447D01*
X167822Y142220D01*
D02*
G37*
G36*
X139664D02*
X137159Y139715D01*
X134931Y141942D01*
X137437Y144447D01*
X139664Y142220D01*
D02*
G37*
G36*
X168044Y138437D02*
X164265Y138437D01*
X164265Y140459D01*
X165260Y139463D01*
Y139455D01*
X168044Y142239D01*
Y138437D01*
D02*
G37*
G36*
X139886D02*
X136107Y138437D01*
X136107Y140459D01*
X137102Y139463D01*
Y139455D01*
X139886Y142239D01*
Y138437D01*
D02*
G37*
G36*
X148140Y139532D02*
Y139524D01*
X149100Y140483D01*
Y138506D01*
X145298Y138506D01*
Y142374D01*
X148140Y139532D01*
D02*
G37*
G36*
X119982D02*
Y139524D01*
X120942Y140483D01*
Y138506D01*
X117140Y138506D01*
Y142374D01*
X119982Y139532D01*
D02*
G37*
G36*
X149107Y125962D02*
X147961Y127108D01*
Y127116D01*
X145298Y124453D01*
Y128134D01*
X149107D01*
X149107Y125962D01*
D02*
G37*
G36*
X120949D02*
X119803Y127108D01*
Y127116D01*
X117140Y124453D01*
Y128134D01*
X120949D01*
X120949Y125962D01*
D02*
G37*
G36*
X167955Y128147D02*
X167955Y124456D01*
X165291Y127121D01*
Y127129D01*
X164265Y126102D01*
Y128147D01*
X167955Y128147D01*
D02*
G37*
G36*
X139798D02*
X139798Y124456D01*
X137133Y127121D01*
Y127129D01*
X136107Y126102D01*
Y128147D01*
X139798Y128147D01*
D02*
G37*
G36*
X167841Y124383D02*
X165614Y122156D01*
X163109Y124661D01*
X165336Y126888D01*
X167841Y124383D01*
D02*
G37*
G36*
X139684D02*
X137457Y122156D01*
X134951Y124661D01*
X137178Y126888D01*
X139684Y124383D01*
D02*
G37*
G36*
X150214Y124632D02*
X147708Y122126D01*
X145481Y124353D01*
X147986Y126859D01*
X150214Y124632D01*
D02*
G37*
G36*
X122056D02*
X119550Y122126D01*
X117323Y124353D01*
X119829Y126859D01*
X122056Y124632D01*
D02*
G37*
G36*
X162877Y124698D02*
X162868D01*
X165613Y121953D01*
X161850D01*
Y125752D01*
X163931Y125752D01*
X162877Y124698D01*
D02*
G37*
G36*
X134719D02*
X134711D01*
X137455Y121953D01*
X133693D01*
Y125752D01*
X135774Y125752D01*
X134719Y124698D01*
D02*
G37*
G36*
X151493Y121917D02*
X147763D01*
X150467Y124621D01*
X150475D01*
X149331Y125765D01*
X151493D01*
X151493Y121917D01*
D02*
G37*
G36*
X123336D02*
X119605D01*
X122309Y124621D01*
X122317D01*
X121173Y125765D01*
X123336D01*
X123336Y121917D01*
D02*
G37*
D10*
X127487Y143823D02*
G03*
X127541Y144024I-341J201D01*
G01*
X128028Y144398D02*
G03*
X127712Y143823I0J-374D01*
G01*
X128462Y143823D02*
G03*
X128520Y144024I-316J201D01*
G01*
X129462Y143823D02*
G03*
X129520Y144024I-316J201D01*
G01*
X129028Y144398D02*
G03*
X128712Y143823I0J-374D01*
G01*
X129520Y144024D02*
G03*
X129146Y144398I-374J0D01*
G01*
X127028Y144419D02*
G03*
X126812Y143693I0J-395D01*
G01*
X126699Y144847D02*
G03*
X127028Y144650I329J177D01*
G01*
X128520Y144024D02*
G03*
X128146Y144398I-374J0D01*
G01*
X127541Y144024D02*
G03*
X127146Y144419I-395J0D01*
G01*
Y144650D02*
G03*
X127475Y144847I0J374D01*
G01*
X128146Y144650D02*
G03*
X128475Y144847I0J374D01*
G01*
X127699D02*
G03*
X128028Y144650I329J177D01*
G01*
X128699Y144847D02*
G03*
X129028Y144650I329J177D01*
G01*
X129146D02*
G03*
X129475Y144847I0J374D01*
G01*
X129699D02*
G03*
X130028Y144650I329J177D01*
G01*
X130146D02*
G03*
X130475Y144847I0J374D01*
G01*
X116995Y126025D02*
X117020Y126000D01*
X116995Y126183D02*
X117020Y126208D01*
X116995Y125747D02*
X117020Y125722D01*
X116995Y125904D02*
X117020Y125929D01*
X116995Y126739D02*
X117020Y126764D01*
X116995Y126860D02*
X117020Y126835D01*
X116995Y126304D02*
X117020Y126278D01*
X116995Y126582D02*
X117020Y126557D01*
X116995Y126461D02*
X117020Y126486D01*
X116995Y124791D02*
X117020Y124816D01*
X116995Y124912D02*
X117020Y124887D01*
X116995Y124234D02*
X117101Y124340D01*
X116995Y124633D02*
X117020Y124608D01*
X116995Y124512D02*
X117020Y124537D01*
X116995Y125468D02*
X117020Y125443D01*
X116995Y125626D02*
X117020Y125651D01*
X116995Y125069D02*
X117020Y125094D01*
X116995Y125347D02*
X117020Y125372D01*
X116995Y125190D02*
X117020Y125165D01*
X116995Y127296D02*
X117020Y127321D01*
X116995Y127417D02*
X117020Y127392D01*
X116995Y127018D02*
X117020Y127043D01*
X116995Y127139D02*
X117020Y127114D01*
X116995Y127974D02*
X117020Y127949D01*
X116995Y129245D02*
X117022Y129272D01*
X116995Y127574D02*
X117020Y127600D01*
X116995Y127853D02*
X117020Y127878D01*
X116995Y127696D02*
X117020Y127670D01*
X116995Y129802D02*
X117022Y129829D01*
X116995Y129923D02*
X117022Y129895D01*
X116995Y129366D02*
X117022Y129338D01*
X116995Y129644D02*
X117022Y129617D01*
X116995Y129523D02*
X117022Y129551D01*
X116995Y130758D02*
X117387Y130366D01*
X116995Y131036D02*
X117665Y130366D01*
X116995Y130080D02*
X117022Y130107D01*
X116995Y130201D02*
X117022Y130174D01*
X116995Y130479D02*
X117108Y130366D01*
X117500Y123625D02*
X117690Y123816D01*
X117361Y123765D02*
X117551Y123955D01*
X117778Y123347D02*
X117969Y123538D01*
X117639Y123486D02*
X117830Y123677D01*
X117082Y124043D02*
X117273Y124233D01*
X117140Y124333D02*
X117186Y124342D01*
X117221Y123904D02*
X117412Y124094D01*
X117203Y124353D02*
X117212Y124307D01*
X117238Y124268D01*
X118613Y122512D02*
X118804Y122702D01*
X118474Y122651D02*
X118665Y122842D01*
X119031Y122094D02*
X119221Y122285D01*
X118753Y122373D02*
X118943Y122563D01*
X118892Y122233D02*
X119082Y122424D01*
X118057Y123069D02*
X118247Y123259D01*
X117917Y123208D02*
X118108Y123398D01*
X118335Y122790D02*
X118525Y122981D01*
X118196Y122929D02*
X118386Y123120D01*
X118196Y122929D02*
X118386Y123120D01*
X116995Y128410D02*
X117022Y128437D01*
X116995Y128531D02*
X117022Y128503D01*
X117020Y124453D02*
Y128134D01*
X116995Y128252D02*
X117022Y128225D01*
X116995Y128688D02*
X117022Y128715D01*
X116995Y128809D02*
X117022Y128782D01*
Y128174D02*
Y130366D01*
X116995Y129087D02*
X117022Y129060D01*
X116995Y128966D02*
X117022Y128994D01*
X117020Y124453D02*
X117029Y124407D01*
X116995Y128131D02*
X117025Y128162D01*
X117094Y124342D02*
X117140Y124333D01*
X117029Y124407D02*
X117055Y124368D01*
X117094Y124342D01*
X117020Y128134D02*
X117028Y128174D01*
X117559Y130366D02*
X118478Y131285D01*
X117837Y130366D02*
X118739Y131268D01*
X118564D02*
X118626D01*
X118116Y130366D02*
X119018Y131268D01*
X116995Y131472D02*
X117977Y132454D01*
X116995Y131750D02*
X117977Y132732D01*
X116995Y131315D02*
X117944Y130366D01*
X116995Y131194D02*
X117977Y132176D01*
X116995Y132585D02*
X117977Y133567D01*
X116995Y133820D02*
X117977Y132838D01*
X116995Y132985D02*
X117977Y132003D01*
X116995Y133542D02*
X117977Y132560D01*
X116995Y132029D02*
X117977Y133011D01*
X116995Y131871D02*
X118500Y130366D01*
X116995Y130915D02*
X117978Y131898D01*
X116995Y130358D02*
X118131Y131494D01*
X116995Y130637D02*
X118027Y131669D01*
X116995Y131593D02*
X118222Y130366D01*
X116995Y133263D02*
X117977Y132281D01*
X116995Y132307D02*
X117977Y133289D01*
X116995Y132150D02*
X118779Y130366D01*
X116995Y132707D02*
X118023Y131678D01*
X116995Y132428D02*
X119057Y130366D01*
X116995Y133699D02*
X117977Y134681D01*
X116995Y135926D02*
X117343Y136274D01*
X116995Y133421D02*
X117977Y134403D01*
X116995Y134655D02*
X117977Y133673D01*
X116995Y136483D02*
X117022Y136510D01*
X116995Y136604D02*
X117022Y136577D01*
X116995Y135369D02*
X117899Y136274D01*
X116995Y136326D02*
X117022Y136298D01*
X116995Y135648D02*
X117621Y136274D01*
X116995Y134377D02*
X117977Y133395D01*
X116995Y134934D02*
X117977Y133952D01*
X116995Y132864D02*
X117977Y133846D01*
X116995Y133142D02*
X117977Y134124D01*
X116995Y134098D02*
X117977Y133116D01*
X116995Y134534D02*
X118735Y136274D01*
X116995Y134813D02*
X118456Y136274D01*
X116995Y135212D02*
X117977Y134230D01*
X116995Y135490D02*
X117977Y134508D01*
X116995Y134256D02*
X119013Y136274D01*
X117977Y131918D02*
Y134676D01*
Y134739D01*
X117982Y131829D02*
X118010Y131708D01*
X117979Y131891D02*
X117982Y131829D01*
X116995Y135769D02*
X117985Y134779D01*
X116995Y136047D02*
X118054Y134988D01*
X116995Y124131D02*
Y142475D01*
X117977Y134739D02*
X118002Y134865D01*
X118050Y134982D01*
X117280Y130366D02*
X118282Y131367D01*
X118132Y131492D02*
X118222Y131406D01*
X118442Y131292D02*
X118564Y131268D01*
X118222Y131406D02*
X118327Y131338D01*
X118442Y131292D01*
X118010Y131708D02*
X118061Y131594D01*
X116995Y133977D02*
X119291Y136274D01*
X118061Y131594D02*
X118132Y131492D01*
X118050Y134982D02*
X118121Y135089D01*
X118212Y135179D01*
X116995Y136205D02*
X117064Y136274D01*
X116995Y136761D02*
X117022Y136789D01*
Y136298D02*
X117046Y136274D01*
X116995Y136882D02*
X117022Y136855D01*
X116995Y137040D02*
X117022Y137067D01*
X116995Y137161D02*
X117022Y137133D01*
Y136274D02*
Y138466D01*
X116995Y137439D02*
X117022Y137412D01*
X116995Y137318D02*
X117022Y137345D01*
X117046Y136274D02*
X118177Y135144D01*
X118212Y135179D02*
X118318Y135250D01*
X118436Y135298D01*
X118561Y135323D01*
X118624Y135323D01*
X116995Y135091D02*
X118178Y136274D01*
X117325D02*
X118340Y135259D01*
X117603Y136274D02*
X118555Y135322D01*
X117881Y136274D02*
X118832Y135323D01*
X118160Y136274D02*
X119110Y135323D01*
X119559Y121805D02*
X119605Y121796D01*
X119520Y121831D02*
X119559Y121805D01*
X123336Y121796D02*
X123371Y121803D01*
X119605Y121796D02*
X123336D01*
X116995Y124131D02*
X119329Y121796D01*
X116995Y124355D02*
X119554Y121796D01*
X119309Y121816D02*
X119508Y122014D01*
X119485Y121917D02*
X119494Y121870D01*
X119520Y121831D01*
X119329Y121796D02*
X132839Y121796D01*
X123371Y121800D02*
X125563D01*
Y121911D02*
X125678Y121796D01*
X125563Y122190D02*
X125957Y121796D01*
X125563Y122468D02*
X126235Y121796D01*
X125563Y123582D02*
X127349Y121796D01*
X125563Y123860D02*
X127627Y121796D01*
X125563Y122747D02*
X126513Y121796D01*
X125563Y123025D02*
X126792Y121796D01*
X125563Y123303D02*
X127070Y121796D01*
X119170Y121955D02*
X119361Y122146D01*
X119465Y122041D02*
X119504Y122015D01*
X119485Y121917D02*
X119494Y121963D01*
X119520Y122002D01*
X117238Y124268D02*
X119465Y122041D01*
X125563Y122780D02*
X126538Y123755D01*
X125563Y122501D02*
X126538Y123476D01*
X125563Y123615D02*
X126538Y124590D01*
X125563Y123058D02*
X126538Y124033D01*
X125563Y123893D02*
X126538Y124868D01*
X125563Y124974D02*
X126538Y123999D01*
X125563Y121945D02*
X126662Y123044D01*
X125563Y124695D02*
X126538Y123720D01*
X125563Y122223D02*
X126567Y123228D01*
X125563Y125531D02*
X126538Y124555D01*
X125563Y124728D02*
X126538Y125704D01*
X125563Y124172D02*
X126538Y125147D01*
X125563Y124450D02*
X126538Y125425D01*
X125563Y125252D02*
X126538Y124277D01*
X126527Y121796D02*
X127511Y122780D01*
X126249Y121796D02*
X127233Y122780D01*
X127200D02*
X128184Y121796D01*
X126806D02*
X127790Y122780D01*
X125971Y121796D02*
X126984Y122810D01*
X125692Y121796D02*
X126802Y122905D01*
X127363Y121796D02*
X128347Y122780D01*
X126785Y122916D02*
X127905Y121796D01*
X127084D02*
X128068Y122780D01*
X127757D02*
X128741Y121796D01*
X127478Y122780D02*
X128462Y121796D01*
X129149Y122780D02*
X130132Y121796D01*
X127919D02*
X128903Y122780D01*
X128870D02*
X129854Y121796D01*
X129033D02*
X130021Y122784D01*
X127641Y121796D02*
X128625Y122780D01*
X129590Y121796D02*
X131464Y123670D01*
X129427Y122780D02*
X130411Y121796D01*
X129311D02*
X131464Y123948D01*
X126611Y123121D02*
X126682Y123015D01*
X126563Y123239D02*
X126611Y123121D01*
X126773Y122924D02*
X126879Y122854D01*
X126682Y123015D02*
X126773Y122924D01*
X125563Y123337D02*
X126538Y124312D01*
X125563Y124417D02*
X126538Y123442D01*
X125563Y124139D02*
X126674Y123027D01*
X126538Y123364D02*
X126538Y123428D01*
X126538Y123364D02*
X126563Y123239D01*
X128313Y122780D02*
X129297Y121796D01*
X127186Y122780D02*
X129943D01*
X128755Y121796D02*
X129738Y122780D01*
X128476Y121796D02*
X129460Y122780D01*
X128592D02*
X129576Y121796D01*
X126997Y122805D02*
X127122Y122780D01*
X126879Y122854D02*
X126997Y122805D01*
X128198Y121796D02*
X129182Y122780D01*
X127122Y122780D02*
X127186Y122780D01*
X128035D02*
X129019Y121796D01*
X118672Y130366D02*
X119575Y131268D01*
X118394Y130366D02*
X119296Y131268D01*
X118951Y130366D02*
X119853Y131268D01*
X118712D02*
X119614Y130366D01*
X118990Y131268D02*
X119892Y130366D01*
X118388Y131314D02*
X119335Y130366D01*
X119508D02*
X120410Y131268D01*
X119229Y130366D02*
X120131Y131268D01*
X119268D02*
X120171Y130366D01*
X119786D02*
X120688Y131268D01*
X117022Y130366D02*
X121067D01*
X120621D02*
X121087Y130832D01*
X119825Y131268D02*
X120727Y130366D01*
X120343D02*
X121087Y131110D01*
X120064Y130366D02*
X120967Y131268D01*
X119547D02*
X120449Y130366D01*
X120104Y131268D02*
X121006Y130366D01*
X120660Y131268D02*
X121087Y130841D01*
X120382Y131268D02*
X121087Y130563D01*
X119273Y136274D02*
X120224Y135323D01*
X119176D02*
X120127Y136274D01*
X119552D02*
X120502Y135323D01*
X119454D02*
X120405Y136274D01*
X118619Y135323D02*
X119570Y136274D01*
X118438D02*
X119389Y135323D01*
X118995Y136274D02*
X119946Y135323D01*
X118717Y136274D02*
X119667Y135323D01*
X118897D02*
X119848Y136274D01*
X118626Y131268D02*
X121087D01*
X118624Y135323D02*
X121089D01*
X120568D02*
X121088Y135844D01*
X120011Y135323D02*
X120962Y136274D01*
X120289Y135323D02*
X121088Y136122D01*
X119733Y135323D02*
X120683Y136274D01*
X117022D02*
X121067D01*
X119830D02*
X120781Y135323D01*
X120108Y136274D02*
X121059Y135323D01*
X120387Y136274D02*
X121089Y135572D01*
X121002Y125855D02*
X121059Y125799D01*
X121037Y125880D02*
X121080Y125838D01*
X121062Y125811D02*
X121088Y125850D01*
X121127Y125876D01*
X121173Y125885D01*
X121034Y125877D02*
X121061Y125916D01*
X123336Y125885D02*
X123371Y125878D01*
X121146Y125880D02*
X121171Y125904D01*
X121146Y125880D02*
X121171Y125904D01*
X125563Y125564D02*
X125889Y125890D01*
X125563Y125842D02*
X125611Y125890D01*
X125563Y121800D02*
Y125880D01*
Y125285D02*
X126167Y125890D01*
X125563Y125809D02*
X126538Y124834D01*
X125563Y125007D02*
X126446Y125890D01*
X125760D02*
X126538Y125112D01*
Y123428D02*
Y125890D01*
X126317D02*
X126538Y125669D01*
X126038Y125890D02*
X126538Y125391D01*
X121061Y125916D02*
X121070Y125962D01*
X121006Y130366D02*
X121067Y130304D01*
X121070Y128134D02*
X121070Y125962D01*
X121062Y128174D02*
X121070Y128134D01*
X120900Y130366D02*
X121087Y130553D01*
X120939Y131268D02*
X121087Y131120D01*
Y126038D02*
Y131268D01*
X121067Y136274D02*
Y138466D01*
Y128174D02*
Y130366D01*
X121151Y125913D02*
X121205Y125890D01*
X121109Y125954D02*
X121151Y125913D01*
X123371Y125880D02*
X125563D01*
X121173Y125885D02*
X123336D01*
X121235Y125890D02*
X126538Y125890D01*
X120846Y135323D02*
X121089Y135566D01*
X120665Y136274D02*
X121088Y135851D01*
X121087Y126008D02*
X121109Y125954D01*
X120944Y136274D02*
X121088Y136130D01*
X121087Y137433D02*
X121089Y135323D01*
X116995Y138432D02*
X117022Y138459D01*
X116995Y138553D02*
X117020Y138528D01*
X116995Y138153D02*
X117022Y138181D01*
X116995Y138274D02*
X117022Y138247D01*
X116995Y139109D02*
X117020Y139084D01*
X116995Y139267D02*
X117020Y139292D01*
X116995Y138710D02*
X117020Y138735D01*
X116995Y138988D02*
X117020Y139014D01*
X116995Y138831D02*
X117020Y138806D01*
X116995Y137596D02*
X117022Y137624D01*
X116995Y137718D02*
X117022Y137690D01*
X116995Y137875D02*
X117022Y137902D01*
X116995Y137996D02*
X117022Y137968D01*
X117020Y138506D02*
X117028Y138466D01*
X121054D02*
X121062Y138506D01*
Y138602D02*
X121089Y138629D01*
X121062Y138661D02*
X121089Y138634D01*
X121062Y138939D02*
X121092Y138910D01*
X121062Y138880D02*
X121092Y138909D01*
X116995Y139666D02*
X117020Y139641D01*
X116995Y139824D02*
X117020Y139849D01*
X116995Y139388D02*
X117020Y139363D01*
X116995Y139545D02*
X117020Y139570D01*
X116995Y140380D02*
X117020Y140405D01*
X116995Y140501D02*
X117020Y140476D01*
X116995Y139945D02*
X117020Y139920D01*
X116995Y140223D02*
X117020Y140198D01*
X116995Y140102D02*
X117020Y140127D01*
X121027Y140569D02*
X121053Y140530D01*
X120988Y140595D02*
X121027Y140569D01*
X121062Y139715D02*
X121088Y139741D01*
X121053Y140530D02*
X121062Y140483D01*
X121048Y140537D02*
X121085Y140573D01*
X116995Y140659D02*
X117020Y140684D01*
X116995Y140780D02*
X117020Y140755D01*
X120993Y140679D02*
X121085Y140587D01*
X120911Y140598D02*
X120942Y140604D01*
X120988Y140595D01*
X121062Y139496D02*
X121089Y139469D01*
X121062Y139775D02*
X121088Y139749D01*
X121067Y138328D02*
X121089Y138350D01*
X121067Y138377D02*
X121089Y138356D01*
X121062Y138506D02*
Y140483D01*
Y140331D02*
X121086Y140308D01*
X121062Y139994D02*
X121087Y140019D01*
X121062Y140272D02*
X121086Y140296D01*
X121062Y140053D02*
X121087Y140028D01*
X121087Y137433D02*
X121089Y138705D01*
X121192D01*
Y138754D01*
X121092Y138753D02*
X121192Y138754D01*
X121166Y138705D02*
X121192Y138732D01*
X121062Y139158D02*
X121090Y139187D01*
X121062Y139218D02*
X121090Y139190D01*
X121085Y140565D02*
X121092Y138753D01*
X121062Y139437D02*
X121089Y139464D01*
X121085Y140595D02*
X121107Y140649D01*
X121149Y140691D01*
X121203Y140713D01*
X121782Y140713D02*
X121822Y140754D01*
X121503Y140713D02*
X121544Y140754D01*
X121225Y140713D02*
X121274Y140762D01*
X121230Y140789D02*
X121269Y140763D01*
X121753Y140754D02*
X121794Y140713D01*
X121269Y140763D02*
X121315Y140754D01*
X121475Y140754D02*
X121516Y140713D01*
X122867Y140754D02*
X122907Y140713D01*
X122617D02*
X122657Y140754D01*
X123174Y140713D02*
X123214Y140754D01*
X122895Y140713D02*
X122936Y140754D01*
X123145D02*
X123186Y140713D01*
X122060Y140713D02*
X122101Y140754D01*
X122032D02*
X122072Y140713D01*
X122589Y140754D02*
X122629Y140713D01*
X122310Y140754D02*
X122351Y140713D01*
X122339D02*
X122379Y140754D01*
X116995Y141216D02*
X117020Y141241D01*
X116995Y141337D02*
X117020Y141311D01*
X116995Y140937D02*
X117020Y140962D01*
X116995Y141058D02*
X117020Y141033D01*
X116995Y141494D02*
X117020Y141519D01*
X116995Y141615D02*
X117020Y141590D01*
Y138506D02*
Y142374D01*
X116995Y141893D02*
X117020Y141868D01*
X116995Y141772D02*
X117020Y141797D01*
X116995Y142051D02*
X117020Y142076D01*
X116995Y142172D02*
X117020Y142147D01*
X116995Y142329D02*
X117020Y142354D01*
X116995Y142450D02*
X117028Y142416D01*
X117020Y142374D02*
X117029Y142420D01*
X117122Y142602D02*
X117343Y142381D01*
X117029Y142420D02*
X117055Y142459D01*
X117225D02*
X117324Y142360D01*
X117327Y142365D02*
X119554Y144592D01*
X117314Y142370D02*
X119617Y144673D01*
X117055Y142459D02*
X117094Y142485D01*
X117140Y142494D01*
X117186Y142485D02*
X117225Y142459D01*
X117140Y142494D02*
X117186Y142485D01*
X117261Y142741D02*
X117482Y142520D01*
X117400Y142880D02*
X117621Y142659D01*
X117539Y143019D02*
X117760Y142798D01*
X117678Y143158D02*
X117899Y142937D01*
X117818Y143298D02*
X118039Y143077D01*
X117957Y143437D02*
X118178Y143216D01*
X118096Y143576D02*
X118317Y143355D01*
X118235Y143715D02*
X118456Y143494D01*
X118374Y143854D02*
X118595Y143633D01*
X118514Y143994D02*
X118735Y143773D01*
X116995Y142475D02*
X119367Y144847D01*
X117157Y142491D02*
X119512Y144847D01*
X118653Y144133D02*
X118874Y143912D01*
X118792Y144272D02*
X119013Y144051D01*
X118931Y144411D02*
X119152Y144190D01*
X119070Y144550D02*
X119291Y144329D01*
X119210Y144689D02*
X119431Y144468D01*
X119554Y144592D02*
X119593Y144618D01*
X119608Y144630D02*
X119618Y144676D01*
X119349Y144829D02*
X119573Y144605D01*
X119609Y144847D02*
X119709Y144747D01*
X119618Y144676D02*
X119644Y144716D01*
X119683Y144742D01*
X119729Y144751D01*
X120911Y140598D02*
X121197Y140883D01*
X120723Y144847D02*
X120819Y144751D01*
X121132Y140818D02*
X121237Y140713D01*
X121195Y140874D02*
X121204Y140828D01*
X121230Y140789D01*
X119686Y144742D02*
X119791Y144847D01*
X119887D02*
X119983Y144751D01*
X120530D02*
X120626Y144847D01*
X119973Y144751D02*
X120069Y144847D01*
X120444D02*
X120540Y144751D01*
X121365D02*
X121461Y144847D01*
X121279D02*
X121375Y144751D01*
X121644D02*
X121740Y144847D01*
X121558D02*
X121654Y144751D01*
X120252D02*
X120348Y144847D01*
X120166D02*
X120262Y144751D01*
X121087D02*
X121183Y144847D01*
X120808Y144751D02*
X120904Y144847D01*
X121001D02*
X121097Y144751D01*
X122671Y144847D02*
X122767Y144751D01*
X122479D02*
X122575Y144847D01*
X123035Y144751D02*
X123131Y144847D01*
X122757Y144751D02*
X122853Y144847D01*
X122950D02*
X123046Y144751D01*
X121922D02*
X122018Y144847D01*
X121836D02*
X121932Y144751D01*
X122393Y144847D02*
X122489Y144751D01*
X122115Y144847D02*
X122211Y144751D01*
X122200D02*
X122296Y144847D01*
X123452Y140713D02*
X123501Y140762D01*
X123424Y140754D02*
X123464Y140713D01*
X123730D02*
X123780Y140762D01*
X123694D02*
X123743Y140713D01*
X124009Y140713D02*
X124058Y140762D01*
X123972D02*
X124021Y140713D01*
X124529Y140762D02*
X124578Y140713D01*
X124250Y140762D02*
X124299Y140713D01*
X124287D02*
X124336Y140762D01*
X121233Y140713D02*
X126551Y140713D01*
X124566Y140713D02*
X124615Y140762D01*
X125085D02*
X125135Y140713D01*
X124807Y140762D02*
X124856Y140713D01*
X124844D02*
X124893Y140762D01*
X125364D02*
X125413Y140713D01*
X125122D02*
X125171Y140762D01*
X125401Y140713D02*
X125450Y140762D01*
X125651Y141032D02*
X125970Y140713D01*
X125651Y141588D02*
X126526Y140713D01*
X123423Y140754D02*
X123466Y140762D01*
X121315Y140754D02*
X123423Y140754D01*
X125642Y140762D02*
X125691Y140713D01*
X123466Y140762D02*
X125651D01*
Y142145D02*
X126551Y141245D01*
X125651Y141520D02*
X126551Y142421D01*
X125651Y140964D02*
X126551Y141864D01*
X125651Y141242D02*
X126551Y142142D01*
X125651Y141867D02*
X126551Y140967D01*
X125651Y142077D02*
X126551Y142977D01*
X125651Y142980D02*
X126551Y142080D01*
X125651Y142424D02*
X126551Y141523D01*
X125651Y142702D02*
X126551Y141802D01*
X125651Y141799D02*
X126551Y142699D01*
X125651Y143191D02*
X126691Y144230D01*
X125651Y144372D02*
X126601Y143422D01*
X125651Y142356D02*
X126556Y143261D01*
X125651Y143816D02*
X126551Y142915D01*
X125651Y143259D02*
X126551Y142359D01*
X125958Y140713D02*
X126551Y141307D01*
X125651Y141310D02*
X126248Y140713D01*
X126514D02*
X126551Y140750D01*
X126236Y140713D02*
X126551Y141029D01*
X125651Y143537D02*
X126551Y142637D01*
X125651Y144094D02*
X126551Y143194D01*
X125679Y140713D02*
X126551Y141585D01*
X126551Y143236D02*
X126551Y143174D01*
Y140713D02*
Y143174D01*
X126551Y143236D02*
X126575Y143358D01*
X126622Y143474D01*
X126689Y143578D01*
X126776Y143668D01*
X126812Y143693D01*
X125651Y142634D02*
X126755Y143738D01*
X125651Y142912D02*
X126649Y143911D01*
X129625Y143823D02*
X129654Y143853D01*
X129489Y143875D02*
X129541Y143823D01*
X129462D02*
X129654D01*
X127487Y143823D02*
X127712D01*
X127676D02*
X127699Y143846D01*
X127520Y143896D02*
X127592Y143823D01*
X127506Y144188D02*
X127654Y144040D01*
X127537Y143963D02*
X127659Y144085D01*
X128462Y143823D02*
X128712D01*
X128511D02*
X128658Y143970D01*
X128520Y144009D02*
X128706Y143823D01*
X129501Y144141D02*
X129654Y143989D01*
X129519Y143996D02*
X129654Y144131D01*
Y144398D02*
X130520D01*
X124063Y144847D02*
X124170Y144740D01*
X123860D02*
X123967Y144847D01*
X125651Y140762D02*
Y144740D01*
X124342Y144847D02*
X124448Y144740D01*
X125651Y144304D02*
X126194Y144847D01*
X125651Y144583D02*
X125915Y144847D01*
X125734D02*
X126642Y143938D01*
X125651Y144026D02*
X126472Y144847D01*
X126012D02*
X126669Y144190D01*
X125651Y144651D02*
X126706Y143596D01*
X126822Y144361D02*
X127111Y144650D01*
X127028D02*
X127146D01*
X127028Y144419D02*
X127146D01*
X125651Y143469D02*
X126868Y144686D01*
X125651Y143747D02*
X126718Y144815D01*
X126290Y144847D02*
X126794Y144343D01*
X126569Y144847D02*
X126997Y144418D01*
X123228Y144847D02*
X123324Y144751D01*
X119729D02*
X123423D01*
X123469Y144742D01*
X123314Y144751D02*
X123410Y144847D01*
X123582Y144740D02*
X123688Y144847D01*
X123506D02*
X123613Y144740D01*
X124417D02*
X124523Y144847D01*
X123785D02*
X123892Y144740D01*
X124138D02*
X124245Y144847D01*
X124620D02*
X124727Y144740D01*
X123471D02*
X125651D01*
X124973D02*
X125080Y144847D01*
X124695Y144740D02*
X124802Y144847D01*
X124898D02*
X125005Y144740D01*
X125177Y144847D02*
X125284Y144740D01*
X119367Y144847D02*
X126699D01*
X125530Y144740D02*
X125637Y144847D01*
X125252Y144740D02*
X125359Y144847D01*
X125455D02*
X125562Y144740D01*
X127044Y144650D02*
X127310Y144384D01*
X127292Y144680D02*
X127727Y144246D01*
X127368Y144351D02*
X127770Y144753D01*
X127499Y144203D02*
X127953Y144658D01*
X127448Y144803D02*
X127882Y144368D01*
X127967Y144393D02*
X128235Y144661D01*
X128512Y144103D02*
X129059Y144650D01*
X128157Y144650D02*
X128671Y144136D01*
X129654Y143823D02*
Y144398D01*
X128991Y144652D02*
X129263Y144379D01*
X129255Y144666D02*
X129654Y144267D01*
X128365Y144721D02*
X128781Y144305D01*
X128239Y144386D02*
X128699Y144846D01*
X129465Y144220D02*
X129913Y144668D01*
X128415Y144284D02*
X128835Y144704D01*
X129321Y144355D02*
X129745Y144779D01*
X127806Y144723D02*
X128131Y144398D01*
X127475Y144847D02*
X127699D01*
X128028Y144398D02*
X128146D01*
X128028Y144650D02*
X128146D01*
X127158Y144419D02*
X127586Y144847D01*
X127682D02*
X127727Y144802D01*
X128475Y144847D02*
X128699D01*
X129425Y144775D02*
X129801Y144398D01*
X129028Y144650D02*
X129146D01*
X129028Y144398D02*
X129146D01*
X128517Y144847D02*
X128971Y144394D01*
X129086Y144398D02*
X129534Y144847D01*
X129631D02*
X130080Y144398D01*
X129475Y144847D02*
X129699D01*
X130703Y121796D02*
X131464Y122557D01*
X129705Y122780D02*
X130689Y121796D01*
X131260D02*
X131464Y122000D01*
X130982Y121796D02*
X131464Y122278D01*
X129981Y122783D02*
X130968Y121796D01*
X129868D02*
X131464Y123392D01*
X130206Y122836D02*
X131246Y121796D01*
X130377Y122944D02*
X131464Y121856D01*
X130425Y121796D02*
X131464Y122835D01*
X131773Y121825D02*
X131803Y121796D01*
X131464Y121825D02*
X133656D01*
X132095Y121796D02*
X132125Y121825D01*
X131817Y121796D02*
X131846Y121825D01*
X132052D02*
X132081Y121796D01*
X130146D02*
X131464Y123113D01*
X130502Y123097D02*
X131464Y122135D01*
X131538Y121796D02*
X131568Y121825D01*
X131464Y121856D02*
X131495Y121825D01*
X131524Y121796D01*
X129970Y122782D02*
X130032Y122785D01*
X130154Y122813D01*
X130267Y122864D01*
X130369Y122936D01*
X130455Y123025D01*
X130523Y123130D01*
X130569Y123245D01*
X130593Y123430D02*
X130593Y123367D01*
X130569Y123245D02*
X130593Y123367D01*
X130580Y123297D02*
X131464Y122413D01*
X130590Y123353D02*
X131464Y124227D01*
X130593Y123562D02*
X131464Y122692D01*
X130593Y124119D02*
X131464Y123248D01*
X130593Y123841D02*
X131464Y122970D01*
X130593Y123634D02*
X131464Y124505D01*
X130593Y123913D02*
X131464Y124784D01*
X130593Y124397D02*
X131464Y123527D01*
X130593Y124954D02*
X131464Y124083D01*
X130593Y124676D02*
X131464Y123805D01*
X132652Y121796D02*
X132681Y121825D01*
X132609D02*
X132638Y121796D01*
X132839Y121650D02*
X132839Y121796D01*
X132839Y121650D02*
Y121796D01*
X132374D02*
X132403Y121825D01*
X132330D02*
X132360Y121796D01*
X135663Y121833D02*
X135700Y121796D01*
X135385Y121833D02*
X135422Y121796D01*
X135436D02*
X135473Y121833D01*
X136549Y121796D02*
X136586Y121833D01*
X136498D02*
X136535Y121796D01*
X137055Y121833D02*
X137092Y121796D01*
X136777Y121833D02*
X136814Y121796D01*
X136828D02*
X136865Y121833D01*
X135942D02*
X135979Y121796D01*
X135714D02*
X135751Y121833D01*
X136271Y121796D02*
X136308Y121833D01*
X135993Y121796D02*
X136030Y121833D01*
X136220D02*
X136257Y121796D01*
X132930Y121796D02*
X132960Y121825D01*
X132887D02*
X132916Y121796D01*
X133209D02*
X133238Y121825D01*
X133165D02*
X133195Y121796D01*
X133487Y121796D02*
X133517Y121825D01*
X133444D02*
X133473Y121796D01*
X133766D02*
X133802Y121833D01*
X133656Y121840D02*
X133693Y121833D01*
X133715D02*
X133752Y121796D01*
X134828Y121833D02*
X134865Y121796D01*
X134601D02*
X134638Y121833D01*
X135157Y121796D02*
X135194Y121833D01*
X134879Y121796D02*
X134916Y121833D01*
X135107D02*
X135143Y121796D01*
X134044Y121796D02*
X134081Y121833D01*
X133993D02*
X134030Y121796D01*
X134550Y121833D02*
X134587Y121796D01*
X134271Y121833D02*
X134308Y121796D01*
X134322D02*
X134359Y121833D01*
X130593Y124191D02*
X131464Y125062D01*
X130593Y124748D02*
X131464Y125619D01*
Y121825D02*
Y125883D01*
X130593Y125511D02*
X131464Y124640D01*
X130593Y123430D02*
X130593Y125890D01*
X130593Y125026D02*
X131457Y125890D01*
X130593Y125305D02*
X131178Y125890D01*
X130593Y125862D02*
X130622Y125890D01*
X130593Y125583D02*
X130900Y125890D01*
X130593Y125233D02*
X131464Y124362D01*
X130593Y124470D02*
X131464Y125340D01*
X130593Y125789D02*
X131464Y124919D01*
X135820Y125864D02*
X135859Y125838D01*
X135885Y125798D01*
X130771Y125890D02*
X131464Y125197D01*
X131049Y125890D02*
X131464Y125475D01*
X131328Y125890D02*
X131464Y125754D01*
X135859Y125838D02*
X136032Y126011D01*
X135890Y125771D02*
X136102Y125983D01*
X133656Y125866D02*
X133693Y125873D01*
X131464Y125883D02*
X133656D01*
X135774Y125873D02*
X135820Y125864D01*
X133693Y125873D02*
X135774Y125873D01*
X133660Y125866D02*
X133684Y125890D01*
X130593D02*
X135810D01*
X135782D02*
X135805Y125867D01*
X135839Y125890D02*
X135893Y125913D01*
X135935Y125954D01*
X135953Y125998D02*
X136035Y125915D01*
X135935Y125954D02*
X135957Y126008D01*
X135957Y126215D02*
X135986Y126244D01*
X135957Y126493D02*
X135986Y126522D01*
X135957Y126271D02*
X135986Y126242D01*
X135957Y126038D02*
X135957Y131254D01*
X135957Y127328D02*
X135986Y127357D01*
X135957Y126550D02*
X135986Y126521D01*
X135957Y126828D02*
X135986Y126799D01*
X135957Y126772D02*
X135986Y126801D01*
X135957Y127050D02*
X135986Y127079D01*
X135957Y127107D02*
X135986Y127078D01*
X135957Y127385D02*
X135986Y127356D01*
X135957Y127607D02*
X135986Y127636D01*
X135957Y127663D02*
X135986Y127634D01*
X135957Y127885D02*
X135986Y127914D01*
Y126103D02*
Y128147D01*
X135957Y127942D02*
X135986Y127913D01*
X135957Y128442D02*
X135989Y128473D01*
X135986Y126102D02*
X135996Y126056D01*
X135986Y128147D02*
X135994Y128186D01*
X136061Y125991D02*
X136102Y125983D01*
X135996Y126056D02*
X136022Y126017D01*
X136061Y125991D01*
X135957Y128163D02*
X135989Y128195D01*
X135957Y128220D02*
X135989Y128189D01*
Y128186D02*
Y130378D01*
X135957Y128720D02*
X135989Y128752D01*
X135957Y128498D02*
X135989Y128467D01*
X135957Y129277D02*
X135989Y129308D01*
X135957Y129334D02*
X135989Y129302D01*
X135957Y128777D02*
X135989Y128746D01*
X135957Y128999D02*
X135989Y129030D01*
X135957Y129555D02*
X135989Y129587D01*
X135957Y129612D02*
X135989Y129581D01*
X135957Y129834D02*
X135989Y129865D01*
X135957Y131226D02*
X135986Y131254D01*
X135957Y129890D02*
X135989Y129859D01*
X135957Y129055D02*
X135989Y129024D01*
X135957Y130112D02*
X135989Y130144D01*
X135957Y130169D02*
X135989Y130137D01*
X135957Y130447D02*
X136026Y130378D01*
X135957Y130726D02*
X136305Y130378D01*
X135957Y131004D02*
X136583Y130378D01*
X135957Y130391D02*
X136821Y131254D01*
X135985D02*
X136861Y130378D01*
X135957Y130947D02*
X136264Y131254D01*
X135957Y130669D02*
X136543Y131254D01*
X137106Y121796D02*
X137143Y121833D01*
X133693D02*
X137455D01*
X137385Y121796D02*
X137421Y121833D01*
X137334D02*
X137371Y121796D01*
X137455Y121833D02*
X137501Y121842D01*
X137540Y121868D01*
X137566Y121907D01*
Y121999D02*
X137576Y121953D01*
X137566Y121907D02*
X137576Y121953D01*
X137555Y121890D02*
X137649Y121796D01*
X132839Y121796D02*
X137719Y121796D01*
X137597Y122126D02*
X137823Y121900D01*
X137736Y122265D02*
X137962Y122039D01*
X137876Y122404D02*
X138101Y122179D01*
X137570Y121981D02*
X140053Y124465D01*
X137542Y122071D02*
X139769Y124298D01*
X137663Y121796D02*
X140053Y124186D01*
X138015Y122544D02*
X138241Y122318D01*
X137719Y121796D02*
X140053Y124131D01*
X138154Y122683D02*
X138380Y122457D01*
X138293Y122822D02*
X138519Y122596D01*
X138432Y122961D02*
X138658Y122735D01*
X138572Y123100D02*
X138797Y122874D01*
X138711Y123240D02*
X138937Y123014D01*
X138850Y123379D02*
X139076Y123153D01*
X138989Y123518D02*
X139215Y123292D01*
X139128Y123657D02*
X139354Y123431D01*
X139267Y123796D02*
X139493Y123570D01*
X139407Y123936D02*
X139633Y123710D01*
X139546Y124075D02*
X139772Y123849D01*
X139685Y124214D02*
X139911Y123988D01*
X139769Y124298D02*
X139794Y124336D01*
X139835Y124343D02*
X140050Y124127D01*
X139798Y124335D02*
X139844Y124345D01*
X139883Y124371D01*
X139909Y124410D01*
X139910Y128186D02*
X139918Y128147D01*
X139909Y124410D02*
X139918Y124456D01*
X139918Y124816D02*
X140053Y124681D01*
X139918Y124886D02*
X140053Y125022D01*
X139918Y124538D02*
X140053Y124402D01*
X139918Y124608D02*
X140053Y124743D01*
X139918Y128147D02*
X139918Y124456D01*
X139918Y125443D02*
X140053Y125578D01*
X139918Y125094D02*
X140053Y124959D01*
X139918Y125373D02*
X140053Y125237D01*
X139918Y125165D02*
X140053Y125300D01*
X139918Y126000D02*
X140053Y126135D01*
X139918Y126208D02*
X140053Y126073D01*
X139918Y125651D02*
X140053Y125516D01*
X139918Y125930D02*
X140053Y125794D01*
X139918Y125721D02*
X140053Y125857D01*
X139918Y126765D02*
X140053Y126629D01*
X139918Y126835D02*
X140053Y126970D01*
X139918Y126278D02*
X140053Y126413D01*
X139918Y126557D02*
X140053Y126692D01*
X139918Y126486D02*
X140053Y126351D01*
X139935Y128696D02*
X140053Y128578D01*
X139935Y128801D02*
X140053Y128919D01*
X139935Y128418D02*
X140053Y128300D01*
X139935Y128522D02*
X140053Y128641D01*
X139935Y129358D02*
X140053Y129476D01*
X139935Y129532D02*
X140053Y129413D01*
X139935Y128975D02*
X140053Y128857D01*
X139935Y129253D02*
X140053Y129135D01*
X139935Y129079D02*
X140053Y129197D01*
X139918Y127392D02*
X140053Y127527D01*
X139918Y127600D02*
X140053Y127465D01*
X139918Y127043D02*
X140053Y126908D01*
X139918Y127322D02*
X140053Y127186D01*
X139918Y127113D02*
X140053Y127249D01*
X139918Y127878D02*
X140053Y127743D01*
X139916Y128159D02*
X140053Y128021D01*
X139918Y127670D02*
X140053Y127805D01*
X139935Y128244D02*
X140053Y128362D01*
X139918Y127948D02*
X140053Y128084D01*
X137099Y131254D02*
X137975Y130378D01*
X137059D02*
X137935Y131254D01*
X137377D02*
X138253Y130378D01*
X137337D02*
X138213Y131254D01*
X136502Y130378D02*
X137378Y131254D01*
X136264D02*
X137140Y130378D01*
X136821Y131254D02*
X137696Y130378D01*
X136542Y131254D02*
X137418Y130378D01*
X136780D02*
X137656Y131254D01*
X137656D02*
X138532Y130378D01*
X137615D02*
X138493Y131256D01*
X138705Y131319D02*
X139645Y130378D01*
X137934Y131254D02*
X138810Y130378D01*
X138213Y131254D02*
X139088Y130378D01*
X138172D02*
X140053Y132260D01*
X137894Y130378D02*
X140053Y132538D01*
X138868Y131434D02*
X139924Y130378D01*
X138451D02*
X140053Y131981D01*
X138729Y130378D02*
X140053Y131703D01*
X136223Y130378D02*
X137099Y131254D01*
X135957D02*
X138420D01*
X138484Y131254D02*
X138609Y131279D01*
X138420Y131254D02*
X138484Y131254D01*
X138609Y131279D02*
X138727Y131328D01*
X138833Y131399D01*
X138923Y131489D01*
X138994Y131595D01*
X138983Y134984D02*
X139034Y134870D01*
X138490Y131255D02*
X139367Y130378D01*
X135989D02*
X139935D01*
X139007D02*
X140053Y131424D01*
X138994Y131595D02*
X139043Y131713D01*
X138990Y131590D02*
X140053Y130527D01*
X137991Y136208D02*
X140053Y134146D01*
X138270Y136208D02*
X140053Y134424D01*
X139021Y134900D02*
X140053Y133868D01*
X139034Y134870D02*
X139063Y134749D01*
X138548Y136208D02*
X140053Y134703D01*
X139935Y130193D02*
X140053Y130311D01*
X139935Y130367D02*
X140053Y130248D01*
X139935Y129914D02*
X140053Y130033D01*
X139935Y130088D02*
X140053Y129970D01*
X139043Y131713D02*
X139068Y131838D01*
X139068Y131902D02*
X139068Y131838D01*
X140053Y124131D02*
Y142473D01*
X139068Y131902D02*
X139068Y134660D01*
X139935Y128186D02*
Y130378D01*
X139564D02*
X140053Y130868D01*
X139286Y130378D02*
X140053Y131146D01*
X139935Y129636D02*
X140053Y129754D01*
X139843Y130378D02*
X140053Y130589D01*
X139935Y129810D02*
X140053Y129692D01*
X139060Y131799D02*
X140053Y130805D01*
X139066Y131829D02*
X140053Y132816D01*
X139068Y132070D02*
X140053Y131084D01*
X139068Y132626D02*
X140053Y131640D01*
X139068Y132348D02*
X140053Y131362D01*
X139068Y132109D02*
X140053Y133095D01*
X139068Y132387D02*
X140053Y133373D01*
X139068Y132905D02*
X140053Y131919D01*
X139068Y133462D02*
X140053Y132476D01*
X139068Y133740D02*
X140053Y132754D01*
X139063Y134749D02*
X139065Y134687D01*
X139068Y132666D02*
X140053Y133652D01*
X139068Y134018D02*
X140053Y133032D01*
X139068Y132944D02*
X140053Y133930D01*
X139068Y133222D02*
X140053Y134208D01*
X139068Y133501D02*
X140053Y134487D01*
X139068Y133183D02*
X140053Y132197D01*
X139068Y134575D02*
X140053Y133589D01*
X139068Y134297D02*
X140053Y133311D01*
X139068Y133779D02*
X140053Y134765D01*
X139036Y134862D02*
X140053Y135879D01*
X139068Y134058D02*
X140053Y135044D01*
X139068Y134614D02*
X140053Y135600D01*
X139068Y134336D02*
X140053Y135322D01*
X132854Y140789D02*
X132929Y140713D01*
X132639D02*
X132715Y140789D01*
X133132D02*
X133208Y140713D01*
X132917D02*
X132993Y140789D01*
X132082Y140713D02*
X132158Y140789D01*
X132018D02*
X132094Y140713D01*
X132575Y140789D02*
X132651Y140713D01*
X132297Y140789D02*
X132373Y140713D01*
X132361D02*
X132436Y140789D01*
X130607Y140713D02*
X135810Y140713D01*
X134031Y140713D02*
X134078Y140760D01*
X134588Y140713D02*
X134634Y140760D01*
X134275D02*
X134321Y140713D01*
X134553Y140760D02*
X134600Y140713D01*
X133474Y140713D02*
X133550Y140789D01*
X133196Y140713D02*
X133272Y140789D01*
X133996Y140760D02*
X134043Y140713D01*
X133718Y140760D02*
X133765Y140713D01*
X133752D02*
X133799Y140760D01*
X130607Y141087D02*
X130981Y140713D01*
X130607Y140809D02*
X130702Y140713D01*
X131247D02*
X131422Y140888D01*
Y140829D02*
X131462Y140789D01*
X130607Y141365D02*
X131259Y140713D01*
X130607Y141644D02*
X131422Y140829D01*
X130969Y140713D02*
X131422Y141166D01*
X130607Y140908D02*
X131422Y141723D01*
X130690Y140713D02*
X131422Y141445D01*
X133577Y140789D02*
X133607Y140769D01*
X131422Y140789D02*
X133577D01*
X134309Y140713D02*
X134356Y140760D01*
X133607Y140769D02*
X133653Y140760D01*
X135668D01*
X131525Y140713D02*
X131601Y140789D01*
X131462D02*
X131537Y140713D01*
X133410Y140789D02*
X133486Y140713D01*
X131740Y140789D02*
X131816Y140713D01*
X131804D02*
X131880Y140789D01*
X135957Y138742D02*
X135986Y138771D01*
X135957Y138799D02*
X135986Y138770D01*
X135957Y138464D02*
X135986Y138493D01*
X135957Y138520D02*
X135986Y138491D01*
X135957Y135310D02*
Y140565D01*
Y139356D02*
X135986Y139327D01*
X135957Y139021D02*
X135986Y139050D01*
X135957Y139299D02*
X135986Y139328D01*
X135957Y139077D02*
X135986Y139048D01*
X135957Y139634D02*
X135986Y139605D01*
X135957Y139856D02*
X135986Y139885D01*
X135957Y136293D02*
X135993Y136258D01*
X135957Y139577D02*
X135986Y139606D01*
X135957Y137685D02*
X135993Y137650D01*
X135957Y139912D02*
X135986Y139883D01*
X135957Y140134D02*
X135986Y140163D01*
X135986Y138437D02*
X135986Y140459D01*
X135957Y140191D02*
X135986Y140162D01*
X135957Y140413D02*
X135986Y140442D01*
X134866Y140713D02*
X134913Y140760D01*
X134831D02*
X134878Y140713D01*
X135144D02*
X135191Y140760D01*
X135110D02*
X135157Y140713D01*
X135423D02*
X135470Y140760D01*
X135388D02*
X135435Y140713D01*
X135667Y140760D02*
X135713Y140713D01*
X135668Y140760D02*
X135714Y140769D01*
X135753Y140795D01*
X135893Y140691D02*
X135935Y140649D01*
X135839Y140713D02*
X135893Y140691D01*
X135957Y140469D02*
X135986Y140440D01*
X135935Y140649D02*
X135957Y140595D01*
X135925Y140659D02*
X135985Y140718D01*
X135701Y140713D02*
X135846Y140858D01*
X135753Y140795D02*
X135779Y140834D01*
X135925Y140659D02*
X135985Y140718D01*
X135780Y140923D02*
X135789Y140880D01*
X135779Y140834D02*
X135789Y140880D01*
X130607Y141465D02*
X131422Y142280D01*
X130607Y142479D02*
X131422Y141664D01*
X130607Y141922D02*
X131422Y141107D01*
X130607Y141187D02*
X131422Y142002D01*
X130607Y143176D02*
X130607Y143239D01*
X130582Y143365D02*
X130607Y143239D01*
X130607Y140713D02*
Y143176D01*
Y142757D02*
X131422Y141942D01*
X130607Y141743D02*
X131422Y142558D01*
X130607Y142300D02*
X131422Y143115D01*
X130588Y143333D02*
X131422Y142499D01*
X130607Y142201D02*
X131422Y141386D01*
X130607Y143036D02*
X131422Y142221D01*
X130607Y142022D02*
X131422Y142837D01*
X130520Y143679D02*
X131422Y142778D01*
X130520Y143958D02*
X131422Y143056D01*
X130607Y142579D02*
X131422Y143393D01*
X130607Y143135D02*
X131422Y143950D01*
X130607Y142857D02*
X131422Y143672D01*
X130401Y143650D02*
X130462Y143589D01*
X130401Y143650D02*
X130520D01*
X130462Y143589D02*
X130533Y143482D01*
X130520Y143650D02*
Y144398D01*
X129921D02*
X130174Y144651D01*
X130106Y144650D02*
X130358Y144398D01*
X130028Y144650D02*
X130146D01*
X130479Y143564D02*
X131422Y144507D01*
X130334Y144701D02*
X131422Y143613D01*
X130520Y144236D02*
X131422Y143334D01*
X130533Y143482D02*
X130582Y143365D01*
X130575Y143382D02*
X131422Y144229D01*
X130472Y144841D02*
X131422Y143891D01*
X130199Y144398D02*
X130648Y144847D01*
X130520Y143884D02*
X131483Y144847D01*
X130478Y144398D02*
X130926Y144847D01*
X130520Y144162D02*
X131205Y144847D01*
X130745D02*
X131422Y144170D01*
X131023Y144847D02*
X131422Y144448D01*
Y140789D02*
Y144740D01*
X133614Y144724D02*
X133653Y144732D01*
X131301Y144847D02*
X131422Y144726D01*
X133528Y144847D02*
X133645Y144730D01*
X134085Y144847D02*
X134200Y144732D01*
X133807Y144847D02*
X133922Y144732D01*
X133874D02*
X133989Y144847D01*
X134987Y144732D02*
X135102Y144847D01*
X134920D02*
X135035Y144732D01*
X135199Y144847D02*
X135314Y144732D01*
X135266D02*
X135381Y144847D01*
X135544Y144732D02*
X135659Y144847D01*
X134152Y144732D02*
X134267Y144847D01*
X134364D02*
X134479Y144732D01*
X134709D02*
X134824Y144847D01*
X134430Y144732D02*
X134545Y144847D01*
X134642D02*
X134757Y144732D01*
X132415Y144847D02*
X132522Y144740D01*
X132212D02*
X132318Y144847D01*
X132693D02*
X132800Y144740D01*
X132490D02*
X132597Y144847D01*
X131655Y144740D02*
X131761Y144847D01*
X131580D02*
X131686Y144740D01*
X132137Y144847D02*
X132243Y144740D01*
X131858Y144847D02*
X131965Y144740D01*
X131933D02*
X132040Y144847D01*
X132768Y144740D02*
X132875Y144847D01*
X131422Y144740D02*
X133614D01*
X133250Y144847D02*
X133357Y144740D01*
X132972Y144847D02*
X133078Y144740D01*
X133047D02*
X133153Y144847D01*
X133603Y144740D02*
X133710Y144847D01*
X133325Y144740D02*
X133432Y144847D01*
X135822Y144732D02*
X135937Y144847D01*
X135477D02*
X135592Y144732D01*
X135756Y144847D02*
X135871Y144732D01*
X135957Y136015D02*
X136663Y135310D01*
X135957Y135680D02*
X136485Y136208D01*
X135957Y135458D02*
X136106Y135310D01*
X135957Y135737D02*
X136384Y135310D01*
X136043Y136208D02*
X136941Y135310D01*
X135957Y135402D02*
X136764Y136208D01*
X136321D02*
X137219Y135310D01*
X136144Y135310D02*
X137042Y136208D01*
X136422Y135310D02*
X137320Y136208D01*
X135957Y135310D02*
X138418Y135310D01*
X136599Y136208D02*
X137498Y135310D01*
X136979D02*
X137877Y136208D01*
X136701Y135310D02*
X137599Y136208D01*
X136878D02*
X137776Y135310D01*
X137156Y136208D02*
X138055Y135310D01*
X137257Y135310D02*
X138156Y136208D01*
X137713D02*
X138657Y135264D01*
X137435Y136208D02*
X138333Y135310D01*
X137536Y135310D02*
X138434Y136208D01*
X135957Y136572D02*
X135993Y136536D01*
X135957Y136794D02*
X135993Y136829D01*
X135957Y136237D02*
X135993Y136272D01*
X135957Y136515D02*
X135993Y136551D01*
X135957Y136850D02*
X135993Y136815D01*
X135957Y137072D02*
X135993Y137107D01*
Y136208D02*
Y138400D01*
X135957Y137964D02*
X135993Y137928D01*
X135957Y137129D02*
X135993Y137093D01*
X135957Y135958D02*
X136207Y136208D01*
X135957Y137350D02*
X135993Y137386D01*
Y136258D02*
X136043Y136208D01*
X135957Y137407D02*
X135993Y137371D01*
Y136208D02*
X140004D01*
X135957Y137629D02*
X135993Y137664D01*
X135957Y137907D02*
X135993Y137943D01*
X135957Y138185D02*
X135993Y138221D01*
X135957Y138242D02*
X135993Y138207D01*
X135986Y138437D02*
X135994Y138400D01*
X138718Y135239D02*
X138822Y135172D01*
X138602Y135286D02*
X138718Y135239D01*
X138912Y135085D02*
X138983Y134984D01*
X138822Y135172D02*
X138912Y135085D01*
X138092Y135310D02*
X138991Y136208D01*
X137814Y135310D02*
X138712Y136208D01*
X138480Y135310D02*
X138602Y135286D01*
X138418Y135310D02*
X138480Y135310D01*
X138371Y135310D02*
X139269Y136208D01*
X138802Y135184D02*
X139826Y136208D01*
X138619Y135279D02*
X139548Y136208D01*
X138827D02*
X140053Y134981D01*
X139940Y136208D02*
X140053Y136095D01*
X138941Y135044D02*
X140053Y136157D01*
X139105Y136208D02*
X140053Y135259D01*
X139383Y136208D02*
X140053Y135538D01*
X139662Y136208D02*
X140053Y135816D01*
X140004Y136208D02*
Y138400D01*
Y136422D02*
X140053Y136373D01*
X140004Y136979D02*
X140053Y136930D01*
X140004Y136943D02*
X140053Y136992D01*
X140004Y136386D02*
X140053Y136435D01*
X140004Y136700D02*
X140053Y136651D01*
X140004Y137500D02*
X140053Y137549D01*
X139999Y138400D02*
X140007Y138437D01*
X140004Y137257D02*
X140053Y137208D01*
X140004Y137536D02*
X140053Y137487D01*
X140004Y137222D02*
X140053Y137271D01*
X140004Y138092D02*
X140053Y138043D01*
X140004Y138057D02*
X140053Y138106D01*
X140004Y136665D02*
X140053Y136714D01*
X140004Y137778D02*
X140053Y137827D01*
X140004Y137814D02*
X140053Y137765D01*
X140004Y138371D02*
X140053Y138322D01*
X140004Y138335D02*
X140053Y138384D01*
X140007Y138647D02*
X140053Y138600D01*
X140007Y138925D02*
X140053Y138878D01*
X140007Y138616D02*
X140053Y138663D01*
X135986Y140459D02*
X135996Y140505D01*
X135780Y140923D02*
X136128Y140575D01*
X136022Y140544D02*
X136061Y140570D01*
X136107Y140579D01*
X137825Y144229D02*
X138061Y144465D01*
X137686Y144369D02*
X137922Y144604D01*
X138243Y143812D02*
X138479Y144047D01*
X137965Y144090D02*
X138200Y144326D01*
X138104Y143951D02*
X138339Y144187D01*
X138661Y143394D02*
X138896Y143630D01*
X138661Y143394D02*
X138896Y143630D01*
X139078Y142977D02*
X139314Y143212D01*
X138800Y143255D02*
X139035Y143491D01*
X138939Y143116D02*
X139175Y143352D01*
X137522Y144533D02*
X139749Y142305D01*
X137426Y144847D02*
X139920Y142352D01*
X137679Y144847D02*
X140053Y142473D01*
X138382Y143673D02*
X138618Y143908D01*
X138521Y143533D02*
X138757Y143769D01*
X136657Y144732D02*
X136772Y144847D01*
X136869D02*
X136984Y144732D01*
X137147Y144847D02*
X137262Y144732D01*
X136936D02*
X137051Y144847D01*
X136101Y144732D02*
X136216Y144847D01*
X136034D02*
X136149Y144732D01*
X136591Y144847D02*
X136706Y144732D01*
X136312Y144847D02*
X136427Y144732D01*
X136379D02*
X136494Y144847D01*
X137460Y144723D02*
X137499Y144697D01*
X133653Y144732D02*
X137414Y144732D01*
X137525Y144565D02*
X137534Y144611D01*
X137499Y144697D02*
X137525Y144657D01*
X137534Y144611D01*
X137214Y144732D02*
X137329Y144847D01*
X130475D02*
X137679D01*
X137547Y144508D02*
X137783Y144743D01*
X137414Y144732D02*
X137460Y144723D01*
X137474Y144713D02*
X137608Y144847D01*
X140007Y139173D02*
X140053Y139219D01*
X140007Y139482D02*
X140053Y139435D01*
X140007Y138894D02*
X140053Y138941D01*
X140007Y139204D02*
X140053Y139157D01*
X140007Y138437D02*
Y142239D01*
Y140039D02*
X140053Y139992D01*
X140007Y139451D02*
X140053Y139498D01*
X140007Y139729D02*
X140053Y139776D01*
X140007Y139760D02*
X140053Y139714D01*
X140007Y140596D02*
X140053Y140549D01*
X140007Y140565D02*
X140053Y140611D01*
X140007Y140008D02*
X140053Y140055D01*
X140007Y140286D02*
X140053Y140333D01*
X140007Y140317D02*
X140053Y140270D01*
X140007Y141121D02*
X140053Y141168D01*
X140007Y141431D02*
X140053Y141384D01*
X140007Y140874D02*
X140053Y140827D01*
X140007Y141152D02*
X140053Y141106D01*
X140007Y140843D02*
X140053Y140890D01*
X139763Y142285D02*
X139801Y142324D01*
X139840Y142350D01*
X139932D02*
X139971Y142324D01*
X139840Y142350D02*
X139886Y142359D01*
X139356Y142698D02*
X139592Y142934D01*
X139217Y142837D02*
X139453Y143073D01*
X139886Y142359D02*
X139932Y142350D01*
X139496Y142559D02*
X139731Y142795D01*
X139635Y142420D02*
X139871Y142656D01*
X140007Y141988D02*
X140053Y141941D01*
X140007Y141956D02*
X140053Y142003D01*
X140007Y141400D02*
X140053Y141446D01*
X140007Y141678D02*
X140053Y141725D01*
X140007Y141709D02*
X140053Y141662D01*
X139971Y142324D02*
X139998Y142285D01*
X139844Y142351D02*
X140010Y142516D01*
X140000Y142273D02*
X140053Y142219D01*
X139998Y142285D02*
X140007Y142239D01*
X140007Y142235D02*
X140053Y142282D01*
X120624Y125359D02*
X120802Y125182D01*
X120624Y125359D02*
Y125398D01*
X155644Y143823D02*
G03*
X155699Y144024I-341J201D01*
G01*
X156186Y144398D02*
G03*
X155870Y143823I0J-374D01*
G01*
X156620Y143823D02*
G03*
X156678Y144024I-316J201D01*
G01*
X157620Y143823D02*
G03*
X157678Y144024I-316J201D01*
G01*
X157186Y144398D02*
G03*
X156870Y143823I0J-374D01*
G01*
X157678Y144024D02*
G03*
X157304Y144398I-374J0D01*
G01*
X155186Y144419D02*
G03*
X154970Y143693I0J-395D01*
G01*
X154857Y144847D02*
G03*
X155186Y144650I329J177D01*
G01*
X156678Y144024D02*
G03*
X156304Y144398I-374J0D01*
G01*
X155699Y144024D02*
G03*
X155304Y144419I-395J0D01*
G01*
Y144650D02*
G03*
X155633Y144847I0J374D01*
G01*
X156304Y144650D02*
G03*
X156633Y144847I0J374D01*
G01*
X155857D02*
G03*
X156186Y144650I329J177D01*
G01*
X156856Y144847D02*
G03*
X157186Y144650I329J177D01*
G01*
X157304D02*
G03*
X157633Y144847I0J374D01*
G01*
X157857D02*
G03*
X158186Y144650I329J177D01*
G01*
X158304D02*
G03*
X158633Y144847I0J374D01*
G01*
X145153Y126025D02*
X145178Y126000D01*
X145153Y126183D02*
X145178Y126208D01*
X145153Y125747D02*
X145178Y125722D01*
X145153Y125904D02*
X145178Y125929D01*
X145153Y126739D02*
X145178Y126764D01*
X145153Y126860D02*
X145178Y126835D01*
X145153Y126304D02*
X145178Y126278D01*
X145153Y126582D02*
X145178Y126557D01*
X145153Y126461D02*
X145178Y126486D01*
X145153Y124791D02*
X145178Y124816D01*
X145153Y124912D02*
X145178Y124887D01*
X145153Y124234D02*
X145259Y124340D01*
X145153Y124633D02*
X145178Y124608D01*
X145153Y124512D02*
X145178Y124537D01*
X145153Y125468D02*
X145178Y125443D01*
X145153Y125626D02*
X145178Y125651D01*
X145153Y125069D02*
X145178Y125094D01*
X145153Y125347D02*
X145178Y125372D01*
X145153Y125190D02*
X145178Y125165D01*
X145153Y127296D02*
X145178Y127321D01*
X145153Y127417D02*
X145178Y127392D01*
X145153Y127018D02*
X145178Y127043D01*
X145153Y127139D02*
X145178Y127114D01*
X145153Y127974D02*
X145178Y127949D01*
X145153Y129245D02*
X145180Y129272D01*
X145153Y127574D02*
X145178Y127600D01*
X145153Y127853D02*
X145178Y127878D01*
X145153Y127696D02*
X145178Y127670D01*
X145153Y129802D02*
X145180Y129829D01*
X145153Y129923D02*
X145180Y129895D01*
X145153Y129366D02*
X145180Y129338D01*
X145153Y129644D02*
X145180Y129617D01*
X145153Y129523D02*
X145180Y129551D01*
X145153Y130758D02*
X145545Y130366D01*
X145153Y131036D02*
X145823Y130366D01*
X145153Y130080D02*
X145180Y130107D01*
X145153Y130201D02*
X145180Y130174D01*
X145153Y130479D02*
X145266Y130366D01*
X145658Y123625D02*
X145848Y123816D01*
X145518Y123765D02*
X145709Y123955D01*
X145936Y123347D02*
X146126Y123538D01*
X145797Y123486D02*
X145987Y123677D01*
X145240Y124043D02*
X145431Y124233D01*
X145298Y124333D02*
X145344Y124342D01*
X145379Y123904D02*
X145570Y124094D01*
X145361Y124353D02*
X145370Y124307D01*
X145396Y124268D01*
X146771Y122512D02*
X146962Y122702D01*
X146632Y122651D02*
X146822Y122842D01*
X147189Y122094D02*
X147379Y122285D01*
X146910Y122373D02*
X147101Y122563D01*
X147050Y122233D02*
X147240Y122424D01*
X146214Y123069D02*
X146405Y123259D01*
X146075Y123208D02*
X146266Y123398D01*
X146493Y122790D02*
X146683Y122981D01*
X146354Y122929D02*
X146544Y123120D01*
X146354Y122929D02*
X146544Y123120D01*
X145153Y128410D02*
X145180Y128437D01*
X145153Y128531D02*
X145180Y128503D01*
X145178Y124453D02*
Y128134D01*
X145153Y128252D02*
X145180Y128225D01*
X145153Y128688D02*
X145180Y128715D01*
X145153Y128809D02*
X145180Y128782D01*
Y128174D02*
Y130366D01*
X145153Y129087D02*
X145180Y129060D01*
X145153Y128966D02*
X145180Y128994D01*
X145178Y124453D02*
X145187Y124407D01*
X145153Y128131D02*
X145183Y128162D01*
X145252Y124342D02*
X145298Y124333D01*
X145187Y124407D02*
X145213Y124368D01*
X145252Y124342D01*
X145178Y128134D02*
X145185Y128174D01*
X145717Y130366D02*
X146636Y131285D01*
X145995Y130366D02*
X146897Y131268D01*
X146722D02*
X146784D01*
X146273Y130366D02*
X147176Y131268D01*
X145153Y131472D02*
X146134Y132454D01*
X145153Y131750D02*
X146134Y132732D01*
X145153Y131315D02*
X146101Y130366D01*
X145153Y131194D02*
X146134Y132176D01*
X145153Y132585D02*
X146134Y133567D01*
X145153Y133820D02*
X146134Y132838D01*
X145153Y132985D02*
X146134Y132003D01*
X145153Y133542D02*
X146134Y132560D01*
X145153Y132029D02*
X146134Y133011D01*
X145153Y131871D02*
X146658Y130366D01*
X145153Y130915D02*
X146136Y131898D01*
X145153Y130358D02*
X146289Y131494D01*
X145153Y130637D02*
X146185Y131669D01*
X145153Y131593D02*
X146380Y130366D01*
X145153Y133263D02*
X146134Y132281D01*
X145153Y132307D02*
X146134Y133289D01*
X145153Y132150D02*
X146936Y130366D01*
X145153Y132707D02*
X146181Y131678D01*
X145153Y132428D02*
X147215Y130366D01*
X145153Y133699D02*
X146134Y134681D01*
X145153Y135926D02*
X145500Y136274D01*
X145153Y133421D02*
X146134Y134403D01*
X145153Y134655D02*
X146134Y133673D01*
X145153Y136483D02*
X145180Y136510D01*
X145153Y136604D02*
X145180Y136577D01*
X145153Y135369D02*
X146057Y136274D01*
X145153Y136326D02*
X145180Y136298D01*
X145153Y135648D02*
X145779Y136274D01*
X145153Y134377D02*
X146134Y133395D01*
X145153Y134934D02*
X146134Y133952D01*
X145153Y132864D02*
X146134Y133846D01*
X145153Y133142D02*
X146134Y134124D01*
X145153Y134098D02*
X146134Y133116D01*
X145153Y134534D02*
X146892Y136274D01*
X145153Y134813D02*
X146614Y136274D01*
X145153Y135212D02*
X146134Y134230D01*
X145153Y135490D02*
X146134Y134508D01*
X145153Y134256D02*
X147171Y136274D01*
X146134Y131918D02*
Y134676D01*
Y134739D01*
X146139Y131829D02*
X146168Y131708D01*
X146137Y131891D02*
X146139Y131829D01*
X145153Y135769D02*
X146142Y134779D01*
X145153Y136047D02*
X146212Y134988D01*
X145153Y124131D02*
Y142475D01*
X146134Y134739D02*
X146159Y134865D01*
X146208Y134982D01*
X145438Y130366D02*
X146440Y131367D01*
X146290Y131492D02*
X146380Y131406D01*
X146600Y131292D02*
X146722Y131268D01*
X146380Y131406D02*
X146484Y131338D01*
X146600Y131292D01*
X146168Y131708D02*
X146219Y131594D01*
X145153Y133977D02*
X147449Y136274D01*
X146219Y131594D02*
X146290Y131492D01*
X146208Y134982D02*
X146279Y135089D01*
X146369Y135179D01*
X145153Y136205D02*
X145222Y136274D01*
X145153Y136761D02*
X145180Y136789D01*
Y136298D02*
X145204Y136274D01*
X145153Y136882D02*
X145180Y136855D01*
X145153Y137040D02*
X145180Y137067D01*
X145153Y137161D02*
X145180Y137133D01*
Y136274D02*
Y138466D01*
X145153Y137439D02*
X145180Y137412D01*
X145153Y137318D02*
X145180Y137345D01*
X145204Y136274D02*
X146334Y135144D01*
X146369Y135179D02*
X146475Y135250D01*
X146593Y135298D01*
X146718Y135323D01*
X146782Y135323D01*
X145153Y135091D02*
X146336Y136274D01*
X145482D02*
X146498Y135259D01*
X145761Y136274D02*
X146713Y135322D01*
X146039Y136274D02*
X146990Y135323D01*
X146318Y136274D02*
X147268Y135323D01*
X147717Y121805D02*
X147763Y121796D01*
X147678Y121831D02*
X147717Y121805D01*
X151493Y121796D02*
X151528Y121803D01*
X147763Y121796D02*
X151493D01*
X145153Y124131D02*
X147487Y121796D01*
X145153Y124355D02*
X147712Y121796D01*
X147467Y121816D02*
X147666Y122014D01*
X147642Y121917D02*
X147652Y121870D01*
X147678Y121831D01*
X147487Y121796D02*
X160997Y121796D01*
X151528Y121800D02*
X153720D01*
Y121911D02*
X153836Y121796D01*
X153720Y122190D02*
X154114Y121796D01*
X153720Y122468D02*
X154393Y121796D01*
X153720Y123582D02*
X155506Y121796D01*
X153720Y123860D02*
X155785Y121796D01*
X153720Y122747D02*
X154671Y121796D01*
X153720Y123025D02*
X154950Y121796D01*
X153720Y123303D02*
X155228Y121796D01*
X147328Y121955D02*
X147518Y122146D01*
X147623Y122041D02*
X147662Y122015D01*
X147642Y121917D02*
X147652Y121963D01*
X147678Y122002D01*
X145396Y124268D02*
X147623Y122041D01*
X153720Y122780D02*
X154696Y123755D01*
X153720Y122501D02*
X154696Y123476D01*
X153720Y123615D02*
X154696Y124590D01*
X153720Y123058D02*
X154696Y124033D01*
X153720Y123893D02*
X154696Y124868D01*
X153720Y124974D02*
X154696Y123999D01*
X153720Y121945D02*
X154820Y123044D01*
X153720Y124695D02*
X154696Y123720D01*
X153720Y122223D02*
X154725Y123228D01*
X153720Y125531D02*
X154696Y124555D01*
X153720Y124728D02*
X154696Y125704D01*
X153720Y124172D02*
X154696Y125147D01*
X153720Y124450D02*
X154696Y125425D01*
X153720Y125252D02*
X154696Y124277D01*
X154685Y121796D02*
X155669Y122780D01*
X154407Y121796D02*
X155391Y122780D01*
X155358D02*
X156342Y121796D01*
X154964D02*
X155948Y122780D01*
X154128Y121796D02*
X155142Y122810D01*
X153850Y121796D02*
X154959Y122905D01*
X155520Y121796D02*
X156504Y122780D01*
X154943Y122916D02*
X156063Y121796D01*
X155242D02*
X156226Y122780D01*
X155914D02*
X156898Y121796D01*
X155636Y122780D02*
X156620Y121796D01*
X157306Y122780D02*
X158290Y121796D01*
X156077D02*
X157061Y122780D01*
X157028D02*
X158012Y121796D01*
X157191D02*
X158179Y122784D01*
X155799Y121796D02*
X156783Y122780D01*
X157747Y121796D02*
X159622Y123670D01*
X157585Y122780D02*
X158569Y121796D01*
X157469D02*
X159622Y123948D01*
X154769Y123121D02*
X154840Y123015D01*
X154720Y123239D02*
X154769Y123121D01*
X154930Y122924D02*
X155036Y122854D01*
X154840Y123015D02*
X154930Y122924D01*
X153720Y123337D02*
X154696Y124312D01*
X153720Y124417D02*
X154696Y123442D01*
X153720Y124139D02*
X154832Y123027D01*
X154696Y123364D02*
X154696Y123428D01*
X154696Y123364D02*
X154720Y123239D01*
X156471Y122780D02*
X157455Y121796D01*
X155343Y122780D02*
X158101D01*
X156912Y121796D02*
X157896Y122780D01*
X156634Y121796D02*
X157618Y122780D01*
X156750D02*
X157733Y121796D01*
X155154Y122805D02*
X155279Y122780D01*
X155036Y122854D02*
X155154Y122805D01*
X156356Y121796D02*
X157339Y122780D01*
X155279Y122780D02*
X155343Y122780D01*
X156193D02*
X157177Y121796D01*
X146830Y130366D02*
X147732Y131268D01*
X146552Y130366D02*
X147454Y131268D01*
X147109Y130366D02*
X148011Y131268D01*
X146869D02*
X147772Y130366D01*
X147148Y131268D02*
X148050Y130366D01*
X146545Y131314D02*
X147493Y130366D01*
X147665D02*
X148568Y131268D01*
X147387Y130366D02*
X148289Y131268D01*
X147426D02*
X148328Y130366D01*
X147944D02*
X148846Y131268D01*
X145180Y130366D02*
X149225D01*
X148779D02*
X149245Y130832D01*
X147983Y131268D02*
X148885Y130366D01*
X148501D02*
X149245Y131110D01*
X148222Y130366D02*
X149124Y131268D01*
X147705D02*
X148607Y130366D01*
X148261Y131268D02*
X149164Y130366D01*
X148818Y131268D02*
X149245Y130841D01*
X148540Y131268D02*
X149245Y130563D01*
X147431Y136274D02*
X148382Y135323D01*
X147334D02*
X148284Y136274D01*
X147709D02*
X148660Y135323D01*
X147612D02*
X148563Y136274D01*
X146777Y135323D02*
X147728Y136274D01*
X146596D02*
X147547Y135323D01*
X147153Y136274D02*
X148103Y135323D01*
X146874Y136274D02*
X147825Y135323D01*
X147055D02*
X148006Y136274D01*
X146784Y131268D02*
X149245D01*
X146782Y135323D02*
X149247D01*
X148726D02*
X149246Y135844D01*
X148169Y135323D02*
X149119Y136274D01*
X148447Y135323D02*
X149246Y136122D01*
X147890Y135323D02*
X148841Y136274D01*
X145180D02*
X149225D01*
X147988D02*
X148939Y135323D01*
X148266Y136274D02*
X149217Y135323D01*
X148545Y136274D02*
X149246Y135572D01*
X149160Y125855D02*
X149217Y125799D01*
X149195Y125880D02*
X149237Y125838D01*
X149219Y125811D02*
X149246Y125850D01*
X149285Y125876D01*
X149331Y125885D01*
X149192Y125877D02*
X149218Y125916D01*
X151493Y125885D02*
X151528Y125878D01*
X149304Y125880D02*
X149329Y125904D01*
X149304Y125880D02*
X149329Y125904D01*
X153720Y125564D02*
X154047Y125890D01*
X153720Y125842D02*
X153768Y125890D01*
X153720Y121800D02*
Y125880D01*
Y125285D02*
X154325Y125890D01*
X153720Y125809D02*
X154696Y124834D01*
X153720Y125007D02*
X154604Y125890D01*
X153918D02*
X154696Y125112D01*
Y123428D02*
Y125890D01*
X154474D02*
X154696Y125669D01*
X154196Y125890D02*
X154696Y125391D01*
X149218Y125916D02*
X149228Y125962D01*
X149164Y130366D02*
X149225Y130304D01*
X149227Y128134D02*
X149228Y125962D01*
X149220Y128174D02*
X149227Y128134D01*
X149057Y130366D02*
X149245Y130553D01*
X149097Y131268D02*
X149245Y131120D01*
Y126038D02*
Y131268D01*
X149225Y136274D02*
Y138466D01*
Y128174D02*
Y130366D01*
X149309Y125913D02*
X149363Y125890D01*
X149267Y125954D02*
X149309Y125913D01*
X151528Y125880D02*
X153720D01*
X149331Y125885D02*
X151493D01*
X149392Y125890D02*
X154696Y125890D01*
X149004Y135323D02*
X149246Y135566D01*
X148823Y136274D02*
X149246Y135851D01*
X149245Y126008D02*
X149267Y125954D01*
X149101Y136274D02*
X149246Y136130D01*
X149245Y137433D02*
X149247Y135323D01*
X145153Y138432D02*
X145180Y138459D01*
X145153Y138553D02*
X145178Y138528D01*
X145153Y138153D02*
X145180Y138181D01*
X145153Y138274D02*
X145180Y138247D01*
X145153Y139109D02*
X145178Y139084D01*
X145153Y139267D02*
X145178Y139292D01*
X145153Y138710D02*
X145178Y138735D01*
X145153Y138988D02*
X145178Y139014D01*
X145153Y138831D02*
X145178Y138806D01*
X145153Y137596D02*
X145180Y137624D01*
X145153Y137718D02*
X145180Y137690D01*
X145153Y137875D02*
X145180Y137902D01*
X145153Y137996D02*
X145180Y137968D01*
X145178Y138506D02*
X145185Y138466D01*
X149212D02*
X149220Y138506D01*
Y138602D02*
X149247Y138629D01*
X149220Y138661D02*
X149247Y138634D01*
X149220Y138939D02*
X149249Y138910D01*
X149220Y138880D02*
X149249Y138909D01*
X145153Y139666D02*
X145178Y139641D01*
X145153Y139824D02*
X145178Y139849D01*
X145153Y139388D02*
X145178Y139363D01*
X145153Y139545D02*
X145178Y139570D01*
X145153Y140380D02*
X145178Y140405D01*
X145153Y140501D02*
X145178Y140476D01*
X145153Y139945D02*
X145178Y139920D01*
X145153Y140223D02*
X145178Y140198D01*
X145153Y140102D02*
X145178Y140127D01*
X149185Y140569D02*
X149211Y140530D01*
X149146Y140595D02*
X149185Y140569D01*
X149220Y139715D02*
X149246Y139741D01*
X149211Y140530D02*
X149220Y140483D01*
X149206Y140537D02*
X149243Y140573D01*
X145153Y140659D02*
X145178Y140684D01*
X145153Y140780D02*
X145178Y140755D01*
X149151Y140679D02*
X149243Y140587D01*
X149069Y140598D02*
X149100Y140604D01*
X149146Y140595D01*
X149220Y139496D02*
X149247Y139469D01*
X149220Y139775D02*
X149246Y139749D01*
X149225Y138328D02*
X149247Y138350D01*
X149225Y138377D02*
X149247Y138356D01*
X149220Y138506D02*
Y140483D01*
Y140331D02*
X149244Y140308D01*
X149220Y139994D02*
X149245Y140019D01*
X149220Y140272D02*
X149244Y140296D01*
X149220Y140053D02*
X149245Y140028D01*
X149245Y137433D02*
X149247Y138705D01*
X149350D01*
Y138754D01*
X149250Y138753D02*
X149350Y138754D01*
X149323Y138705D02*
X149350Y138732D01*
X149220Y139158D02*
X149248Y139187D01*
X149220Y139218D02*
X149248Y139190D01*
X149243Y140565D02*
X149250Y138753D01*
X149220Y139437D02*
X149247Y139464D01*
X149243Y140595D02*
X149265Y140649D01*
X149307Y140691D01*
X149361Y140713D01*
X149940Y140713D02*
X149980Y140754D01*
X149661Y140713D02*
X149702Y140754D01*
X149383Y140713D02*
X149431Y140762D01*
X149388Y140789D02*
X149427Y140763D01*
X149911Y140754D02*
X149952Y140713D01*
X149427Y140763D02*
X149473Y140754D01*
X149633Y140754D02*
X149673Y140713D01*
X151025Y140754D02*
X151065Y140713D01*
X150775D02*
X150815Y140754D01*
X151331Y140713D02*
X151372Y140754D01*
X151053Y140713D02*
X151094Y140754D01*
X151303D02*
X151344Y140713D01*
X150218Y140713D02*
X150258Y140754D01*
X150190D02*
X150230Y140713D01*
X150746Y140754D02*
X150787Y140713D01*
X150468Y140754D02*
X150508Y140713D01*
X150496D02*
X150537Y140754D01*
X145153Y141216D02*
X145178Y141241D01*
X145153Y141337D02*
X145178Y141311D01*
X145153Y140937D02*
X145178Y140962D01*
X145153Y141058D02*
X145178Y141033D01*
X145153Y141494D02*
X145178Y141519D01*
X145153Y141615D02*
X145178Y141590D01*
Y138506D02*
Y142374D01*
X145153Y141893D02*
X145178Y141868D01*
X145153Y141772D02*
X145178Y141797D01*
X145153Y142051D02*
X145178Y142076D01*
X145153Y142172D02*
X145178Y142147D01*
X145153Y142329D02*
X145178Y142354D01*
X145153Y142450D02*
X145186Y142416D01*
X145178Y142374D02*
X145187Y142420D01*
X145279Y142602D02*
X145500Y142381D01*
X145187Y142420D02*
X145213Y142459D01*
X145383D02*
X145482Y142360D01*
X145484Y142365D02*
X147711Y144592D01*
X145472Y142370D02*
X147775Y144673D01*
X145213Y142459D02*
X145252Y142485D01*
X145298Y142494D01*
X145344Y142485D02*
X145383Y142459D01*
X145298Y142494D02*
X145344Y142485D01*
X145419Y142741D02*
X145640Y142520D01*
X145558Y142880D02*
X145779Y142659D01*
X145697Y143019D02*
X145918Y142798D01*
X145836Y143158D02*
X146057Y142937D01*
X145975Y143298D02*
X146196Y143077D01*
X146115Y143437D02*
X146336Y143216D01*
X146254Y143576D02*
X146475Y143355D01*
X146393Y143715D02*
X146614Y143494D01*
X146532Y143854D02*
X146753Y143633D01*
X146671Y143994D02*
X146892Y143773D01*
X145153Y142475D02*
X147525Y144847D01*
X145314Y142491D02*
X147670Y144847D01*
X146811Y144133D02*
X147032Y143912D01*
X146950Y144272D02*
X147171Y144051D01*
X147089Y144411D02*
X147310Y144190D01*
X147228Y144550D02*
X147449Y144329D01*
X147367Y144689D02*
X147588Y144468D01*
X147711Y144592D02*
X147751Y144618D01*
X147766Y144630D02*
X147775Y144676D01*
X147507Y144829D02*
X147731Y144605D01*
X147767Y144847D02*
X147867Y144747D01*
X147775Y144676D02*
X147801Y144716D01*
X147841Y144742D01*
X147887Y144751D01*
X149069Y140598D02*
X149355Y140883D01*
X148880Y144847D02*
X148976Y144751D01*
X149290Y140818D02*
X149395Y140713D01*
X149353Y140874D02*
X149362Y140828D01*
X149388Y140789D01*
X147844Y144742D02*
X147949Y144847D01*
X148045D02*
X148141Y144751D01*
X148688D02*
X148784Y144847D01*
X148131Y144751D02*
X148227Y144847D01*
X148602D02*
X148698Y144751D01*
X149523D02*
X149619Y144847D01*
X149437D02*
X149533Y144751D01*
X149801D02*
X149897Y144847D01*
X149716D02*
X149811Y144751D01*
X148409D02*
X148505Y144847D01*
X148324D02*
X148420Y144751D01*
X149245D02*
X149341Y144847D01*
X148966Y144751D02*
X149062Y144847D01*
X149159D02*
X149255Y144751D01*
X150829Y144847D02*
X150925Y144751D01*
X150636D02*
X150732Y144847D01*
X151193Y144751D02*
X151289Y144847D01*
X150915Y144751D02*
X151011Y144847D01*
X151107D02*
X151203Y144751D01*
X150080D02*
X150176Y144847D01*
X149994D02*
X150090Y144751D01*
X150551Y144847D02*
X150647Y144751D01*
X150272Y144847D02*
X150368Y144751D01*
X150358D02*
X150454Y144847D01*
X151610Y140713D02*
X151659Y140762D01*
X151581Y140754D02*
X151622Y140713D01*
X151888D02*
X151937Y140762D01*
X151851D02*
X151900Y140713D01*
X152167Y140713D02*
X152216Y140762D01*
X152130D02*
X152179Y140713D01*
X152686Y140762D02*
X152736Y140713D01*
X152408Y140762D02*
X152457Y140713D01*
X152445D02*
X152494Y140762D01*
X149391Y140713D02*
X154709Y140713D01*
X152723Y140713D02*
X152773Y140762D01*
X153243D02*
X153292Y140713D01*
X152965Y140762D02*
X153014Y140713D01*
X153002D02*
X153051Y140762D01*
X153522D02*
X153571Y140713D01*
X153280D02*
X153329Y140762D01*
X153559Y140713D02*
X153608Y140762D01*
X153809Y141032D02*
X154127Y140713D01*
X153809Y141588D02*
X154684Y140713D01*
X151580Y140754D02*
X151624Y140762D01*
X149473Y140754D02*
X151580Y140754D01*
X153800Y140762D02*
X153849Y140713D01*
X151624Y140762D02*
X153809D01*
Y142145D02*
X154709Y141245D01*
X153809Y141520D02*
X154709Y142421D01*
X153809Y140964D02*
X154709Y141864D01*
X153809Y141242D02*
X154709Y142142D01*
X153809Y141867D02*
X154709Y140967D01*
X153809Y142077D02*
X154709Y142977D01*
X153809Y142980D02*
X154709Y142080D01*
X153809Y142424D02*
X154709Y141523D01*
X153809Y142702D02*
X154709Y141802D01*
X153809Y141799D02*
X154709Y142699D01*
X153809Y143191D02*
X154849Y144230D01*
X153809Y144372D02*
X154759Y143422D01*
X153809Y142356D02*
X154714Y143261D01*
X153809Y143816D02*
X154709Y142915D01*
X153809Y143259D02*
X154709Y142359D01*
X154115Y140713D02*
X154709Y141307D01*
X153809Y141310D02*
X154406Y140713D01*
X154672D02*
X154709Y140750D01*
X154394Y140713D02*
X154709Y141029D01*
X153809Y143537D02*
X154709Y142637D01*
X153809Y144094D02*
X154709Y143194D01*
X153837Y140713D02*
X154709Y141585D01*
X154709Y143236D02*
X154709Y143174D01*
Y140713D02*
Y143174D01*
X154709Y143236D02*
X154733Y143358D01*
X154779Y143474D01*
X154847Y143578D01*
X154933Y143668D01*
X154970Y143693D01*
X153809Y142634D02*
X154913Y143738D01*
X153809Y142912D02*
X154807Y143911D01*
X157782Y143823D02*
X157812Y143853D01*
X157647Y143875D02*
X157699Y143823D01*
X157620D02*
X157812D01*
X155644Y143823D02*
X155870D01*
X155834D02*
X155857Y143846D01*
X155678Y143896D02*
X155750Y143823D01*
X155664Y144188D02*
X155812Y144040D01*
X155694Y143963D02*
X155817Y144085D01*
X156620Y143823D02*
X156870D01*
X156669D02*
X156816Y143970D01*
X156678Y144009D02*
X156863Y143823D01*
X157659Y144141D02*
X157812Y143989D01*
X157677Y143996D02*
X157812Y144131D01*
Y144398D02*
X158678D01*
X152221Y144847D02*
X152328Y144740D01*
X152018D02*
X152124Y144847D01*
X153809Y140762D02*
Y144740D01*
X152499Y144847D02*
X152606Y144740D01*
X153809Y144304D02*
X154352Y144847D01*
X153809Y144583D02*
X154073Y144847D01*
X153891D02*
X154800Y143938D01*
X153809Y144026D02*
X154630Y144847D01*
X154170D02*
X154827Y144190D01*
X153809Y144651D02*
X154864Y143596D01*
X154980Y144361D02*
X155268Y144650D01*
X155186D02*
X155304D01*
X155186Y144419D02*
X155304D01*
X153809Y143469D02*
X155026Y144686D01*
X153809Y143747D02*
X154876Y144815D01*
X154448Y144847D02*
X154952Y144343D01*
X154727Y144847D02*
X155155Y144418D01*
X151386Y144847D02*
X151482Y144751D01*
X147887D02*
X151580D01*
X151626Y144742D01*
X151472Y144751D02*
X151568Y144847D01*
X151739Y144740D02*
X151846Y144847D01*
X151664D02*
X151771Y144740D01*
X152574D02*
X152681Y144847D01*
X151943D02*
X152049Y144740D01*
X152296D02*
X152403Y144847D01*
X152778D02*
X152885Y144740D01*
X151629D02*
X153809D01*
X153131D02*
X153238Y144847D01*
X152853Y144740D02*
X152960Y144847D01*
X153056D02*
X153163Y144740D01*
X153335Y144847D02*
X153441Y144740D01*
X147525Y144847D02*
X154857D01*
X153688Y144740D02*
X153795Y144847D01*
X153410Y144740D02*
X153516Y144847D01*
X153613D02*
X153720Y144740D01*
X155202Y144650D02*
X155468Y144384D01*
X155450Y144680D02*
X155884Y144246D01*
X155526Y144351D02*
X155928Y144753D01*
X155656Y144203D02*
X156111Y144658D01*
X155606Y144803D02*
X156040Y144368D01*
X156125Y144393D02*
X156393Y144661D01*
X156670Y144103D02*
X157217Y144650D01*
X156315Y144650D02*
X156829Y144136D01*
X157812Y143823D02*
Y144398D01*
X157148Y144652D02*
X157421Y144379D01*
X157413Y144666D02*
X157812Y144267D01*
X156523Y144721D02*
X156939Y144305D01*
X156397Y144386D02*
X156857Y144846D01*
X157622Y144220D02*
X158070Y144668D01*
X156573Y144284D02*
X156993Y144704D01*
X157479Y144355D02*
X157903Y144779D01*
X155964Y144723D02*
X156289Y144398D01*
X155633Y144847D02*
X155857D01*
X156186Y144398D02*
X156304D01*
X156186Y144650D02*
X156304D01*
X155316Y144419D02*
X155743Y144847D01*
X155840D02*
X155885Y144802D01*
X156633Y144847D02*
X156856D01*
X157583Y144775D02*
X157959Y144398D01*
X157186Y144650D02*
X157304D01*
X157186Y144398D02*
X157304D01*
X156675Y144847D02*
X157128Y144394D01*
X157243Y144398D02*
X157692Y144847D01*
X157789D02*
X158237Y144398D01*
X157633Y144847D02*
X157857D01*
X158861Y121796D02*
X159622Y122557D01*
X157863Y122780D02*
X158847Y121796D01*
X159418D02*
X159622Y122000D01*
X159139Y121796D02*
X159622Y122278D01*
X158139Y122783D02*
X159125Y121796D01*
X158026D02*
X159622Y123392D01*
X158363Y122836D02*
X159404Y121796D01*
X158534Y122944D02*
X159622Y121856D01*
X158583Y121796D02*
X159622Y122835D01*
X159931Y121825D02*
X159961Y121796D01*
X159622Y121825D02*
X161814D01*
X160253Y121796D02*
X160282Y121825D01*
X159975Y121796D02*
X160004Y121825D01*
X160210D02*
X160239Y121796D01*
X158304D02*
X159622Y123113D01*
X158659Y123097D02*
X159622Y122135D01*
X159696Y121796D02*
X159726Y121825D01*
X159622Y121856D02*
X159653Y121825D01*
X159682Y121796D01*
X158128Y122782D02*
X158190Y122785D01*
X158311Y122813D01*
X158425Y122864D01*
X158527Y122936D01*
X158613Y123025D01*
X158681Y123130D01*
X158727Y123245D01*
X158751Y123430D02*
X158751Y123367D01*
X158727Y123245D02*
X158751Y123367D01*
X158737Y123297D02*
X159622Y122413D01*
X158748Y123353D02*
X159622Y124227D01*
X158751Y123562D02*
X159622Y122692D01*
X158751Y124119D02*
X159622Y123248D01*
X158751Y123841D02*
X159622Y122970D01*
X158751Y123634D02*
X159622Y124505D01*
X158751Y123913D02*
X159622Y124784D01*
X158751Y124397D02*
X159622Y123527D01*
X158751Y124954D02*
X159622Y124083D01*
X158751Y124676D02*
X159622Y123805D01*
X160810Y121796D02*
X160839Y121825D01*
X160766D02*
X160796Y121796D01*
X160997Y121650D02*
X160997Y121796D01*
X160997Y121650D02*
Y121796D01*
X160531D02*
X160561Y121825D01*
X160488D02*
X160517Y121796D01*
X163821Y121833D02*
X163858Y121796D01*
X163543Y121833D02*
X163580Y121796D01*
X163594D02*
X163631Y121833D01*
X164707Y121796D02*
X164744Y121833D01*
X164656D02*
X164693Y121796D01*
X165213Y121833D02*
X165250Y121796D01*
X164935Y121833D02*
X164972Y121796D01*
X164986D02*
X165022Y121833D01*
X164099D02*
X164136Y121796D01*
X163872D02*
X163909Y121833D01*
X164429Y121796D02*
X164466Y121833D01*
X164150Y121796D02*
X164187Y121833D01*
X164378D02*
X164415Y121796D01*
X161088Y121796D02*
X161118Y121825D01*
X161045D02*
X161074Y121796D01*
X161367D02*
X161396Y121825D01*
X161323D02*
X161353Y121796D01*
X161645Y121796D02*
X161674Y121825D01*
X161602D02*
X161631Y121796D01*
X161923D02*
X161960Y121833D01*
X161814Y121840D02*
X161850Y121833D01*
X161872D02*
X161909Y121796D01*
X162986Y121833D02*
X163023Y121796D01*
X162758D02*
X162795Y121833D01*
X163315Y121796D02*
X163352Y121833D01*
X163037Y121796D02*
X163074Y121833D01*
X163264D02*
X163301Y121796D01*
X162202Y121796D02*
X162239Y121833D01*
X162151D02*
X162188Y121796D01*
X162708Y121833D02*
X162744Y121796D01*
X162429Y121833D02*
X162466Y121796D01*
X162480D02*
X162517Y121833D01*
X158751Y124191D02*
X159622Y125062D01*
X158751Y124748D02*
X159622Y125619D01*
Y121825D02*
Y125883D01*
X158751Y125511D02*
X159622Y124640D01*
X158751Y123430D02*
X158751Y125890D01*
X158751Y125026D02*
X159615Y125890D01*
X158751Y125305D02*
X159336Y125890D01*
X158751Y125862D02*
X158779Y125890D01*
X158751Y125583D02*
X159058Y125890D01*
X158751Y125233D02*
X159622Y124362D01*
X158751Y124470D02*
X159622Y125340D01*
X158751Y125789D02*
X159622Y124919D01*
X163978Y125864D02*
X164017Y125838D01*
X164043Y125798D01*
X158929Y125890D02*
X159622Y125197D01*
X159207Y125890D02*
X159622Y125475D01*
X159485Y125890D02*
X159622Y125754D01*
X164016Y125838D02*
X164189Y126011D01*
X164048Y125771D02*
X164260Y125983D01*
X161814Y125866D02*
X161850Y125873D01*
X159622Y125883D02*
X161814D01*
X163931Y125873D02*
X163978Y125864D01*
X161850Y125873D02*
X163931Y125873D01*
X161818Y125866D02*
X161842Y125890D01*
X158751D02*
X163967D01*
X163940D02*
X163963Y125867D01*
X163997Y125890D02*
X164051Y125913D01*
X164093Y125954D01*
X164111Y125998D02*
X164193Y125915D01*
X164093Y125954D02*
X164115Y126008D01*
X164115Y126215D02*
X164144Y126244D01*
X164115Y126493D02*
X164144Y126522D01*
X164115Y126271D02*
X164144Y126242D01*
X164115Y126038D02*
X164115Y131254D01*
X164115Y127328D02*
X164144Y127357D01*
X164115Y126550D02*
X164144Y126521D01*
X164115Y126828D02*
X164144Y126799D01*
X164115Y126772D02*
X164144Y126801D01*
X164115Y127050D02*
X164144Y127079D01*
X164115Y127107D02*
X164144Y127078D01*
X164115Y127385D02*
X164144Y127356D01*
X164115Y127607D02*
X164144Y127636D01*
X164115Y127663D02*
X164144Y127634D01*
X164115Y127885D02*
X164144Y127914D01*
Y126103D02*
Y128147D01*
X164115Y127942D02*
X164144Y127913D01*
X164115Y128442D02*
X164146Y128473D01*
X164144Y126102D02*
X164153Y126056D01*
X164144Y128147D02*
X164152Y128186D01*
X164218Y125991D02*
X164260Y125983D01*
X164153Y126056D02*
X164179Y126017D01*
X164218Y125991D01*
X164115Y128163D02*
X164146Y128195D01*
X164115Y128220D02*
X164146Y128189D01*
Y128186D02*
Y130378D01*
X164115Y128720D02*
X164146Y128752D01*
X164115Y128498D02*
X164146Y128467D01*
X164115Y129277D02*
X164146Y129308D01*
X164115Y129334D02*
X164146Y129302D01*
X164115Y128777D02*
X164146Y128746D01*
X164115Y128999D02*
X164146Y129030D01*
X164115Y129555D02*
X164146Y129587D01*
X164115Y129612D02*
X164146Y129581D01*
X164115Y129834D02*
X164146Y129865D01*
X164115Y131226D02*
X164144Y131254D01*
X164115Y129890D02*
X164146Y129859D01*
X164115Y129055D02*
X164146Y129024D01*
X164115Y130112D02*
X164146Y130144D01*
X164115Y130169D02*
X164146Y130137D01*
X164115Y130447D02*
X164184Y130378D01*
X164115Y130726D02*
X164462Y130378D01*
X164115Y131004D02*
X164741Y130378D01*
X164115Y130391D02*
X164979Y131254D01*
X164143D02*
X165019Y130378D01*
X164115Y130947D02*
X164422Y131254D01*
X164115Y130669D02*
X164700Y131254D01*
X165264Y121796D02*
X165301Y121833D01*
X161850D02*
X165613D01*
X165542Y121796D02*
X165579Y121833D01*
X165491D02*
X165528Y121796D01*
X165613Y121833D02*
X165659Y121842D01*
X165698Y121868D01*
X165724Y121907D01*
Y121999D02*
X165733Y121953D01*
X165724Y121907D02*
X165733Y121953D01*
X165713Y121890D02*
X165807Y121796D01*
X160997Y121796D02*
X165877Y121796D01*
X165755Y122126D02*
X165981Y121900D01*
X165894Y122265D02*
X166120Y122039D01*
X166033Y122404D02*
X166259Y122179D01*
X165728Y121981D02*
X168211Y124465D01*
X165700Y122071D02*
X167927Y124298D01*
X165821Y121796D02*
X168211Y124186D01*
X166173Y122544D02*
X166398Y122318D01*
X165877Y121796D02*
X168211Y124131D01*
X166312Y122683D02*
X166538Y122457D01*
X166451Y122822D02*
X166677Y122596D01*
X166590Y122961D02*
X166816Y122735D01*
X166729Y123100D02*
X166955Y122874D01*
X166868Y123240D02*
X167094Y123014D01*
X167008Y123379D02*
X167234Y123153D01*
X167147Y123518D02*
X167373Y123292D01*
X167286Y123657D02*
X167512Y123431D01*
X167425Y123796D02*
X167651Y123570D01*
X167564Y123936D02*
X167790Y123710D01*
X167704Y124075D02*
X167930Y123849D01*
X167843Y124214D02*
X168069Y123988D01*
X167927Y124298D02*
X167952Y124336D01*
X167992Y124343D02*
X168208Y124127D01*
X167955Y124335D02*
X168002Y124345D01*
X168041Y124371D01*
X168067Y124410D01*
X168068Y128186D02*
X168076Y128147D01*
X168067Y124410D02*
X168076Y124456D01*
X168076Y124816D02*
X168211Y124681D01*
X168076Y124886D02*
X168211Y125022D01*
X168076Y124538D02*
X168211Y124402D01*
X168076Y124608D02*
X168211Y124743D01*
X168076Y128147D02*
X168076Y124456D01*
X168076Y125443D02*
X168211Y125578D01*
X168076Y125094D02*
X168211Y124959D01*
X168076Y125373D02*
X168211Y125237D01*
X168076Y125165D02*
X168211Y125300D01*
X168076Y126000D02*
X168211Y126135D01*
X168076Y126208D02*
X168211Y126073D01*
X168076Y125651D02*
X168211Y125516D01*
X168076Y125930D02*
X168211Y125794D01*
X168076Y125721D02*
X168211Y125857D01*
X168076Y126765D02*
X168211Y126629D01*
X168076Y126835D02*
X168211Y126970D01*
X168076Y126278D02*
X168211Y126413D01*
X168076Y126557D02*
X168211Y126692D01*
X168076Y126486D02*
X168211Y126351D01*
X168093Y128696D02*
X168211Y128578D01*
X168093Y128801D02*
X168211Y128919D01*
X168093Y128418D02*
X168211Y128300D01*
X168093Y128522D02*
X168211Y128641D01*
X168093Y129358D02*
X168211Y129476D01*
X168093Y129532D02*
X168211Y129413D01*
X168093Y128975D02*
X168211Y128857D01*
X168093Y129253D02*
X168211Y129135D01*
X168093Y129079D02*
X168211Y129197D01*
X168076Y127392D02*
X168211Y127527D01*
X168076Y127600D02*
X168211Y127465D01*
X168076Y127043D02*
X168211Y126908D01*
X168076Y127322D02*
X168211Y127186D01*
X168076Y127113D02*
X168211Y127249D01*
X168076Y127878D02*
X168211Y127743D01*
X168074Y128159D02*
X168211Y128021D01*
X168076Y127670D02*
X168211Y127805D01*
X168093Y128244D02*
X168211Y128362D01*
X168076Y127948D02*
X168211Y128084D01*
X165257Y131254D02*
X166133Y130378D01*
X165216D02*
X166092Y131254D01*
X165535D02*
X166411Y130378D01*
X165495D02*
X166371Y131254D01*
X164660Y130378D02*
X165536Y131254D01*
X164422D02*
X165297Y130378D01*
X164978Y131254D02*
X165854Y130378D01*
X164700Y131254D02*
X165576Y130378D01*
X164938D02*
X165814Y131254D01*
X165814D02*
X166689Y130378D01*
X165773D02*
X166651Y131256D01*
X166862Y131319D02*
X167803Y130378D01*
X166092Y131254D02*
X166968Y130378D01*
X166370Y131254D02*
X167246Y130378D01*
X166330D02*
X168211Y132260D01*
X166052Y130378D02*
X168211Y132538D01*
X167026Y131434D02*
X168081Y130378D01*
X166608D02*
X168211Y131981D01*
X166887Y130378D02*
X168211Y131703D01*
X164381Y130378D02*
X165257Y131254D01*
X164115D02*
X166578D01*
X166641Y131254D02*
X166766Y131279D01*
X166578Y131254D02*
X166641Y131254D01*
X166766Y131279D02*
X166884Y131328D01*
X166990Y131399D01*
X167081Y131489D01*
X167152Y131595D01*
X167141Y134984D02*
X167192Y134870D01*
X166647Y131255D02*
X167525Y130378D01*
X164146D02*
X168093D01*
X167165D02*
X168211Y131424D01*
X167152Y131595D02*
X167200Y131713D01*
X167148Y131590D02*
X168211Y130527D01*
X166149Y136208D02*
X168211Y134146D01*
X166428Y136208D02*
X168211Y134424D01*
X167179Y134900D02*
X168211Y133868D01*
X167192Y134870D02*
X167221Y134749D01*
X166706Y136208D02*
X168211Y134703D01*
X168093Y130193D02*
X168211Y130311D01*
X168093Y130367D02*
X168211Y130248D01*
X168093Y129914D02*
X168211Y130033D01*
X168093Y130088D02*
X168211Y129970D01*
X167200Y131713D02*
X167225Y131838D01*
X167225Y131902D02*
X167225Y131838D01*
X168211Y124131D02*
Y142473D01*
X167225Y131902D02*
X167225Y134660D01*
X168093Y128186D02*
Y130378D01*
X167722D02*
X168211Y130868D01*
X167444Y130378D02*
X168211Y131146D01*
X168093Y129636D02*
X168211Y129754D01*
X168000Y130378D02*
X168211Y130589D01*
X168093Y129810D02*
X168211Y129692D01*
X167218Y131799D02*
X168211Y130805D01*
X167223Y131829D02*
X168211Y132816D01*
X167225Y132070D02*
X168211Y131084D01*
X167225Y132626D02*
X168211Y131640D01*
X167225Y132348D02*
X168211Y131362D01*
X167225Y132109D02*
X168211Y133095D01*
X167225Y132387D02*
X168211Y133373D01*
X167225Y132905D02*
X168211Y131919D01*
X167225Y133462D02*
X168211Y132476D01*
X167225Y133740D02*
X168211Y132754D01*
X167221Y134749D02*
X167223Y134687D01*
X167225Y132666D02*
X168211Y133652D01*
X167225Y134018D02*
X168211Y133032D01*
X167225Y132944D02*
X168211Y133930D01*
X167225Y133222D02*
X168211Y134208D01*
X167225Y133501D02*
X168211Y134487D01*
X167225Y133183D02*
X168211Y132197D01*
X167225Y134575D02*
X168211Y133589D01*
X167225Y134297D02*
X168211Y133311D01*
X167225Y133779D02*
X168211Y134765D01*
X167194Y134862D02*
X168211Y135879D01*
X167225Y134058D02*
X168211Y135044D01*
X167225Y134614D02*
X168211Y135600D01*
X167225Y134336D02*
X168211Y135322D01*
X161011Y140789D02*
X161087Y140713D01*
X160797D02*
X160873Y140789D01*
X161290D02*
X161366Y140713D01*
X161075D02*
X161151Y140789D01*
X160240Y140713D02*
X160316Y140789D01*
X160176D02*
X160252Y140713D01*
X160733Y140789D02*
X160809Y140713D01*
X160455Y140789D02*
X160530Y140713D01*
X160518D02*
X160594Y140789D01*
X158765Y140713D02*
X163967Y140713D01*
X162189Y140713D02*
X162235Y140760D01*
X162745Y140713D02*
X162792Y140760D01*
X162432D02*
X162479Y140713D01*
X162711Y140760D02*
X162758Y140713D01*
X161632Y140713D02*
X161708Y140789D01*
X161353Y140713D02*
X161429Y140789D01*
X162154Y140760D02*
X162201Y140713D01*
X161876Y140760D02*
X161922Y140713D01*
X161910D02*
X161957Y140760D01*
X158765Y141087D02*
X159138Y140713D01*
X158765Y140809D02*
X158860Y140713D01*
X159405D02*
X159580Y140888D01*
Y140829D02*
X159619Y140789D01*
X158765Y141365D02*
X159417Y140713D01*
X158765Y141644D02*
X159580Y140829D01*
X159126Y140713D02*
X159580Y141166D01*
X158765Y140908D02*
X159580Y141723D01*
X158848Y140713D02*
X159580Y141445D01*
X161735Y140789D02*
X161765Y140769D01*
X159580Y140789D02*
X161735D01*
X162467Y140713D02*
X162514Y140760D01*
X161765Y140769D02*
X161811Y140760D01*
X163826D01*
X159683Y140713D02*
X159759Y140789D01*
X159619D02*
X159695Y140713D01*
X161568Y140789D02*
X161644Y140713D01*
X159898Y140789D02*
X159974Y140713D01*
X159962D02*
X160037Y140789D01*
X164115Y138742D02*
X164144Y138771D01*
X164115Y138799D02*
X164144Y138770D01*
X164115Y138464D02*
X164144Y138493D01*
X164115Y138520D02*
X164144Y138491D01*
X164115Y135310D02*
Y140565D01*
Y139356D02*
X164144Y139327D01*
X164115Y139021D02*
X164144Y139050D01*
X164115Y139299D02*
X164144Y139328D01*
X164115Y139077D02*
X164144Y139048D01*
X164115Y139634D02*
X164144Y139605D01*
X164115Y139856D02*
X164144Y139885D01*
X164115Y136293D02*
X164151Y136258D01*
X164115Y139577D02*
X164144Y139606D01*
X164115Y137685D02*
X164151Y137650D01*
X164115Y139912D02*
X164144Y139883D01*
X164115Y140134D02*
X164144Y140163D01*
X164144Y138437D02*
X164144Y140459D01*
X164115Y140191D02*
X164144Y140162D01*
X164115Y140413D02*
X164144Y140442D01*
X163024Y140713D02*
X163071Y140760D01*
X162989D02*
X163036Y140713D01*
X163302D02*
X163349Y140760D01*
X163268D02*
X163314Y140713D01*
X163581D02*
X163627Y140760D01*
X163546D02*
X163593Y140713D01*
X163824Y140760D02*
X163871Y140713D01*
X163826Y140760D02*
X163872Y140769D01*
X163911Y140795D01*
X164051Y140691D02*
X164093Y140649D01*
X163997Y140713D02*
X164051Y140691D01*
X164115Y140469D02*
X164144Y140440D01*
X164093Y140649D02*
X164115Y140595D01*
X164083Y140659D02*
X164142Y140718D01*
X163859Y140713D02*
X164003Y140858D01*
X163911Y140795D02*
X163937Y140834D01*
X164083Y140659D02*
X164142Y140718D01*
X163938Y140923D02*
X163946Y140880D01*
X163937Y140834D02*
X163946Y140880D01*
X158765Y141465D02*
X159580Y142280D01*
X158765Y142479D02*
X159580Y141664D01*
X158765Y141922D02*
X159580Y141107D01*
X158765Y141187D02*
X159580Y142002D01*
X158765Y143176D02*
X158765Y143239D01*
X158740Y143365D02*
X158765Y143239D01*
X158765Y140713D02*
Y143176D01*
Y142757D02*
X159580Y141942D01*
X158765Y141743D02*
X159580Y142558D01*
X158765Y142300D02*
X159580Y143115D01*
X158746Y143333D02*
X159580Y142499D01*
X158765Y142201D02*
X159580Y141386D01*
X158765Y143036D02*
X159580Y142221D01*
X158765Y142022D02*
X159580Y142837D01*
X158678Y143679D02*
X159580Y142778D01*
X158678Y143958D02*
X159580Y143056D01*
X158765Y142579D02*
X159580Y143393D01*
X158765Y143135D02*
X159580Y143950D01*
X158765Y142857D02*
X159580Y143672D01*
X158559Y143650D02*
X158620Y143589D01*
X158559Y143650D02*
X158678D01*
X158620Y143589D02*
X158691Y143482D01*
X158678Y143650D02*
Y144398D01*
X158079D02*
X158332Y144651D01*
X158264Y144650D02*
X158516Y144398D01*
X158186Y144650D02*
X158304D01*
X158636Y143564D02*
X159580Y144507D01*
X158492Y144701D02*
X159580Y143613D01*
X158678Y144236D02*
X159580Y143334D01*
X158691Y143482D02*
X158740Y143365D01*
X158733Y143382D02*
X159580Y144229D01*
X158630Y144841D02*
X159580Y143891D01*
X158357Y144398D02*
X158806Y144847D01*
X158678Y143884D02*
X159641Y144847D01*
X158635Y144398D02*
X159084Y144847D01*
X158678Y144162D02*
X159362Y144847D01*
X158902D02*
X159580Y144170D01*
X159181Y144847D02*
X159580Y144448D01*
Y140789D02*
Y144740D01*
X161772Y144724D02*
X161811Y144732D01*
X159459Y144847D02*
X159580Y144726D01*
X161686Y144847D02*
X161803Y144730D01*
X162243Y144847D02*
X162358Y144732D01*
X161965Y144847D02*
X162080Y144732D01*
X162031D02*
X162146Y144847D01*
X163145Y144732D02*
X163260Y144847D01*
X163078D02*
X163193Y144732D01*
X163357Y144847D02*
X163472Y144732D01*
X163423D02*
X163538Y144847D01*
X163702Y144732D02*
X163817Y144847D01*
X162310Y144732D02*
X162425Y144847D01*
X162521D02*
X162636Y144732D01*
X162867D02*
X162982Y144847D01*
X162588Y144732D02*
X162703Y144847D01*
X162800D02*
X162915Y144732D01*
X160573Y144847D02*
X160679Y144740D01*
X160369D02*
X160476Y144847D01*
X160851D02*
X160958Y144740D01*
X160648D02*
X160754Y144847D01*
X159813Y144740D02*
X159919Y144847D01*
X159738D02*
X159844Y144740D01*
X160294Y144847D02*
X160401Y144740D01*
X160016Y144847D02*
X160123Y144740D01*
X160091D02*
X160198Y144847D01*
X160926Y144740D02*
X161033Y144847D01*
X159580Y144740D02*
X161772D01*
X161408Y144847D02*
X161515Y144740D01*
X161129Y144847D02*
X161236Y144740D01*
X161204D02*
X161311Y144847D01*
X161761Y144740D02*
X161868Y144847D01*
X161483Y144740D02*
X161590Y144847D01*
X163980Y144732D02*
X164095Y144847D01*
X163635D02*
X163750Y144732D01*
X163913Y144847D02*
X164028Y144732D01*
X164115Y136015D02*
X164820Y135310D01*
X164115Y135680D02*
X164643Y136208D01*
X164115Y135458D02*
X164264Y135310D01*
X164115Y135737D02*
X164542Y135310D01*
X164200Y136208D02*
X165099Y135310D01*
X164115Y135402D02*
X164921Y136208D01*
X164479D02*
X165377Y135310D01*
X164302Y135310D02*
X165200Y136208D01*
X164580Y135310D02*
X165478Y136208D01*
X164115Y135310D02*
X166576Y135310D01*
X164757Y136208D02*
X165656Y135310D01*
X165137D02*
X166035Y136208D01*
X164858Y135310D02*
X165757Y136208D01*
X165036D02*
X165934Y135310D01*
X165314Y136208D02*
X166212Y135310D01*
X165415Y135310D02*
X166313Y136208D01*
X165871D02*
X166815Y135264D01*
X165592Y136208D02*
X166491Y135310D01*
X165693Y135310D02*
X166592Y136208D01*
X164115Y136572D02*
X164151Y136536D01*
X164115Y136794D02*
X164151Y136829D01*
X164115Y136237D02*
X164151Y136272D01*
X164115Y136515D02*
X164151Y136551D01*
X164115Y136850D02*
X164151Y136815D01*
X164115Y137072D02*
X164151Y137107D01*
Y136208D02*
Y138400D01*
X164115Y137964D02*
X164151Y137928D01*
X164115Y137129D02*
X164151Y137093D01*
X164115Y135958D02*
X164365Y136208D01*
X164115Y137350D02*
X164151Y137386D01*
Y136258D02*
X164200Y136208D01*
X164115Y137407D02*
X164151Y137371D01*
Y136208D02*
X168162D01*
X164115Y137629D02*
X164151Y137664D01*
X164115Y137907D02*
X164151Y137943D01*
X164115Y138185D02*
X164151Y138221D01*
X164115Y138242D02*
X164151Y138207D01*
X164144Y138437D02*
X164151Y138400D01*
X166875Y135239D02*
X166980Y135172D01*
X166760Y135286D02*
X166875Y135239D01*
X167070Y135085D02*
X167141Y134984D01*
X166980Y135172D02*
X167070Y135085D01*
X166250Y135310D02*
X167149Y136208D01*
X165972Y135310D02*
X166870Y136208D01*
X166638Y135310D02*
X166760Y135286D01*
X166576Y135310D02*
X166638Y135310D01*
X166529Y135310D02*
X167427Y136208D01*
X166960Y135184D02*
X167984Y136208D01*
X166777Y135279D02*
X167705Y136208D01*
X166984D02*
X168211Y134981D01*
X168098Y136208D02*
X168211Y136095D01*
X167099Y135044D02*
X168211Y136157D01*
X167263Y136208D02*
X168211Y135259D01*
X167541Y136208D02*
X168211Y135538D01*
X167820Y136208D02*
X168211Y135816D01*
X168162Y136208D02*
Y138400D01*
Y136422D02*
X168211Y136373D01*
X168162Y136979D02*
X168211Y136930D01*
X168162Y136943D02*
X168211Y136992D01*
X168162Y136386D02*
X168211Y136435D01*
X168162Y136700D02*
X168211Y136651D01*
X168162Y137500D02*
X168211Y137549D01*
X168157Y138400D02*
X168165Y138437D01*
X168162Y137257D02*
X168211Y137208D01*
X168162Y137536D02*
X168211Y137487D01*
X168162Y137222D02*
X168211Y137271D01*
X168162Y138092D02*
X168211Y138043D01*
X168162Y138057D02*
X168211Y138106D01*
X168162Y136665D02*
X168211Y136714D01*
X168162Y137778D02*
X168211Y137827D01*
X168162Y137814D02*
X168211Y137765D01*
X168162Y138371D02*
X168211Y138322D01*
X168162Y138335D02*
X168211Y138384D01*
X168165Y138647D02*
X168211Y138600D01*
X168165Y138925D02*
X168211Y138878D01*
X168165Y138616D02*
X168211Y138663D01*
X164144Y140459D02*
X164153Y140505D01*
X163938Y140923D02*
X164286Y140575D01*
X164179Y140544D02*
X164218Y140570D01*
X164265Y140579D01*
X165983Y144229D02*
X166219Y144465D01*
X165844Y144369D02*
X166080Y144604D01*
X166401Y143812D02*
X166636Y144047D01*
X166122Y144090D02*
X166358Y144326D01*
X166262Y143951D02*
X166497Y144187D01*
X166818Y143394D02*
X167054Y143630D01*
X166818Y143394D02*
X167054Y143630D01*
X167236Y142977D02*
X167472Y143212D01*
X166957Y143255D02*
X167193Y143491D01*
X167097Y143116D02*
X167332Y143352D01*
X165680Y144533D02*
X167907Y142305D01*
X165584Y144847D02*
X168078Y142352D01*
X165837Y144847D02*
X168211Y142473D01*
X166540Y143673D02*
X166776Y143908D01*
X166679Y143533D02*
X166915Y143769D01*
X164815Y144732D02*
X164930Y144847D01*
X165027D02*
X165142Y144732D01*
X165305Y144847D02*
X165420Y144732D01*
X165094D02*
X165209Y144847D01*
X164258Y144732D02*
X164373Y144847D01*
X164192D02*
X164307Y144732D01*
X164748Y144847D02*
X164863Y144732D01*
X164470Y144847D02*
X164585Y144732D01*
X164537D02*
X164652Y144847D01*
X165618Y144723D02*
X165657Y144697D01*
X161811Y144732D02*
X165572Y144732D01*
X165683Y144565D02*
X165692Y144611D01*
X165657Y144697D02*
X165683Y144657D01*
X165692Y144611D01*
X165372Y144732D02*
X165487Y144847D01*
X158633D02*
X165837D01*
X165705Y144508D02*
X165940Y144743D01*
X165572Y144732D02*
X165618Y144723D01*
X165632Y144713D02*
X165765Y144847D01*
X168165Y139173D02*
X168211Y139219D01*
X168165Y139482D02*
X168211Y139435D01*
X168165Y138894D02*
X168211Y138941D01*
X168165Y139204D02*
X168211Y139157D01*
X168165Y138437D02*
Y142239D01*
Y140039D02*
X168211Y139992D01*
X168165Y139451D02*
X168211Y139498D01*
X168165Y139729D02*
X168211Y139776D01*
X168165Y139760D02*
X168211Y139714D01*
X168165Y140596D02*
X168211Y140549D01*
X168165Y140565D02*
X168211Y140611D01*
X168165Y140008D02*
X168211Y140055D01*
X168165Y140286D02*
X168211Y140333D01*
X168165Y140317D02*
X168211Y140270D01*
X168165Y141121D02*
X168211Y141168D01*
X168165Y141431D02*
X168211Y141384D01*
X168165Y140874D02*
X168211Y140827D01*
X168165Y141152D02*
X168211Y141106D01*
X168165Y140843D02*
X168211Y140890D01*
X167920Y142285D02*
X167959Y142324D01*
X167998Y142350D01*
X168090D02*
X168129Y142324D01*
X167998Y142350D02*
X168044Y142359D01*
X167514Y142698D02*
X167750Y142934D01*
X167375Y142837D02*
X167611Y143073D01*
X168044Y142359D02*
X168090Y142350D01*
X167653Y142559D02*
X167889Y142795D01*
X167793Y142420D02*
X168028Y142656D01*
X168165Y141988D02*
X168211Y141941D01*
X168165Y141956D02*
X168211Y142003D01*
X168165Y141400D02*
X168211Y141446D01*
X168165Y141678D02*
X168211Y141725D01*
X168165Y141709D02*
X168211Y141662D01*
X168129Y142324D02*
X168155Y142285D01*
X168002Y142351D02*
X168168Y142516D01*
X168158Y142273D02*
X168211Y142219D01*
X168155Y142285D02*
X168165Y142239D01*
X168165Y142235D02*
X168211Y142282D01*
X148782Y125359D02*
X148959Y125182D01*
X148782Y125359D02*
Y125398D01*
X127487Y171934D02*
G03*
X127541Y172135I-341J201D01*
G01*
X128028Y172509D02*
G03*
X127712Y171934I0J-374D01*
G01*
X128462Y171934D02*
G03*
X128520Y172135I-316J201D01*
G01*
X129462Y171934D02*
G03*
X129520Y172135I-316J201D01*
G01*
X129028Y172509D02*
G03*
X128712Y171934I0J-374D01*
G01*
X129520Y172135D02*
G03*
X129146Y172509I-374J0D01*
G01*
X127028Y172530D02*
G03*
X126812Y171804I0J-395D01*
G01*
X126699Y172957D02*
G03*
X127028Y172761I329J177D01*
G01*
X128520Y172135D02*
G03*
X128146Y172509I-374J0D01*
G01*
X127541Y172135D02*
G03*
X127146Y172530I-395J0D01*
G01*
Y172761D02*
G03*
X127475Y172957I0J374D01*
G01*
X128146Y172761D02*
G03*
X128475Y172957I0J374D01*
G01*
X127699D02*
G03*
X128028Y172761I329J177D01*
G01*
X128699Y172957D02*
G03*
X129028Y172761I329J177D01*
G01*
X129146D02*
G03*
X129475Y172957I0J374D01*
G01*
X129699D02*
G03*
X130028Y172761I329J177D01*
G01*
X130146D02*
G03*
X130475Y172957I0J374D01*
G01*
X116995Y154136D02*
X117020Y154111D01*
X116995Y154293D02*
X117020Y154318D01*
X116995Y153857D02*
X117020Y153832D01*
X116995Y154015D02*
X117020Y154040D01*
X116995Y154850D02*
X117020Y154875D01*
X116995Y154971D02*
X117020Y154946D01*
X116995Y154414D02*
X117020Y154389D01*
X116995Y154693D02*
X117020Y154667D01*
X116995Y154571D02*
X117020Y154597D01*
X116995Y152901D02*
X117020Y152926D01*
X116995Y153022D02*
X117020Y152997D01*
X116995Y152344D02*
X117101Y152451D01*
X116995Y152744D02*
X117020Y152719D01*
X116995Y152623D02*
X117020Y152648D01*
X116995Y153579D02*
X117020Y153554D01*
X116995Y153736D02*
X117020Y153761D01*
X116995Y153180D02*
X117020Y153205D01*
X116995Y153458D02*
X117020Y153483D01*
X116995Y153301D02*
X117020Y153275D01*
X116995Y155407D02*
X117020Y155432D01*
X116995Y155528D02*
X117020Y155503D01*
X116995Y155128D02*
X117020Y155153D01*
X116995Y155249D02*
X117020Y155224D01*
X116995Y156084D02*
X117020Y156059D01*
X116995Y157355D02*
X117022Y157383D01*
X116995Y155685D02*
X117020Y155710D01*
X116995Y155963D02*
X117020Y155989D01*
X116995Y155806D02*
X117020Y155781D01*
X116995Y157912D02*
X117022Y157940D01*
X116995Y158033D02*
X117022Y158006D01*
X116995Y157476D02*
X117022Y157449D01*
X116995Y157755D02*
X117022Y157727D01*
X116995Y157634D02*
X117022Y157661D01*
X116995Y158868D02*
X117387Y158476D01*
X116995Y159147D02*
X117665Y158476D01*
X116995Y158191D02*
X117022Y158218D01*
X116995Y158312D02*
X117022Y158284D01*
X116995Y158590D02*
X117108Y158476D01*
X117500Y151736D02*
X117690Y151926D01*
X117361Y151875D02*
X117551Y152066D01*
X117778Y151458D02*
X117969Y151648D01*
X117639Y151597D02*
X117830Y151787D01*
X117082Y152154D02*
X117273Y152344D01*
X117140Y152443D02*
X117186Y152452D01*
X117221Y152014D02*
X117412Y152205D01*
X117203Y152463D02*
X117212Y152418D01*
X117238Y152379D01*
X118613Y150622D02*
X118804Y150813D01*
X118474Y150762D02*
X118665Y150952D01*
X119031Y150205D02*
X119221Y150395D01*
X118753Y150483D02*
X118943Y150674D01*
X118892Y150344D02*
X119082Y150534D01*
X118057Y151179D02*
X118247Y151370D01*
X117917Y151318D02*
X118108Y151509D01*
X118335Y150901D02*
X118525Y151091D01*
X118196Y151040D02*
X118386Y151230D01*
X118196Y151040D02*
X118386Y151230D01*
X116995Y156520D02*
X117022Y156548D01*
X116995Y156641D02*
X117022Y156614D01*
X117020Y152564D02*
Y156245D01*
X116995Y156363D02*
X117022Y156335D01*
X116995Y156799D02*
X117022Y156826D01*
X116995Y156920D02*
X117022Y156892D01*
Y156284D02*
Y158476D01*
X116995Y157198D02*
X117022Y157171D01*
X116995Y157077D02*
X117022Y157104D01*
X117020Y152564D02*
X117029Y152518D01*
X116995Y156242D02*
X117025Y156272D01*
X117094Y152452D02*
X117140Y152443D01*
X117029Y152518D02*
X117055Y152479D01*
X117094Y152452D01*
X117020Y156245D02*
X117028Y156284D01*
X117559Y158476D02*
X118478Y159395D01*
X117837Y158476D02*
X118739Y159378D01*
X118564D02*
X118626D01*
X118116Y158476D02*
X119018Y159378D01*
X116995Y159582D02*
X117977Y160564D01*
X116995Y159861D02*
X117977Y160843D01*
X116995Y159425D02*
X117944Y158476D01*
X116995Y159304D02*
X117977Y160286D01*
X116995Y160696D02*
X117977Y161678D01*
X116995Y161931D02*
X117977Y160949D01*
X116995Y161095D02*
X117977Y160113D01*
X116995Y161652D02*
X117977Y160670D01*
X116995Y160139D02*
X117977Y161121D01*
X116995Y159982D02*
X118500Y158476D01*
X116995Y159026D02*
X117978Y160009D01*
X116995Y158469D02*
X118131Y159605D01*
X116995Y158747D02*
X118027Y159780D01*
X116995Y159704D02*
X118222Y158476D01*
X116995Y161374D02*
X117977Y160392D01*
X116995Y160418D02*
X117977Y161400D01*
X116995Y160260D02*
X118779Y158476D01*
X116995Y160817D02*
X118023Y159789D01*
X116995Y160539D02*
X119057Y158476D01*
X116995Y161810D02*
X117977Y162792D01*
X116995Y164037D02*
X117343Y164385D01*
X116995Y161531D02*
X117977Y162513D01*
X116995Y162766D02*
X117977Y161784D01*
X116995Y164593D02*
X117022Y164621D01*
X116995Y164714D02*
X117022Y164687D01*
X116995Y163480D02*
X117899Y164385D01*
X116995Y164436D02*
X117022Y164409D01*
X116995Y163758D02*
X117621Y164385D01*
X116995Y162487D02*
X117977Y161505D01*
X116995Y163044D02*
X117977Y162062D01*
X116995Y160974D02*
X117977Y161956D01*
X116995Y161253D02*
X117977Y162235D01*
X116995Y162209D02*
X117977Y161227D01*
X116995Y162645D02*
X118735Y164385D01*
X116995Y162923D02*
X118456Y164385D01*
X116995Y163323D02*
X117977Y162341D01*
X116995Y163601D02*
X117977Y162619D01*
X116995Y162366D02*
X119013Y164385D01*
X117977Y160028D02*
Y162786D01*
Y162850D01*
X117982Y159939D02*
X118010Y159818D01*
X117979Y160001D02*
X117982Y159939D01*
X116995Y163879D02*
X117985Y162889D01*
X116995Y164158D02*
X118054Y163098D01*
X116995Y152241D02*
Y170585D01*
X117977Y162850D02*
X118002Y162975D01*
X118050Y163093D01*
X117280Y158476D02*
X118282Y159478D01*
X118132Y159603D02*
X118222Y159516D01*
X118442Y159402D02*
X118564Y159378D01*
X118222Y159516D02*
X118327Y159449D01*
X118442Y159402D01*
X118010Y159818D02*
X118061Y159705D01*
X116995Y162088D02*
X119291Y164385D01*
X118061Y159705D02*
X118132Y159603D01*
X118050Y163093D02*
X118121Y163199D01*
X118212Y163289D01*
X116995Y164315D02*
X117064Y164385D01*
X116995Y164872D02*
X117022Y164899D01*
Y164409D02*
X117046Y164385D01*
X116995Y164993D02*
X117022Y164965D01*
X116995Y165150D02*
X117022Y165178D01*
X116995Y165271D02*
X117022Y165244D01*
Y164385D02*
Y166577D01*
X116995Y165550D02*
X117022Y165522D01*
X116995Y165429D02*
X117022Y165456D01*
X117046Y164385D02*
X118177Y163254D01*
X118212Y163289D02*
X118318Y163360D01*
X118436Y163409D01*
X118561Y163434D01*
X118624Y163434D01*
X116995Y163202D02*
X118178Y164385D01*
X117325D02*
X118340Y163369D01*
X117603Y164385D02*
X118555Y163433D01*
X117881Y164385D02*
X118832Y163434D01*
X118160Y164385D02*
X119110Y163434D01*
X119559Y149916D02*
X119605Y149907D01*
X119520Y149942D02*
X119559Y149916D01*
X123336Y149907D02*
X123371Y149914D01*
X119605Y149907D02*
X123336D01*
X116995Y152241D02*
X119329Y149906D01*
X116995Y152465D02*
X119554Y149906D01*
X119309Y149926D02*
X119508Y150125D01*
X119485Y150027D02*
X119494Y149981D01*
X119520Y149942D01*
X119329Y149906D02*
X132839Y149906D01*
X123371Y149911D02*
X125563D01*
Y150022D02*
X125678Y149906D01*
X125563Y150300D02*
X125957Y149906D01*
X125563Y150579D02*
X126235Y149906D01*
X125563Y151692D02*
X127349Y149906D01*
X125563Y151971D02*
X127627Y149906D01*
X125563Y150857D02*
X126513Y149906D01*
X125563Y151136D02*
X126792Y149906D01*
X125563Y151414D02*
X127070Y149906D01*
X119170Y150066D02*
X119361Y150256D01*
X119465Y150152D02*
X119504Y150126D01*
X119485Y150027D02*
X119494Y150073D01*
X119520Y150112D01*
X117238Y152379D02*
X119465Y150152D01*
X125563Y150890D02*
X126538Y151865D01*
X125563Y150612D02*
X126538Y151587D01*
X125563Y151725D02*
X126538Y152701D01*
X125563Y151169D02*
X126538Y152144D01*
X125563Y152004D02*
X126538Y152979D01*
X125563Y153084D02*
X126538Y152109D01*
X125563Y150055D02*
X126662Y151155D01*
X125563Y152806D02*
X126538Y151831D01*
X125563Y150334D02*
X126567Y151338D01*
X125563Y153641D02*
X126538Y152666D01*
X125563Y152839D02*
X126538Y153814D01*
X125563Y152282D02*
X126538Y153257D01*
X125563Y152561D02*
X126538Y153536D01*
X125563Y153363D02*
X126538Y152388D01*
X126527Y149906D02*
X127511Y150890D01*
X126249Y149906D02*
X127233Y150890D01*
X127200D02*
X128184Y149906D01*
X126806D02*
X127790Y150890D01*
X125971Y149906D02*
X126984Y150920D01*
X125692Y149906D02*
X126802Y151016D01*
X127363Y149906D02*
X128347Y150890D01*
X126785Y151026D02*
X127905Y149906D01*
X127084D02*
X128068Y150890D01*
X127757D02*
X128741Y149906D01*
X127478Y150890D02*
X128462Y149906D01*
X129149Y150890D02*
X130132Y149906D01*
X127919D02*
X128903Y150890D01*
X128870D02*
X129854Y149906D01*
X129033D02*
X130021Y150895D01*
X127641Y149906D02*
X128625Y150890D01*
X129590Y149906D02*
X131464Y151781D01*
X129427Y150890D02*
X130411Y149906D01*
X129311D02*
X131464Y152059D01*
X126611Y151231D02*
X126682Y151125D01*
X126563Y151349D02*
X126611Y151231D01*
X126773Y151035D02*
X126879Y150964D01*
X126682Y151125D02*
X126773Y151035D01*
X125563Y151447D02*
X126538Y152422D01*
X125563Y152528D02*
X126538Y151552D01*
X125563Y152249D02*
X126674Y151138D01*
X126538Y151474D02*
X126538Y151538D01*
X126538Y151474D02*
X126563Y151349D01*
X128313Y150890D02*
X129297Y149906D01*
X127186Y150890D02*
X129943D01*
X128755Y149906D02*
X129738Y150890D01*
X128476Y149906D02*
X129460Y150890D01*
X128592D02*
X129576Y149906D01*
X126997Y150915D02*
X127122Y150890D01*
X126879Y150964D02*
X126997Y150915D01*
X128198Y149906D02*
X129182Y150890D01*
X127122Y150890D02*
X127186Y150890D01*
X128035D02*
X129019Y149906D01*
X118672Y158476D02*
X119575Y159378D01*
X118394Y158476D02*
X119296Y159378D01*
X118951Y158476D02*
X119853Y159378D01*
X118712D02*
X119614Y158476D01*
X118990Y159378D02*
X119892Y158476D01*
X118388Y159424D02*
X119335Y158476D01*
X119508D02*
X120410Y159378D01*
X119229Y158476D02*
X120131Y159378D01*
X119268D02*
X120171Y158476D01*
X119786D02*
X120688Y159378D01*
X117022Y158476D02*
X121067D01*
X120621D02*
X121087Y158942D01*
X119825Y159378D02*
X120727Y158476D01*
X120343D02*
X121087Y159220D01*
X120064Y158476D02*
X120967Y159378D01*
X119547D02*
X120449Y158476D01*
X120104Y159378D02*
X121006Y158476D01*
X120660Y159378D02*
X121087Y158952D01*
X120382Y159378D02*
X121087Y158674D01*
X119273Y164385D02*
X120224Y163434D01*
X119176D02*
X120127Y164385D01*
X119552D02*
X120502Y163434D01*
X119454D02*
X120405Y164385D01*
X118619Y163434D02*
X119570Y164385D01*
X118438D02*
X119389Y163434D01*
X118995Y164385D02*
X119946Y163434D01*
X118717Y164385D02*
X119667Y163434D01*
X118897D02*
X119848Y164385D01*
X118626Y159378D02*
X121087D01*
X118624Y163434D02*
X121089D01*
X120568D02*
X121088Y163955D01*
X120011Y163434D02*
X120962Y164385D01*
X120289Y163434D02*
X121088Y164233D01*
X119733Y163434D02*
X120683Y164385D01*
X117022D02*
X121067D01*
X119830D02*
X120781Y163434D01*
X120108Y164385D02*
X121059Y163434D01*
X120387Y164385D02*
X121089Y163683D01*
X121002Y153966D02*
X121059Y153909D01*
X121037Y153991D02*
X121080Y153948D01*
X121062Y153922D02*
X121088Y153961D01*
X121127Y153987D01*
X121173Y153996D01*
X121034Y153987D02*
X121061Y154026D01*
X123336Y153996D02*
X123371Y153989D01*
X121146Y153991D02*
X121171Y154015D01*
X121146Y153991D02*
X121171Y154015D01*
X125563Y153674D02*
X125889Y154001D01*
X125563Y153953D02*
X125611Y154001D01*
X125563Y149911D02*
Y153991D01*
Y153396D02*
X126167Y154001D01*
X125563Y153919D02*
X126538Y152944D01*
X125563Y153117D02*
X126446Y154001D01*
X125760D02*
X126538Y153223D01*
Y151538D02*
Y154001D01*
X126317D02*
X126538Y153780D01*
X126038Y154001D02*
X126538Y153501D01*
X121061Y154026D02*
X121070Y154072D01*
X121006Y158476D02*
X121067Y158415D01*
X121070Y156245D02*
X121070Y154072D01*
X121062Y156284D02*
X121070Y156245D01*
X120900Y158476D02*
X121087Y158664D01*
X120939Y159378D02*
X121087Y159230D01*
Y154148D02*
Y159378D01*
X121067Y164385D02*
Y166577D01*
Y156284D02*
Y158476D01*
X121151Y154023D02*
X121205Y154001D01*
X121109Y154065D02*
X121151Y154023D01*
X123371Y153991D02*
X125563D01*
X121173Y153996D02*
X123336D01*
X121235Y154001D02*
X126538Y154001D01*
X120846Y163434D02*
X121089Y163676D01*
X120665Y164385D02*
X121088Y163961D01*
X121087Y154119D02*
X121109Y154065D01*
X120944Y164385D02*
X121088Y164240D01*
X121087Y165543D02*
X121089Y163434D01*
X116995Y166542D02*
X117022Y166570D01*
X116995Y166663D02*
X117020Y166638D01*
X116995Y166264D02*
X117022Y166291D01*
X116995Y166385D02*
X117022Y166357D01*
X116995Y167220D02*
X117020Y167195D01*
X116995Y167377D02*
X117020Y167402D01*
X116995Y166821D02*
X117020Y166846D01*
X116995Y167099D02*
X117020Y167124D01*
X116995Y166942D02*
X117020Y166917D01*
X116995Y165707D02*
X117022Y165734D01*
X116995Y165828D02*
X117022Y165801D01*
X116995Y165985D02*
X117022Y166013D01*
X116995Y166106D02*
X117022Y166079D01*
X117020Y166616D02*
X117028Y166577D01*
X121054D02*
X121062Y166616D01*
Y166712D02*
X121089Y166739D01*
X121062Y166771D02*
X121089Y166744D01*
X121062Y167050D02*
X121092Y167021D01*
X121062Y166991D02*
X121092Y167020D01*
X116995Y167777D02*
X117020Y167752D01*
X116995Y167934D02*
X117020Y167959D01*
X116995Y167498D02*
X117020Y167473D01*
X116995Y167656D02*
X117020Y167681D01*
X116995Y168491D02*
X117020Y168516D01*
X116995Y168612D02*
X117020Y168587D01*
X116995Y168055D02*
X117020Y168030D01*
X116995Y168334D02*
X117020Y168308D01*
X116995Y168212D02*
X117020Y168238D01*
X121027Y168679D02*
X121053Y168640D01*
X120988Y168705D02*
X121027Y168679D01*
X121062Y167826D02*
X121088Y167852D01*
X121053Y168640D02*
X121062Y168594D01*
X121048Y168647D02*
X121085Y168684D01*
X116995Y168769D02*
X117020Y168794D01*
X116995Y168890D02*
X117020Y168865D01*
X120993Y168790D02*
X121085Y168697D01*
X120911Y168708D02*
X120942Y168714D01*
X120988Y168705D01*
X121062Y167607D02*
X121089Y167580D01*
X121062Y167885D02*
X121088Y167859D01*
X121067Y166439D02*
X121089Y166460D01*
X121067Y166488D02*
X121089Y166467D01*
X121062Y166616D02*
Y168594D01*
Y168442D02*
X121086Y168418D01*
X121062Y168104D02*
X121087Y168129D01*
X121062Y168383D02*
X121086Y168406D01*
X121062Y168163D02*
X121087Y168139D01*
X121087Y165543D02*
X121089Y166816D01*
X121192D01*
Y166864D01*
X121092Y166864D02*
X121192Y166864D01*
X121166Y166816D02*
X121192Y166842D01*
X121062Y167269D02*
X121090Y167297D01*
X121062Y167328D02*
X121090Y167300D01*
X121085Y168676D02*
X121092Y166864D01*
X121062Y167547D02*
X121089Y167575D01*
X121085Y168705D02*
X121107Y168760D01*
X121149Y168801D01*
X121203Y168824D01*
X121782Y168824D02*
X121822Y168864D01*
X121503Y168824D02*
X121544Y168864D01*
X121225Y168824D02*
X121274Y168872D01*
X121230Y168899D02*
X121269Y168873D01*
X121753Y168864D02*
X121794Y168824D01*
X121269Y168873D02*
X121315Y168864D01*
X121475Y168864D02*
X121516Y168824D01*
X122867Y168864D02*
X122907Y168824D01*
X122617D02*
X122657Y168864D01*
X123174Y168824D02*
X123214Y168864D01*
X122895Y168824D02*
X122936Y168864D01*
X123145D02*
X123186Y168824D01*
X122060Y168824D02*
X122101Y168864D01*
X122032D02*
X122072Y168824D01*
X122589Y168864D02*
X122629Y168824D01*
X122310Y168864D02*
X122351Y168824D01*
X122339D02*
X122379Y168864D01*
X116995Y169326D02*
X117020Y169351D01*
X116995Y169447D02*
X117020Y169422D01*
X116995Y169048D02*
X117020Y169073D01*
X116995Y169169D02*
X117020Y169144D01*
X116995Y169604D02*
X117020Y169630D01*
X116995Y169725D02*
X117020Y169700D01*
Y166616D02*
Y170484D01*
X116995Y170004D02*
X117020Y169979D01*
X116995Y169883D02*
X117020Y169908D01*
X116995Y170161D02*
X117020Y170186D01*
X116995Y170282D02*
X117020Y170257D01*
X116995Y170440D02*
X117020Y170465D01*
X116995Y170561D02*
X117028Y170527D01*
X117020Y170484D02*
X117029Y170530D01*
X117122Y170712D02*
X117343Y170491D01*
X117029Y170530D02*
X117055Y170569D01*
X117225D02*
X117324Y170471D01*
X117327Y170475D02*
X119554Y172702D01*
X117314Y170481D02*
X119617Y172783D01*
X117055Y170569D02*
X117094Y170596D01*
X117140Y170605D01*
X117186Y170596D02*
X117225Y170569D01*
X117140Y170605D02*
X117186Y170596D01*
X117261Y170851D02*
X117482Y170630D01*
X117400Y170991D02*
X117621Y170770D01*
X117539Y171130D02*
X117760Y170909D01*
X117678Y171269D02*
X117899Y171048D01*
X117818Y171408D02*
X118039Y171187D01*
X117957Y171547D02*
X118178Y171326D01*
X118096Y171686D02*
X118317Y171465D01*
X118235Y171826D02*
X118456Y171605D01*
X118374Y171965D02*
X118595Y171744D01*
X118514Y172104D02*
X118735Y171883D01*
X116995Y170585D02*
X119367Y172957D01*
X117157Y170601D02*
X119512Y172957D01*
X118653Y172243D02*
X118874Y172022D01*
X118792Y172382D02*
X119013Y172161D01*
X118931Y172522D02*
X119152Y172301D01*
X119070Y172661D02*
X119291Y172440D01*
X119210Y172800D02*
X119431Y172579D01*
X119554Y172702D02*
X119593Y172728D01*
X119608Y172741D02*
X119618Y172787D01*
X119349Y172939D02*
X119573Y172715D01*
X119609Y172957D02*
X119709Y172857D01*
X119618Y172787D02*
X119644Y172826D01*
X119683Y172852D01*
X119729Y172861D01*
X120911Y168708D02*
X121197Y168994D01*
X120723Y172957D02*
X120819Y172861D01*
X121132Y168929D02*
X121237Y168824D01*
X121195Y168985D02*
X121204Y168938D01*
X121230Y168899D01*
X119686Y172853D02*
X119791Y172957D01*
X119887D02*
X119983Y172861D01*
X120530D02*
X120626Y172957D01*
X119973Y172861D02*
X120069Y172957D01*
X120444D02*
X120540Y172861D01*
X121365D02*
X121461Y172957D01*
X121279D02*
X121375Y172861D01*
X121644D02*
X121740Y172957D01*
X121558D02*
X121654Y172861D01*
X120252D02*
X120348Y172957D01*
X120166D02*
X120262Y172861D01*
X121087D02*
X121183Y172957D01*
X120808Y172861D02*
X120904Y172957D01*
X121001D02*
X121097Y172861D01*
X122671Y172957D02*
X122767Y172861D01*
X122479D02*
X122575Y172957D01*
X123035Y172861D02*
X123131Y172957D01*
X122757Y172861D02*
X122853Y172957D01*
X122950D02*
X123046Y172861D01*
X121922D02*
X122018Y172957D01*
X121836D02*
X121932Y172861D01*
X122393Y172957D02*
X122489Y172861D01*
X122115Y172957D02*
X122211Y172861D01*
X122200D02*
X122296Y172957D01*
X123452Y168824D02*
X123501Y168873D01*
X123424Y168864D02*
X123464Y168824D01*
X123730D02*
X123780Y168873D01*
X123694D02*
X123743Y168824D01*
X124009Y168824D02*
X124058Y168873D01*
X123972D02*
X124021Y168824D01*
X124529Y168873D02*
X124578Y168824D01*
X124250Y168873D02*
X124299Y168824D01*
X124287D02*
X124336Y168873D01*
X121233Y168824D02*
X126551Y168824D01*
X124566Y168824D02*
X124615Y168873D01*
X125085D02*
X125135Y168824D01*
X124807Y168873D02*
X124856Y168824D01*
X124844D02*
X124893Y168873D01*
X125364D02*
X125413Y168824D01*
X125122D02*
X125171Y168873D01*
X125401Y168824D02*
X125450Y168873D01*
X125651Y169142D02*
X125970Y168824D01*
X125651Y169699D02*
X126526Y168824D01*
X123423Y168864D02*
X123466Y168873D01*
X121315Y168864D02*
X123423Y168864D01*
X125642Y168873D02*
X125691Y168824D01*
X123466Y168873D02*
X125651D01*
Y170256D02*
X126551Y169356D01*
X125651Y169631D02*
X126551Y170531D01*
X125651Y169074D02*
X126551Y169974D01*
X125651Y169353D02*
X126551Y170253D01*
X125651Y169977D02*
X126551Y169077D01*
X125651Y170188D02*
X126551Y171088D01*
X125651Y171091D02*
X126551Y170191D01*
X125651Y170534D02*
X126551Y169634D01*
X125651Y170813D02*
X126551Y169912D01*
X125651Y169909D02*
X126551Y170810D01*
X125651Y171301D02*
X126691Y172341D01*
X125651Y172483D02*
X126601Y171533D01*
X125651Y170466D02*
X126556Y171371D01*
X125651Y171926D02*
X126551Y171026D01*
X125651Y171369D02*
X126551Y170469D01*
X125958Y168824D02*
X126551Y169418D01*
X125651Y169421D02*
X126248Y168824D01*
X126514D02*
X126551Y168861D01*
X126236Y168824D02*
X126551Y169139D01*
X125651Y171648D02*
X126551Y170747D01*
X125651Y172204D02*
X126551Y171304D01*
X125679Y168824D02*
X126551Y169696D01*
X126551Y171346D02*
X126551Y171284D01*
Y168824D02*
Y171284D01*
X126551Y171346D02*
X126575Y171469D01*
X126622Y171584D01*
X126689Y171689D01*
X126776Y171778D01*
X126812Y171804D01*
X125651Y170744D02*
X126755Y171849D01*
X125651Y171023D02*
X126649Y172021D01*
X129625Y171934D02*
X129654Y171963D01*
X129489Y171986D02*
X129541Y171934D01*
X129462D02*
X129654D01*
X127487Y171934D02*
X127712D01*
X127676D02*
X127699Y171957D01*
X127520Y172006D02*
X127592Y171934D01*
X127506Y172299D02*
X127654Y172150D01*
X127537Y172073D02*
X127659Y172195D01*
X128462Y171934D02*
X128712D01*
X128511D02*
X128658Y172081D01*
X128520Y172120D02*
X128706Y171934D01*
X129501Y172252D02*
X129654Y172099D01*
X129519Y172107D02*
X129654Y172242D01*
Y172509D02*
X130520D01*
X124063Y172957D02*
X124170Y172851D01*
X123860D02*
X123967Y172957D01*
X125651Y168873D02*
Y172851D01*
X124342Y172957D02*
X124448Y172851D01*
X125651Y172415D02*
X126194Y172957D01*
X125651Y172693D02*
X125915Y172957D01*
X125734D02*
X126642Y172049D01*
X125651Y172136D02*
X126472Y172957D01*
X126012D02*
X126669Y172300D01*
X125651Y172761D02*
X126706Y171706D01*
X126822Y172472D02*
X127111Y172761D01*
X127028D02*
X127146D01*
X127028Y172530D02*
X127146D01*
X125651Y171580D02*
X126868Y172796D01*
X125651Y171858D02*
X126718Y172925D01*
X126290Y172957D02*
X126794Y172453D01*
X126569Y172957D02*
X126997Y172529D01*
X123228Y172957D02*
X123324Y172861D01*
X119729D02*
X123423D01*
X123469Y172852D01*
X123314Y172861D02*
X123410Y172957D01*
X123582Y172851D02*
X123688Y172957D01*
X123506D02*
X123613Y172851D01*
X124417D02*
X124523Y172957D01*
X123785D02*
X123892Y172851D01*
X124138D02*
X124245Y172957D01*
X124620D02*
X124727Y172851D01*
X123471D02*
X125651D01*
X124973D02*
X125080Y172957D01*
X124695Y172851D02*
X124802Y172957D01*
X124898D02*
X125005Y172851D01*
X125177Y172957D02*
X125284Y172851D01*
X119367Y172957D02*
X126699D01*
X125530Y172851D02*
X125637Y172957D01*
X125252Y172851D02*
X125359Y172957D01*
X125455D02*
X125562Y172851D01*
X127044Y172761D02*
X127310Y172494D01*
X127292Y172790D02*
X127727Y172356D01*
X127368Y172462D02*
X127770Y172864D01*
X127499Y172313D02*
X127953Y172768D01*
X127448Y172913D02*
X127882Y172479D01*
X127967Y172504D02*
X128235Y172771D01*
X128512Y172213D02*
X129059Y172761D01*
X128157Y172761D02*
X128671Y172247D01*
X129654Y171934D02*
Y172509D01*
X128991Y172762D02*
X129263Y172490D01*
X129255Y172777D02*
X129654Y172378D01*
X128365Y172831D02*
X128781Y172415D01*
X128239Y172497D02*
X128699Y172957D01*
X129465Y172331D02*
X129913Y172779D01*
X128415Y172395D02*
X128835Y172814D01*
X129321Y172465D02*
X129745Y172890D01*
X127806Y172834D02*
X128131Y172509D01*
X127475Y172957D02*
X127699D01*
X128028Y172509D02*
X128146D01*
X128028Y172761D02*
X128146D01*
X127158Y172530D02*
X127586Y172957D01*
X127682D02*
X127727Y172912D01*
X128475Y172957D02*
X128699D01*
X129425Y172885D02*
X129801Y172509D01*
X129028Y172761D02*
X129146D01*
X129028Y172509D02*
X129146D01*
X128517Y172957D02*
X128971Y172504D01*
X129086Y172509D02*
X129534Y172957D01*
X129631D02*
X130080Y172509D01*
X129475Y172957D02*
X129699D01*
X130703Y149906D02*
X131464Y150667D01*
X129705Y150890D02*
X130689Y149906D01*
X131260D02*
X131464Y150110D01*
X130982Y149906D02*
X131464Y150389D01*
X129981Y150893D02*
X130968Y149906D01*
X129868D02*
X131464Y151502D01*
X130206Y150947D02*
X131246Y149906D01*
X130377Y151054D02*
X131464Y149967D01*
X130425Y149906D02*
X131464Y150945D01*
X131773Y149936D02*
X131803Y149906D01*
X131464Y149936D02*
X133656D01*
X132095Y149906D02*
X132125Y149936D01*
X131817Y149906D02*
X131846Y149936D01*
X132052D02*
X132081Y149906D01*
X130146D02*
X131464Y151224D01*
X130502Y151207D02*
X131464Y150245D01*
X131538Y149906D02*
X131568Y149936D01*
X131464Y149967D02*
X131495Y149936D01*
X131524Y149906D01*
X129970Y150893D02*
X130032Y150895D01*
X130154Y150924D01*
X130267Y150974D01*
X130369Y151046D01*
X130455Y151136D01*
X130523Y151240D01*
X130569Y151356D01*
X130593Y151540D02*
X130593Y151478D01*
X130569Y151356D02*
X130593Y151478D01*
X130580Y151408D02*
X131464Y150524D01*
X130590Y151464D02*
X131464Y152337D01*
X130593Y151673D02*
X131464Y150802D01*
X130593Y152230D02*
X131464Y151359D01*
X130593Y151951D02*
X131464Y151080D01*
X130593Y151745D02*
X131464Y152616D01*
X130593Y152023D02*
X131464Y152894D01*
X130593Y152508D02*
X131464Y151637D01*
X130593Y153065D02*
X131464Y152194D01*
X130593Y152786D02*
X131464Y151916D01*
X132652Y149906D02*
X132681Y149936D01*
X132609D02*
X132638Y149906D01*
X132839Y149761D02*
X132839Y149906D01*
X132839Y149761D02*
Y149906D01*
X132374D02*
X132403Y149936D01*
X132330D02*
X132360Y149906D01*
X135663Y149943D02*
X135700Y149906D01*
X135385Y149943D02*
X135422Y149906D01*
X135436D02*
X135473Y149943D01*
X136549Y149906D02*
X136586Y149943D01*
X136498D02*
X136535Y149906D01*
X137055Y149943D02*
X137092Y149906D01*
X136777Y149943D02*
X136814Y149906D01*
X136828D02*
X136865Y149943D01*
X135942D02*
X135979Y149906D01*
X135714D02*
X135751Y149943D01*
X136271Y149906D02*
X136308Y149943D01*
X135993Y149906D02*
X136030Y149943D01*
X136220D02*
X136257Y149906D01*
X132930Y149906D02*
X132960Y149936D01*
X132887D02*
X132916Y149906D01*
X133209D02*
X133238Y149936D01*
X133165D02*
X133195Y149906D01*
X133487Y149906D02*
X133517Y149936D01*
X133444D02*
X133473Y149906D01*
X133766D02*
X133802Y149943D01*
X133656Y149951D02*
X133693Y149943D01*
X133715D02*
X133752Y149906D01*
X134828Y149943D02*
X134865Y149906D01*
X134601D02*
X134638Y149943D01*
X135157Y149906D02*
X135194Y149943D01*
X134879Y149906D02*
X134916Y149943D01*
X135107D02*
X135143Y149906D01*
X134044Y149906D02*
X134081Y149943D01*
X133993D02*
X134030Y149906D01*
X134550Y149943D02*
X134587Y149906D01*
X134271Y149943D02*
X134308Y149906D01*
X134322D02*
X134359Y149943D01*
X130593Y152302D02*
X131464Y153173D01*
X130593Y152859D02*
X131464Y153729D01*
Y149936D02*
Y153994D01*
X130593Y153622D02*
X131464Y152751D01*
X130593Y151540D02*
X130593Y154001D01*
X130593Y153137D02*
X131457Y154001D01*
X130593Y153415D02*
X131178Y154001D01*
X130593Y153972D02*
X130622Y154001D01*
X130593Y153694D02*
X130900Y154001D01*
X130593Y153343D02*
X131464Y152472D01*
X130593Y152580D02*
X131464Y153451D01*
X130593Y153900D02*
X131464Y153029D01*
X135820Y153974D02*
X135859Y153948D01*
X135885Y153909D01*
X130771Y154001D02*
X131464Y153308D01*
X131049Y154001D02*
X131464Y153586D01*
X131328Y154001D02*
X131464Y153864D01*
X135859Y153948D02*
X136032Y154121D01*
X135890Y153881D02*
X136102Y154093D01*
X133656Y153976D02*
X133693Y153983D01*
X131464Y153994D02*
X133656D01*
X135774Y153983D02*
X135820Y153974D01*
X133693Y153983D02*
X135774Y153983D01*
X133660Y153977D02*
X133684Y154001D01*
X130593D02*
X135810D01*
X135782D02*
X135805Y153977D01*
X135839Y154001D02*
X135893Y154023D01*
X135935Y154065D01*
X135953Y154108D02*
X136035Y154026D01*
X135935Y154065D02*
X135957Y154119D01*
X135957Y154325D02*
X135986Y154354D01*
X135957Y154604D02*
X135986Y154633D01*
X135957Y154382D02*
X135986Y154353D01*
X135957Y154148D02*
X135957Y159365D01*
X135957Y155439D02*
X135986Y155468D01*
X135957Y154660D02*
X135986Y154631D01*
X135957Y154939D02*
X135986Y154910D01*
X135957Y154882D02*
X135986Y154911D01*
X135957Y155160D02*
X135986Y155190D01*
X135957Y155217D02*
X135986Y155188D01*
X135957Y155495D02*
X135986Y155466D01*
X135957Y155717D02*
X135986Y155746D01*
X135957Y155774D02*
X135986Y155745D01*
X135957Y155996D02*
X135986Y156025D01*
Y154213D02*
Y156257D01*
X135957Y156052D02*
X135986Y156023D01*
X135957Y156552D02*
X135989Y156584D01*
X135986Y154213D02*
X135996Y154167D01*
X135986Y156257D02*
X135994Y156297D01*
X136061Y154102D02*
X136102Y154093D01*
X135996Y154167D02*
X136022Y154128D01*
X136061Y154102D01*
X135957Y156274D02*
X135989Y156305D01*
X135957Y156331D02*
X135989Y156299D01*
Y156297D02*
Y158489D01*
X135957Y156831D02*
X135989Y156862D01*
X135957Y156609D02*
X135989Y156578D01*
X135957Y157388D02*
X135989Y157419D01*
X135957Y157444D02*
X135989Y157413D01*
X135957Y156887D02*
X135989Y156856D01*
X135957Y157109D02*
X135989Y157141D01*
X135957Y157666D02*
X135989Y157697D01*
X135957Y157723D02*
X135989Y157691D01*
X135957Y157944D02*
X135989Y157976D01*
X135957Y159336D02*
X135986Y159365D01*
X135957Y158001D02*
X135989Y157970D01*
X135957Y157166D02*
X135989Y157134D01*
X135957Y158223D02*
X135989Y158254D01*
X135957Y158279D02*
X135989Y158248D01*
X135957Y158558D02*
X136026Y158489D01*
X135957Y158836D02*
X136305Y158489D01*
X135957Y159115D02*
X136583Y158489D01*
X135957Y158501D02*
X136821Y159365D01*
X135985D02*
X136861Y158489D01*
X135957Y159058D02*
X136264Y159365D01*
X135957Y158780D02*
X136543Y159365D01*
X137106Y149906D02*
X137143Y149943D01*
X133693D02*
X137455D01*
X137385Y149906D02*
X137421Y149943D01*
X137334D02*
X137371Y149906D01*
X137455Y149943D02*
X137501Y149952D01*
X137540Y149979D01*
X137566Y150018D01*
Y150110D02*
X137576Y150064D01*
X137566Y150018D02*
X137576Y150064D01*
X137555Y150000D02*
X137649Y149906D01*
X132839Y149906D02*
X137719Y149906D01*
X137597Y150237D02*
X137823Y150011D01*
X137736Y150376D02*
X137962Y150150D01*
X137876Y150515D02*
X138101Y150289D01*
X137570Y150092D02*
X140053Y152575D01*
X137542Y150181D02*
X139769Y152408D01*
X137663Y149906D02*
X140053Y152297D01*
X138015Y150654D02*
X138241Y150428D01*
X137719Y149906D02*
X140053Y152241D01*
X138154Y150793D02*
X138380Y150567D01*
X138293Y150933D02*
X138519Y150707D01*
X138432Y151072D02*
X138658Y150846D01*
X138572Y151211D02*
X138797Y150985D01*
X138711Y151350D02*
X138937Y151124D01*
X138850Y151489D02*
X139076Y151263D01*
X138989Y151629D02*
X139215Y151403D01*
X139128Y151768D02*
X139354Y151542D01*
X139267Y151907D02*
X139493Y151681D01*
X139407Y152046D02*
X139633Y151820D01*
X139546Y152185D02*
X139772Y151959D01*
X139685Y152324D02*
X139911Y152099D01*
X139769Y152408D02*
X139794Y152447D01*
X139835Y152453D02*
X140050Y152238D01*
X139798Y152446D02*
X139844Y152455D01*
X139883Y152481D01*
X139909Y152520D01*
X139910Y156297D02*
X139918Y156257D01*
X139909Y152520D02*
X139918Y152566D01*
X139918Y152927D02*
X140053Y152791D01*
X139918Y152997D02*
X140053Y153132D01*
X139918Y152648D02*
X140053Y152513D01*
X139918Y152718D02*
X140053Y152854D01*
X139918Y156257D02*
X139918Y152566D01*
X139918Y153554D02*
X140053Y153689D01*
X139918Y153205D02*
X140053Y153070D01*
X139918Y153483D02*
X140053Y153348D01*
X139918Y153275D02*
X140053Y153410D01*
X139918Y154110D02*
X140053Y154246D01*
X139918Y154319D02*
X140053Y154183D01*
X139918Y153762D02*
X140053Y153626D01*
X139918Y154040D02*
X140053Y153905D01*
X139918Y153832D02*
X140053Y153967D01*
X139918Y154875D02*
X140053Y154740D01*
X139918Y154945D02*
X140053Y155081D01*
X139918Y154389D02*
X140053Y154524D01*
X139918Y154667D02*
X140053Y154802D01*
X139918Y154597D02*
X140053Y154462D01*
X139935Y156807D02*
X140053Y156689D01*
X139935Y156911D02*
X140053Y157030D01*
X139935Y156529D02*
X140053Y156410D01*
X139935Y156633D02*
X140053Y156751D01*
X139935Y157468D02*
X140053Y157586D01*
X139935Y157642D02*
X140053Y157524D01*
X139935Y157085D02*
X140053Y156967D01*
X139935Y157364D02*
X140053Y157245D01*
X139935Y157190D02*
X140053Y157308D01*
X139918Y155502D02*
X140053Y155638D01*
X139918Y155710D02*
X140053Y155575D01*
X139918Y155154D02*
X140053Y155018D01*
X139918Y155432D02*
X140053Y155297D01*
X139918Y155224D02*
X140053Y155359D01*
X139918Y155989D02*
X140053Y155854D01*
X139916Y156270D02*
X140053Y156132D01*
X139918Y155781D02*
X140053Y155916D01*
X139935Y156355D02*
X140053Y156473D01*
X139918Y156059D02*
X140053Y156194D01*
X137099Y159365D02*
X137975Y158489D01*
X137059D02*
X137935Y159365D01*
X137377D02*
X138253Y158489D01*
X137337D02*
X138213Y159365D01*
X136502Y158489D02*
X137378Y159365D01*
X136264D02*
X137140Y158489D01*
X136821Y159365D02*
X137696Y158489D01*
X136542Y159365D02*
X137418Y158489D01*
X136780D02*
X137656Y159365D01*
X137656D02*
X138532Y158489D01*
X137615D02*
X138493Y159367D01*
X138705Y159429D02*
X139645Y158489D01*
X137934Y159365D02*
X138810Y158489D01*
X138213Y159365D02*
X139088Y158489D01*
X138172D02*
X140053Y160370D01*
X137894Y158489D02*
X140053Y160649D01*
X138868Y159545D02*
X139924Y158489D01*
X138451D02*
X140053Y160092D01*
X138729Y158489D02*
X140053Y159813D01*
X136223Y158489D02*
X137099Y159365D01*
X135957D02*
X138420D01*
X138484Y159365D02*
X138609Y159390D01*
X138420Y159365D02*
X138484Y159365D01*
X138609Y159390D02*
X138727Y159438D01*
X138833Y159509D01*
X138923Y159600D01*
X138994Y159706D01*
X138983Y163094D02*
X139034Y162981D01*
X138490Y159366D02*
X139367Y158489D01*
X135989D02*
X139935D01*
X139007D02*
X140053Y159535D01*
X138994Y159706D02*
X139043Y159824D01*
X138990Y159700D02*
X140053Y158637D01*
X137991Y164319D02*
X140053Y162256D01*
X138270Y164319D02*
X140053Y162535D01*
X139021Y163011D02*
X140053Y161978D01*
X139034Y162981D02*
X139063Y162859D01*
X138548Y164319D02*
X140053Y162813D01*
X139935Y158303D02*
X140053Y158421D01*
X139935Y158477D02*
X140053Y158359D01*
X139935Y158025D02*
X140053Y158143D01*
X139935Y158199D02*
X140053Y158081D01*
X139043Y159824D02*
X139068Y159949D01*
X139068Y160013D02*
X139068Y159949D01*
X140053Y152241D02*
Y170583D01*
X139068Y160013D02*
X139068Y162770D01*
X139935Y156297D02*
Y158489D01*
X139564D02*
X140053Y158978D01*
X139286Y158489D02*
X140053Y159257D01*
X139935Y157746D02*
X140053Y157865D01*
X139843Y158489D02*
X140053Y158700D01*
X139935Y157920D02*
X140053Y157802D01*
X139060Y159910D02*
X140053Y158916D01*
X139066Y159939D02*
X140053Y160927D01*
X139068Y160180D02*
X140053Y159194D01*
X139068Y160737D02*
X140053Y159751D01*
X139068Y160458D02*
X140053Y159473D01*
X139068Y160219D02*
X140053Y161205D01*
X139068Y160498D02*
X140053Y161484D01*
X139068Y161015D02*
X140053Y160029D01*
X139068Y161572D02*
X140053Y160586D01*
X139068Y161850D02*
X140053Y160865D01*
X139063Y162859D02*
X139065Y162797D01*
X139068Y160776D02*
X140053Y161762D01*
X139068Y162129D02*
X140053Y161143D01*
X139068Y161055D02*
X140053Y162041D01*
X139068Y161333D02*
X140053Y162319D01*
X139068Y161611D02*
X140053Y162597D01*
X139068Y161294D02*
X140053Y160308D01*
X139068Y162686D02*
X140053Y161700D01*
X139068Y162407D02*
X140053Y161421D01*
X139068Y161890D02*
X140053Y162876D01*
X139036Y162972D02*
X140053Y163989D01*
X139068Y162168D02*
X140053Y163154D01*
X139068Y162725D02*
X140053Y163711D01*
X139068Y162447D02*
X140053Y163432D01*
X132854Y168900D02*
X132929Y168824D01*
X132639D02*
X132715Y168900D01*
X133132D02*
X133208Y168824D01*
X132917D02*
X132993Y168900D01*
X132082Y168824D02*
X132158Y168900D01*
X132018D02*
X132094Y168824D01*
X132575Y168900D02*
X132651Y168824D01*
X132297Y168900D02*
X132373Y168824D01*
X132361D02*
X132436Y168900D01*
X130607Y168824D02*
X135810Y168824D01*
X134031Y168824D02*
X134078Y168870D01*
X134588Y168824D02*
X134634Y168870D01*
X134275D02*
X134321Y168824D01*
X134553Y168870D02*
X134600Y168824D01*
X133474Y168824D02*
X133550Y168900D01*
X133196Y168824D02*
X133272Y168900D01*
X133996Y168870D02*
X134043Y168824D01*
X133718Y168870D02*
X133765Y168824D01*
X133752D02*
X133799Y168870D01*
X130607Y169198D02*
X130981Y168824D01*
X130607Y168919D02*
X130702Y168824D01*
X131247D02*
X131422Y168998D01*
Y168939D02*
X131462Y168900D01*
X130607Y169476D02*
X131259Y168824D01*
X130607Y169754D02*
X131422Y168939D01*
X130969Y168824D02*
X131422Y169277D01*
X130607Y169019D02*
X131422Y169834D01*
X130690Y168824D02*
X131422Y169555D01*
X133577Y168900D02*
X133607Y168880D01*
X131422Y168900D02*
X133577D01*
X134309Y168824D02*
X134356Y168870D01*
X133607Y168880D02*
X133653Y168870D01*
X135668D01*
X131525Y168824D02*
X131601Y168900D01*
X131462D02*
X131537Y168824D01*
X133410Y168900D02*
X133486Y168824D01*
X131740Y168900D02*
X131816Y168824D01*
X131804D02*
X131880Y168900D01*
X135957Y166853D02*
X135986Y166882D01*
X135957Y166909D02*
X135986Y166880D01*
X135957Y166574D02*
X135986Y166603D01*
X135957Y166631D02*
X135986Y166602D01*
X135957Y163420D02*
Y168676D01*
Y167466D02*
X135986Y167437D01*
X135957Y167131D02*
X135986Y167160D01*
X135957Y167410D02*
X135986Y167439D01*
X135957Y167188D02*
X135986Y167159D01*
X135957Y167745D02*
X135986Y167715D01*
X135957Y167966D02*
X135986Y167995D01*
X135957Y164404D02*
X135993Y164368D01*
X135957Y167688D02*
X135986Y167717D01*
X135957Y165796D02*
X135993Y165760D01*
X135957Y168023D02*
X135986Y167994D01*
X135957Y168245D02*
X135986Y168274D01*
X135986Y166547D02*
X135986Y168569D01*
X135957Y168301D02*
X135986Y168272D01*
X135957Y168523D02*
X135986Y168552D01*
X134866Y168824D02*
X134913Y168870D01*
X134831D02*
X134878Y168824D01*
X135144D02*
X135191Y168870D01*
X135110D02*
X135157Y168824D01*
X135423D02*
X135470Y168870D01*
X135388D02*
X135435Y168824D01*
X135667Y168870D02*
X135713Y168824D01*
X135668Y168870D02*
X135714Y168880D01*
X135753Y168906D01*
X135893Y168801D02*
X135935Y168760D01*
X135839Y168824D02*
X135893Y168801D01*
X135957Y168580D02*
X135986Y168551D01*
X135935Y168760D02*
X135957Y168705D01*
X135925Y168769D02*
X135985Y168829D01*
X135701Y168824D02*
X135846Y168968D01*
X135753Y168906D02*
X135779Y168945D01*
X135925Y168769D02*
X135985Y168829D01*
X135780Y169034D02*
X135789Y168991D01*
X135779Y168945D02*
X135789Y168991D01*
X130607Y169576D02*
X131422Y170390D01*
X130607Y170590D02*
X131422Y169775D01*
X130607Y170033D02*
X131422Y169218D01*
X130607Y169297D02*
X131422Y170112D01*
X130607Y171286D02*
X130607Y171350D01*
X130582Y171475D02*
X130607Y171350D01*
X130607Y168824D02*
Y171286D01*
Y170868D02*
X131422Y170053D01*
X130607Y169854D02*
X131422Y170669D01*
X130607Y170411D02*
X131422Y171226D01*
X130588Y171443D02*
X131422Y170610D01*
X130607Y170311D02*
X131422Y169496D01*
X130607Y171146D02*
X131422Y170331D01*
X130607Y170132D02*
X131422Y170947D01*
X130520Y171790D02*
X131422Y170888D01*
X130520Y172068D02*
X131422Y171167D01*
X130607Y170689D02*
X131422Y171504D01*
X130607Y171246D02*
X131422Y172061D01*
X130607Y170968D02*
X131422Y171782D01*
X130401Y171761D02*
X130462Y171699D01*
X130401Y171761D02*
X130520D01*
X130462Y171699D02*
X130533Y171593D01*
X130520Y171761D02*
Y172509D01*
X129921D02*
X130174Y172762D01*
X130106Y172761D02*
X130358Y172509D01*
X130028Y172761D02*
X130146D01*
X130479Y171674D02*
X131422Y172618D01*
X130334Y172811D02*
X131422Y171723D01*
X130520Y172347D02*
X131422Y171445D01*
X130533Y171593D02*
X130582Y171475D01*
X130575Y171492D02*
X131422Y172339D01*
X130472Y172951D02*
X131422Y172002D01*
X130199Y172509D02*
X130648Y172957D01*
X130520Y171994D02*
X131483Y172957D01*
X130478Y172509D02*
X130926Y172957D01*
X130520Y172273D02*
X131205Y172957D01*
X130745D02*
X131422Y172280D01*
X131023Y172957D02*
X131422Y172559D01*
Y168900D02*
Y172851D01*
X133614Y172834D02*
X133653Y172842D01*
X131301Y172957D02*
X131422Y172837D01*
X133528Y172957D02*
X133645Y172841D01*
X134085Y172957D02*
X134200Y172842D01*
X133807Y172957D02*
X133922Y172842D01*
X133874D02*
X133989Y172957D01*
X134987Y172842D02*
X135102Y172957D01*
X134920D02*
X135035Y172842D01*
X135199Y172957D02*
X135314Y172842D01*
X135266D02*
X135381Y172957D01*
X135544Y172842D02*
X135659Y172957D01*
X134152Y172842D02*
X134267Y172957D01*
X134364D02*
X134479Y172842D01*
X134709D02*
X134824Y172957D01*
X134430Y172842D02*
X134545Y172957D01*
X134642D02*
X134757Y172842D01*
X132415Y172957D02*
X132522Y172851D01*
X132212D02*
X132318Y172957D01*
X132693D02*
X132800Y172851D01*
X132490D02*
X132597Y172957D01*
X131655Y172851D02*
X131761Y172957D01*
X131580D02*
X131686Y172851D01*
X132137Y172957D02*
X132243Y172851D01*
X131858Y172957D02*
X131965Y172851D01*
X131933D02*
X132040Y172957D01*
X132768Y172851D02*
X132875Y172957D01*
X131422Y172851D02*
X133614D01*
X133250Y172957D02*
X133357Y172851D01*
X132972Y172957D02*
X133078Y172851D01*
X133047D02*
X133153Y172957D01*
X133603Y172851D02*
X133710Y172957D01*
X133325Y172851D02*
X133432Y172957D01*
X135822Y172842D02*
X135937Y172957D01*
X135477D02*
X135592Y172842D01*
X135756Y172957D02*
X135871Y172842D01*
X135957Y164125D02*
X136663Y163420D01*
X135957Y163790D02*
X136485Y164319D01*
X135957Y163569D02*
X136106Y163420D01*
X135957Y163847D02*
X136384Y163420D01*
X136043Y164319D02*
X136941Y163420D01*
X135957Y163512D02*
X136764Y164319D01*
X136321D02*
X137219Y163420D01*
X136144Y163420D02*
X137042Y164319D01*
X136422Y163420D02*
X137320Y164319D01*
X135957Y163420D02*
X138418Y163420D01*
X136599Y164319D02*
X137498Y163420D01*
X136979D02*
X137877Y164319D01*
X136701Y163420D02*
X137599Y164319D01*
X136878D02*
X137776Y163420D01*
X137156Y164319D02*
X138055Y163420D01*
X137257Y163420D02*
X138156Y164319D01*
X137713D02*
X138657Y163374D01*
X137435Y164319D02*
X138333Y163420D01*
X137536Y163420D02*
X138434Y164319D01*
X135957Y164682D02*
X135993Y164647D01*
X135957Y164904D02*
X135993Y164940D01*
X135957Y164347D02*
X135993Y164383D01*
X135957Y164626D02*
X135993Y164661D01*
X135957Y164961D02*
X135993Y164925D01*
X135957Y165182D02*
X135993Y165218D01*
Y164319D02*
Y166511D01*
X135957Y166074D02*
X135993Y166039D01*
X135957Y165239D02*
X135993Y165204D01*
X135957Y164069D02*
X136207Y164319D01*
X135957Y165461D02*
X135993Y165496D01*
Y164368D02*
X136043Y164319D01*
X135957Y165517D02*
X135993Y165482D01*
Y164319D02*
X140004D01*
X135957Y165739D02*
X135993Y165775D01*
X135957Y166018D02*
X135993Y166053D01*
X135957Y166296D02*
X135993Y166332D01*
X135957Y166353D02*
X135993Y166317D01*
X135986Y166547D02*
X135994Y166511D01*
X138718Y163350D02*
X138822Y163282D01*
X138602Y163396D02*
X138718Y163350D01*
X138912Y163196D02*
X138983Y163094D01*
X138822Y163282D02*
X138912Y163196D01*
X138092Y163420D02*
X138991Y164319D01*
X137814Y163420D02*
X138712Y164319D01*
X138480Y163420D02*
X138602Y163396D01*
X138418Y163420D02*
X138480Y163420D01*
X138371Y163420D02*
X139269Y164319D01*
X138802Y163295D02*
X139826Y164319D01*
X138619Y163390D02*
X139548Y164319D01*
X138827D02*
X140053Y163092D01*
X139940Y164319D02*
X140053Y164205D01*
X138941Y163155D02*
X140053Y164268D01*
X139105Y164319D02*
X140053Y163370D01*
X139383Y164319D02*
X140053Y163648D01*
X139662Y164319D02*
X140053Y163927D01*
X140004Y164319D02*
Y166511D01*
Y164533D02*
X140053Y164484D01*
X140004Y165089D02*
X140053Y165040D01*
X140004Y165054D02*
X140053Y165103D01*
X140004Y164497D02*
X140053Y164546D01*
X140004Y164811D02*
X140053Y164762D01*
X140004Y165610D02*
X140053Y165660D01*
X139999Y166511D02*
X140007Y166547D01*
X140004Y165368D02*
X140053Y165319D01*
X140004Y165646D02*
X140053Y165597D01*
X140004Y165332D02*
X140053Y165381D01*
X140004Y166203D02*
X140053Y166154D01*
X140004Y166167D02*
X140053Y166216D01*
X140004Y164775D02*
X140053Y164824D01*
X140004Y165889D02*
X140053Y165938D01*
X140004Y165925D02*
X140053Y165875D01*
X140004Y166481D02*
X140053Y166432D01*
X140004Y166446D02*
X140053Y166495D01*
X140007Y166757D02*
X140053Y166711D01*
X140007Y167036D02*
X140053Y166989D01*
X140007Y166726D02*
X140053Y166773D01*
X135986Y168569D02*
X135996Y168615D01*
X135780Y169034D02*
X136128Y168685D01*
X136022Y168654D02*
X136061Y168680D01*
X136107Y168690D01*
X137825Y172340D02*
X138061Y172576D01*
X137686Y172479D02*
X137922Y172715D01*
X138243Y171922D02*
X138479Y172158D01*
X137965Y172201D02*
X138200Y172436D01*
X138104Y172061D02*
X138339Y172297D01*
X138661Y171505D02*
X138896Y171740D01*
X138661Y171505D02*
X138896Y171740D01*
X139078Y171087D02*
X139314Y171323D01*
X138800Y171365D02*
X139035Y171601D01*
X138939Y171226D02*
X139175Y171462D01*
X137522Y172643D02*
X139749Y170416D01*
X137426Y172957D02*
X139920Y170463D01*
X137679Y172957D02*
X140053Y170583D01*
X138382Y171783D02*
X138618Y172019D01*
X138521Y171644D02*
X138757Y171880D01*
X136657Y172842D02*
X136772Y172957D01*
X136869D02*
X136984Y172842D01*
X137147Y172957D02*
X137262Y172842D01*
X136936D02*
X137051Y172957D01*
X136101Y172842D02*
X136216Y172957D01*
X136034D02*
X136149Y172842D01*
X136591Y172957D02*
X136706Y172842D01*
X136312Y172957D02*
X136427Y172842D01*
X136379D02*
X136494Y172957D01*
X137460Y172833D02*
X137499Y172807D01*
X133653Y172842D02*
X137414Y172842D01*
X137525Y172676D02*
X137534Y172722D01*
X137499Y172807D02*
X137525Y172768D01*
X137534Y172722D01*
X137214Y172842D02*
X137329Y172957D01*
X130475D02*
X137679D01*
X137547Y172618D02*
X137783Y172854D01*
X137414Y172842D02*
X137460Y172833D01*
X137474Y172824D02*
X137608Y172957D01*
X140007Y167283D02*
X140053Y167330D01*
X140007Y167593D02*
X140053Y167546D01*
X140007Y167005D02*
X140053Y167051D01*
X140007Y167314D02*
X140053Y167267D01*
X140007Y166547D02*
Y170349D01*
Y168149D02*
X140053Y168103D01*
X140007Y167562D02*
X140053Y167608D01*
X140007Y167840D02*
X140053Y167887D01*
X140007Y167871D02*
X140053Y167824D01*
X140007Y168706D02*
X140053Y168659D01*
X140007Y168675D02*
X140053Y168722D01*
X140007Y168118D02*
X140053Y168165D01*
X140007Y168397D02*
X140053Y168443D01*
X140007Y168428D02*
X140053Y168381D01*
X140007Y169232D02*
X140053Y169279D01*
X140007Y169541D02*
X140053Y169495D01*
X140007Y168985D02*
X140053Y168938D01*
X140007Y169263D02*
X140053Y169216D01*
X140007Y168953D02*
X140053Y169000D01*
X139763Y170396D02*
X139801Y170434D01*
X139840Y170460D01*
X139932D02*
X139971Y170434D01*
X139840Y170460D02*
X139886Y170470D01*
X139356Y170809D02*
X139592Y171044D01*
X139217Y170948D02*
X139453Y171184D01*
X139886Y170470D02*
X139932Y170460D01*
X139496Y170670D02*
X139731Y170905D01*
X139635Y170530D02*
X139871Y170766D01*
X140007Y170098D02*
X140053Y170051D01*
X140007Y170067D02*
X140053Y170114D01*
X140007Y169510D02*
X140053Y169557D01*
X140007Y169789D02*
X140053Y169835D01*
X140007Y169820D02*
X140053Y169773D01*
X139971Y170434D02*
X139998Y170395D01*
X139844Y170461D02*
X140010Y170627D01*
X140000Y170383D02*
X140053Y170330D01*
X139998Y170395D02*
X140007Y170349D01*
X140007Y170345D02*
X140053Y170392D01*
X120624Y153469D02*
X120802Y153292D01*
X120624Y153469D02*
Y153509D01*
X155644Y171934D02*
G03*
X155699Y172135I-341J201D01*
G01*
X156186Y172509D02*
G03*
X155870Y171934I0J-374D01*
G01*
X156620Y171934D02*
G03*
X156678Y172135I-316J201D01*
G01*
X157620Y171934D02*
G03*
X157678Y172135I-316J201D01*
G01*
X157186Y172509D02*
G03*
X156870Y171934I0J-374D01*
G01*
X157678Y172135D02*
G03*
X157304Y172509I-374J0D01*
G01*
X155186Y172530D02*
G03*
X154970Y171804I0J-395D01*
G01*
X154857Y172957D02*
G03*
X155186Y172761I329J177D01*
G01*
X156678Y172135D02*
G03*
X156304Y172509I-374J0D01*
G01*
X155699Y172135D02*
G03*
X155304Y172530I-395J0D01*
G01*
Y172761D02*
G03*
X155633Y172957I0J374D01*
G01*
X156304Y172761D02*
G03*
X156633Y172957I0J374D01*
G01*
X155857D02*
G03*
X156186Y172761I329J177D01*
G01*
X156856Y172957D02*
G03*
X157186Y172761I329J177D01*
G01*
X157304D02*
G03*
X157633Y172957I0J374D01*
G01*
X157857D02*
G03*
X158186Y172761I329J177D01*
G01*
X158304D02*
G03*
X158633Y172957I0J374D01*
G01*
X145153Y154136D02*
X145178Y154111D01*
X145153Y154293D02*
X145178Y154318D01*
X145153Y153857D02*
X145178Y153832D01*
X145153Y154015D02*
X145178Y154040D01*
X145153Y154850D02*
X145178Y154875D01*
X145153Y154971D02*
X145178Y154946D01*
X145153Y154414D02*
X145178Y154389D01*
X145153Y154693D02*
X145178Y154667D01*
X145153Y154571D02*
X145178Y154597D01*
X145153Y152901D02*
X145178Y152926D01*
X145153Y153022D02*
X145178Y152997D01*
X145153Y152344D02*
X145259Y152451D01*
X145153Y152744D02*
X145178Y152719D01*
X145153Y152623D02*
X145178Y152648D01*
X145153Y153579D02*
X145178Y153554D01*
X145153Y153736D02*
X145178Y153761D01*
X145153Y153180D02*
X145178Y153205D01*
X145153Y153458D02*
X145178Y153483D01*
X145153Y153301D02*
X145178Y153275D01*
X145153Y155407D02*
X145178Y155432D01*
X145153Y155528D02*
X145178Y155503D01*
X145153Y155128D02*
X145178Y155153D01*
X145153Y155249D02*
X145178Y155224D01*
X145153Y156084D02*
X145178Y156059D01*
X145153Y157355D02*
X145180Y157383D01*
X145153Y155685D02*
X145178Y155710D01*
X145153Y155963D02*
X145178Y155989D01*
X145153Y155806D02*
X145178Y155781D01*
X145153Y157912D02*
X145180Y157940D01*
X145153Y158033D02*
X145180Y158006D01*
X145153Y157476D02*
X145180Y157449D01*
X145153Y157755D02*
X145180Y157727D01*
X145153Y157634D02*
X145180Y157661D01*
X145153Y158868D02*
X145545Y158476D01*
X145153Y159147D02*
X145823Y158476D01*
X145153Y158191D02*
X145180Y158218D01*
X145153Y158312D02*
X145180Y158284D01*
X145153Y158590D02*
X145266Y158476D01*
X145658Y151736D02*
X145848Y151926D01*
X145518Y151875D02*
X145709Y152066D01*
X145936Y151458D02*
X146126Y151648D01*
X145797Y151597D02*
X145987Y151787D01*
X145240Y152154D02*
X145431Y152344D01*
X145298Y152443D02*
X145344Y152452D01*
X145379Y152014D02*
X145570Y152205D01*
X145361Y152463D02*
X145370Y152418D01*
X145396Y152379D01*
X146771Y150622D02*
X146962Y150813D01*
X146632Y150762D02*
X146822Y150952D01*
X147189Y150205D02*
X147379Y150395D01*
X146910Y150483D02*
X147101Y150674D01*
X147050Y150344D02*
X147240Y150534D01*
X146214Y151179D02*
X146405Y151370D01*
X146075Y151318D02*
X146266Y151509D01*
X146493Y150901D02*
X146683Y151091D01*
X146354Y151040D02*
X146544Y151230D01*
X146354Y151040D02*
X146544Y151230D01*
X145153Y156520D02*
X145180Y156548D01*
X145153Y156641D02*
X145180Y156614D01*
X145178Y152564D02*
Y156245D01*
X145153Y156363D02*
X145180Y156335D01*
X145153Y156799D02*
X145180Y156826D01*
X145153Y156920D02*
X145180Y156892D01*
Y156284D02*
Y158476D01*
X145153Y157198D02*
X145180Y157171D01*
X145153Y157077D02*
X145180Y157104D01*
X145178Y152564D02*
X145187Y152518D01*
X145153Y156242D02*
X145183Y156272D01*
X145252Y152452D02*
X145298Y152443D01*
X145187Y152518D02*
X145213Y152479D01*
X145252Y152452D01*
X145178Y156245D02*
X145185Y156284D01*
X145717Y158476D02*
X146636Y159395D01*
X145995Y158476D02*
X146897Y159378D01*
X146722D02*
X146784D01*
X146273Y158476D02*
X147176Y159378D01*
X145153Y159582D02*
X146134Y160564D01*
X145153Y159861D02*
X146134Y160843D01*
X145153Y159425D02*
X146101Y158476D01*
X145153Y159304D02*
X146134Y160286D01*
X145153Y160696D02*
X146134Y161678D01*
X145153Y161931D02*
X146134Y160949D01*
X145153Y161095D02*
X146134Y160113D01*
X145153Y161652D02*
X146134Y160670D01*
X145153Y160139D02*
X146134Y161121D01*
X145153Y159982D02*
X146658Y158476D01*
X145153Y159026D02*
X146136Y160009D01*
X145153Y158469D02*
X146289Y159605D01*
X145153Y158747D02*
X146185Y159780D01*
X145153Y159704D02*
X146380Y158476D01*
X145153Y161374D02*
X146134Y160392D01*
X145153Y160418D02*
X146134Y161400D01*
X145153Y160260D02*
X146936Y158476D01*
X145153Y160817D02*
X146181Y159789D01*
X145153Y160539D02*
X147215Y158476D01*
X145153Y161810D02*
X146134Y162792D01*
X145153Y164037D02*
X145500Y164385D01*
X145153Y161531D02*
X146134Y162513D01*
X145153Y162766D02*
X146134Y161784D01*
X145153Y164593D02*
X145180Y164621D01*
X145153Y164714D02*
X145180Y164687D01*
X145153Y163480D02*
X146057Y164385D01*
X145153Y164436D02*
X145180Y164409D01*
X145153Y163758D02*
X145779Y164385D01*
X145153Y162487D02*
X146134Y161505D01*
X145153Y163044D02*
X146134Y162062D01*
X145153Y160974D02*
X146134Y161956D01*
X145153Y161253D02*
X146134Y162235D01*
X145153Y162209D02*
X146134Y161227D01*
X145153Y162645D02*
X146892Y164385D01*
X145153Y162923D02*
X146614Y164385D01*
X145153Y163323D02*
X146134Y162341D01*
X145153Y163601D02*
X146134Y162619D01*
X145153Y162366D02*
X147171Y164385D01*
X146134Y160028D02*
Y162786D01*
Y162850D01*
X146139Y159939D02*
X146168Y159818D01*
X146137Y160001D02*
X146139Y159939D01*
X145153Y163879D02*
X146142Y162889D01*
X145153Y164158D02*
X146212Y163098D01*
X145153Y152241D02*
Y170585D01*
X146134Y162850D02*
X146159Y162975D01*
X146208Y163093D01*
X145438Y158476D02*
X146440Y159478D01*
X146290Y159603D02*
X146380Y159516D01*
X146600Y159402D02*
X146722Y159378D01*
X146380Y159516D02*
X146484Y159449D01*
X146600Y159402D01*
X146168Y159818D02*
X146219Y159705D01*
X145153Y162088D02*
X147449Y164385D01*
X146219Y159705D02*
X146290Y159603D01*
X146208Y163093D02*
X146279Y163199D01*
X146369Y163289D01*
X145153Y164315D02*
X145222Y164385D01*
X145153Y164872D02*
X145180Y164899D01*
Y164409D02*
X145204Y164385D01*
X145153Y164993D02*
X145180Y164965D01*
X145153Y165150D02*
X145180Y165178D01*
X145153Y165271D02*
X145180Y165244D01*
Y164385D02*
Y166577D01*
X145153Y165550D02*
X145180Y165522D01*
X145153Y165429D02*
X145180Y165456D01*
X145204Y164385D02*
X146334Y163254D01*
X146369Y163289D02*
X146475Y163360D01*
X146593Y163409D01*
X146718Y163434D01*
X146782Y163434D01*
X145153Y163202D02*
X146336Y164385D01*
X145482D02*
X146498Y163369D01*
X145761Y164385D02*
X146713Y163433D01*
X146039Y164385D02*
X146990Y163434D01*
X146318Y164385D02*
X147268Y163434D01*
X147717Y149916D02*
X147763Y149907D01*
X147678Y149942D02*
X147717Y149916D01*
X151493Y149907D02*
X151528Y149914D01*
X147763Y149907D02*
X151493D01*
X145153Y152241D02*
X147487Y149906D01*
X145153Y152465D02*
X147712Y149906D01*
X147467Y149926D02*
X147666Y150125D01*
X147642Y150027D02*
X147652Y149981D01*
X147678Y149942D01*
X147487Y149906D02*
X160997Y149906D01*
X151528Y149911D02*
X153720D01*
Y150022D02*
X153836Y149906D01*
X153720Y150300D02*
X154114Y149906D01*
X153720Y150579D02*
X154393Y149906D01*
X153720Y151692D02*
X155506Y149906D01*
X153720Y151971D02*
X155785Y149906D01*
X153720Y150857D02*
X154671Y149906D01*
X153720Y151136D02*
X154950Y149906D01*
X153720Y151414D02*
X155228Y149906D01*
X147328Y150066D02*
X147518Y150256D01*
X147623Y150152D02*
X147662Y150126D01*
X147642Y150027D02*
X147652Y150073D01*
X147678Y150112D01*
X145396Y152379D02*
X147623Y150152D01*
X153720Y150890D02*
X154696Y151865D01*
X153720Y150612D02*
X154696Y151587D01*
X153720Y151725D02*
X154696Y152701D01*
X153720Y151169D02*
X154696Y152144D01*
X153720Y152004D02*
X154696Y152979D01*
X153720Y153084D02*
X154696Y152109D01*
X153720Y150055D02*
X154820Y151155D01*
X153720Y152806D02*
X154696Y151831D01*
X153720Y150334D02*
X154725Y151338D01*
X153720Y153641D02*
X154696Y152666D01*
X153720Y152839D02*
X154696Y153814D01*
X153720Y152282D02*
X154696Y153257D01*
X153720Y152561D02*
X154696Y153536D01*
X153720Y153363D02*
X154696Y152388D01*
X154685Y149906D02*
X155669Y150890D01*
X154407Y149906D02*
X155391Y150890D01*
X155358D02*
X156342Y149906D01*
X154964D02*
X155948Y150890D01*
X154128Y149906D02*
X155142Y150920D01*
X153850Y149906D02*
X154959Y151016D01*
X155520Y149906D02*
X156504Y150890D01*
X154943Y151026D02*
X156063Y149906D01*
X155242D02*
X156226Y150890D01*
X155914D02*
X156898Y149906D01*
X155636Y150890D02*
X156620Y149906D01*
X157306Y150890D02*
X158290Y149906D01*
X156077D02*
X157061Y150890D01*
X157028D02*
X158012Y149906D01*
X157191D02*
X158179Y150895D01*
X155799Y149906D02*
X156783Y150890D01*
X157747Y149906D02*
X159622Y151781D01*
X157585Y150890D02*
X158569Y149906D01*
X157469D02*
X159622Y152059D01*
X154769Y151231D02*
X154840Y151125D01*
X154720Y151349D02*
X154769Y151231D01*
X154930Y151035D02*
X155036Y150964D01*
X154840Y151125D02*
X154930Y151035D01*
X153720Y151447D02*
X154696Y152422D01*
X153720Y152528D02*
X154696Y151552D01*
X153720Y152249D02*
X154832Y151138D01*
X154696Y151474D02*
X154696Y151538D01*
X154696Y151474D02*
X154720Y151349D01*
X156471Y150890D02*
X157455Y149906D01*
X155343Y150890D02*
X158101D01*
X156912Y149906D02*
X157896Y150890D01*
X156634Y149906D02*
X157618Y150890D01*
X156750D02*
X157733Y149906D01*
X155154Y150915D02*
X155279Y150890D01*
X155036Y150964D02*
X155154Y150915D01*
X156356Y149906D02*
X157339Y150890D01*
X155279Y150890D02*
X155343Y150890D01*
X156193D02*
X157177Y149906D01*
X146830Y158476D02*
X147732Y159378D01*
X146552Y158476D02*
X147454Y159378D01*
X147109Y158476D02*
X148011Y159378D01*
X146869D02*
X147772Y158476D01*
X147148Y159378D02*
X148050Y158476D01*
X146545Y159424D02*
X147493Y158476D01*
X147665D02*
X148568Y159378D01*
X147387Y158476D02*
X148289Y159378D01*
X147426D02*
X148328Y158476D01*
X147944D02*
X148846Y159378D01*
X145180Y158476D02*
X149225D01*
X148779D02*
X149245Y158942D01*
X147983Y159378D02*
X148885Y158476D01*
X148501D02*
X149245Y159220D01*
X148222Y158476D02*
X149124Y159378D01*
X147705D02*
X148607Y158476D01*
X148261Y159378D02*
X149164Y158476D01*
X148818Y159378D02*
X149245Y158952D01*
X148540Y159378D02*
X149245Y158674D01*
X147431Y164385D02*
X148382Y163434D01*
X147334D02*
X148284Y164385D01*
X147709D02*
X148660Y163434D01*
X147612D02*
X148563Y164385D01*
X146777Y163434D02*
X147728Y164385D01*
X146596D02*
X147547Y163434D01*
X147153Y164385D02*
X148103Y163434D01*
X146874Y164385D02*
X147825Y163434D01*
X147055D02*
X148006Y164385D01*
X146784Y159378D02*
X149245D01*
X146782Y163434D02*
X149247D01*
X148726D02*
X149246Y163955D01*
X148169Y163434D02*
X149119Y164385D01*
X148447Y163434D02*
X149246Y164233D01*
X147890Y163434D02*
X148841Y164385D01*
X145180D02*
X149225D01*
X147988D02*
X148939Y163434D01*
X148266Y164385D02*
X149217Y163434D01*
X148545Y164385D02*
X149246Y163683D01*
X149160Y153966D02*
X149217Y153909D01*
X149195Y153991D02*
X149237Y153948D01*
X149219Y153922D02*
X149246Y153961D01*
X149285Y153987D01*
X149331Y153996D01*
X149192Y153987D02*
X149218Y154026D01*
X151493Y153996D02*
X151528Y153989D01*
X149304Y153991D02*
X149329Y154015D01*
X149304Y153991D02*
X149329Y154015D01*
X153720Y153674D02*
X154047Y154001D01*
X153720Y153953D02*
X153768Y154001D01*
X153720Y149911D02*
Y153991D01*
Y153396D02*
X154325Y154001D01*
X153720Y153919D02*
X154696Y152944D01*
X153720Y153117D02*
X154604Y154001D01*
X153918D02*
X154696Y153223D01*
Y151538D02*
Y154001D01*
X154474D02*
X154696Y153780D01*
X154196Y154001D02*
X154696Y153501D01*
X149218Y154026D02*
X149228Y154072D01*
X149164Y158476D02*
X149225Y158415D01*
X149227Y156245D02*
X149228Y154072D01*
X149220Y156284D02*
X149227Y156245D01*
X149057Y158476D02*
X149245Y158664D01*
X149097Y159378D02*
X149245Y159230D01*
Y154148D02*
Y159378D01*
X149225Y164385D02*
Y166577D01*
Y156284D02*
Y158476D01*
X149309Y154023D02*
X149363Y154001D01*
X149267Y154065D02*
X149309Y154023D01*
X151528Y153991D02*
X153720D01*
X149331Y153996D02*
X151493D01*
X149392Y154001D02*
X154696Y154001D01*
X149004Y163434D02*
X149246Y163676D01*
X148823Y164385D02*
X149246Y163961D01*
X149245Y154119D02*
X149267Y154065D01*
X149101Y164385D02*
X149246Y164240D01*
X149245Y165543D02*
X149247Y163434D01*
X145153Y166542D02*
X145180Y166570D01*
X145153Y166663D02*
X145178Y166638D01*
X145153Y166264D02*
X145180Y166291D01*
X145153Y166385D02*
X145180Y166357D01*
X145153Y167220D02*
X145178Y167195D01*
X145153Y167377D02*
X145178Y167402D01*
X145153Y166821D02*
X145178Y166846D01*
X145153Y167099D02*
X145178Y167124D01*
X145153Y166942D02*
X145178Y166917D01*
X145153Y165707D02*
X145180Y165734D01*
X145153Y165828D02*
X145180Y165801D01*
X145153Y165985D02*
X145180Y166013D01*
X145153Y166106D02*
X145180Y166079D01*
X145178Y166616D02*
X145185Y166577D01*
X149212D02*
X149220Y166616D01*
Y166712D02*
X149247Y166739D01*
X149220Y166771D02*
X149247Y166744D01*
X149220Y167050D02*
X149249Y167021D01*
X149220Y166991D02*
X149249Y167020D01*
X145153Y167777D02*
X145178Y167752D01*
X145153Y167934D02*
X145178Y167959D01*
X145153Y167498D02*
X145178Y167473D01*
X145153Y167656D02*
X145178Y167681D01*
X145153Y168491D02*
X145178Y168516D01*
X145153Y168612D02*
X145178Y168587D01*
X145153Y168055D02*
X145178Y168030D01*
X145153Y168334D02*
X145178Y168308D01*
X145153Y168212D02*
X145178Y168238D01*
X149185Y168679D02*
X149211Y168640D01*
X149146Y168705D02*
X149185Y168679D01*
X149220Y167826D02*
X149246Y167852D01*
X149211Y168640D02*
X149220Y168594D01*
X149206Y168647D02*
X149243Y168684D01*
X145153Y168769D02*
X145178Y168794D01*
X145153Y168890D02*
X145178Y168865D01*
X149151Y168790D02*
X149243Y168697D01*
X149069Y168708D02*
X149100Y168714D01*
X149146Y168705D01*
X149220Y167607D02*
X149247Y167580D01*
X149220Y167885D02*
X149246Y167859D01*
X149225Y166439D02*
X149247Y166460D01*
X149225Y166488D02*
X149247Y166467D01*
X149220Y166616D02*
Y168594D01*
Y168442D02*
X149244Y168418D01*
X149220Y168104D02*
X149245Y168129D01*
X149220Y168383D02*
X149244Y168406D01*
X149220Y168163D02*
X149245Y168139D01*
X149245Y165543D02*
X149247Y166816D01*
X149350D01*
Y166864D01*
X149250Y166864D02*
X149350Y166864D01*
X149323Y166816D02*
X149350Y166842D01*
X149220Y167269D02*
X149248Y167297D01*
X149220Y167328D02*
X149248Y167300D01*
X149243Y168676D02*
X149250Y166864D01*
X149220Y167547D02*
X149247Y167575D01*
X149243Y168705D02*
X149265Y168760D01*
X149307Y168801D01*
X149361Y168824D01*
X149940Y168824D02*
X149980Y168864D01*
X149661Y168824D02*
X149702Y168864D01*
X149383Y168824D02*
X149431Y168872D01*
X149388Y168899D02*
X149427Y168873D01*
X149911Y168864D02*
X149952Y168824D01*
X149427Y168873D02*
X149473Y168864D01*
X149633Y168864D02*
X149673Y168824D01*
X151025Y168864D02*
X151065Y168824D01*
X150775D02*
X150815Y168864D01*
X151331Y168824D02*
X151372Y168864D01*
X151053Y168824D02*
X151094Y168864D01*
X151303D02*
X151344Y168824D01*
X150218Y168824D02*
X150258Y168864D01*
X150190D02*
X150230Y168824D01*
X150746Y168864D02*
X150787Y168824D01*
X150468Y168864D02*
X150508Y168824D01*
X150496D02*
X150537Y168864D01*
X145153Y169326D02*
X145178Y169351D01*
X145153Y169447D02*
X145178Y169422D01*
X145153Y169048D02*
X145178Y169073D01*
X145153Y169169D02*
X145178Y169144D01*
X145153Y169604D02*
X145178Y169630D01*
X145153Y169725D02*
X145178Y169700D01*
Y166616D02*
Y170484D01*
X145153Y170004D02*
X145178Y169979D01*
X145153Y169883D02*
X145178Y169908D01*
X145153Y170161D02*
X145178Y170186D01*
X145153Y170282D02*
X145178Y170257D01*
X145153Y170440D02*
X145178Y170465D01*
X145153Y170561D02*
X145186Y170527D01*
X145178Y170484D02*
X145187Y170530D01*
X145279Y170712D02*
X145500Y170491D01*
X145187Y170530D02*
X145213Y170569D01*
X145383D02*
X145482Y170471D01*
X145484Y170475D02*
X147711Y172702D01*
X145472Y170481D02*
X147775Y172783D01*
X145213Y170569D02*
X145252Y170596D01*
X145298Y170605D01*
X145344Y170596D02*
X145383Y170569D01*
X145298Y170605D02*
X145344Y170596D01*
X145419Y170851D02*
X145640Y170630D01*
X145558Y170991D02*
X145779Y170770D01*
X145697Y171130D02*
X145918Y170909D01*
X145836Y171269D02*
X146057Y171048D01*
X145975Y171408D02*
X146196Y171187D01*
X146115Y171547D02*
X146336Y171326D01*
X146254Y171686D02*
X146475Y171465D01*
X146393Y171826D02*
X146614Y171605D01*
X146532Y171965D02*
X146753Y171744D01*
X146671Y172104D02*
X146892Y171883D01*
X145153Y170585D02*
X147525Y172957D01*
X145314Y170601D02*
X147670Y172957D01*
X146811Y172243D02*
X147032Y172022D01*
X146950Y172382D02*
X147171Y172161D01*
X147089Y172522D02*
X147310Y172301D01*
X147228Y172661D02*
X147449Y172440D01*
X147367Y172800D02*
X147588Y172579D01*
X147711Y172702D02*
X147751Y172728D01*
X147766Y172741D02*
X147775Y172787D01*
X147507Y172939D02*
X147731Y172715D01*
X147767Y172957D02*
X147867Y172857D01*
X147775Y172787D02*
X147801Y172826D01*
X147841Y172852D01*
X147887Y172861D01*
X149069Y168708D02*
X149355Y168994D01*
X148880Y172957D02*
X148976Y172861D01*
X149290Y168929D02*
X149395Y168824D01*
X149353Y168985D02*
X149362Y168938D01*
X149388Y168899D01*
X147844Y172853D02*
X147949Y172957D01*
X148045D02*
X148141Y172861D01*
X148688D02*
X148784Y172957D01*
X148131Y172861D02*
X148227Y172957D01*
X148602D02*
X148698Y172861D01*
X149523D02*
X149619Y172957D01*
X149437D02*
X149533Y172861D01*
X149801D02*
X149897Y172957D01*
X149716D02*
X149811Y172861D01*
X148409D02*
X148505Y172957D01*
X148324D02*
X148420Y172861D01*
X149245D02*
X149341Y172957D01*
X148966Y172861D02*
X149062Y172957D01*
X149159D02*
X149255Y172861D01*
X150829Y172957D02*
X150925Y172861D01*
X150636D02*
X150732Y172957D01*
X151193Y172861D02*
X151289Y172957D01*
X150915Y172861D02*
X151011Y172957D01*
X151107D02*
X151203Y172861D01*
X150080D02*
X150176Y172957D01*
X149994D02*
X150090Y172861D01*
X150551Y172957D02*
X150647Y172861D01*
X150272Y172957D02*
X150368Y172861D01*
X150358D02*
X150454Y172957D01*
X151610Y168824D02*
X151659Y168873D01*
X151581Y168864D02*
X151622Y168824D01*
X151888D02*
X151937Y168873D01*
X151851D02*
X151900Y168824D01*
X152167Y168824D02*
X152216Y168873D01*
X152130D02*
X152179Y168824D01*
X152686Y168873D02*
X152736Y168824D01*
X152408Y168873D02*
X152457Y168824D01*
X152445D02*
X152494Y168873D01*
X149391Y168824D02*
X154709Y168824D01*
X152723Y168824D02*
X152773Y168873D01*
X153243D02*
X153292Y168824D01*
X152965Y168873D02*
X153014Y168824D01*
X153002D02*
X153051Y168873D01*
X153522D02*
X153571Y168824D01*
X153280D02*
X153329Y168873D01*
X153559Y168824D02*
X153608Y168873D01*
X153809Y169142D02*
X154127Y168824D01*
X153809Y169699D02*
X154684Y168824D01*
X151580Y168864D02*
X151624Y168873D01*
X149473Y168864D02*
X151580Y168864D01*
X153800Y168873D02*
X153849Y168824D01*
X151624Y168873D02*
X153809D01*
Y170256D02*
X154709Y169356D01*
X153809Y169631D02*
X154709Y170531D01*
X153809Y169074D02*
X154709Y169974D01*
X153809Y169353D02*
X154709Y170253D01*
X153809Y169977D02*
X154709Y169077D01*
X153809Y170188D02*
X154709Y171088D01*
X153809Y171091D02*
X154709Y170191D01*
X153809Y170534D02*
X154709Y169634D01*
X153809Y170813D02*
X154709Y169912D01*
X153809Y169909D02*
X154709Y170810D01*
X153809Y171301D02*
X154849Y172341D01*
X153809Y172483D02*
X154759Y171533D01*
X153809Y170466D02*
X154714Y171371D01*
X153809Y171926D02*
X154709Y171026D01*
X153809Y171369D02*
X154709Y170469D01*
X154115Y168824D02*
X154709Y169418D01*
X153809Y169421D02*
X154406Y168824D01*
X154672D02*
X154709Y168861D01*
X154394Y168824D02*
X154709Y169139D01*
X153809Y171648D02*
X154709Y170747D01*
X153809Y172204D02*
X154709Y171304D01*
X153837Y168824D02*
X154709Y169696D01*
X154709Y171346D02*
X154709Y171284D01*
Y168824D02*
Y171284D01*
X154709Y171346D02*
X154733Y171469D01*
X154779Y171584D01*
X154847Y171689D01*
X154933Y171778D01*
X154970Y171804D01*
X153809Y170744D02*
X154913Y171849D01*
X153809Y171023D02*
X154807Y172021D01*
X157782Y171934D02*
X157812Y171963D01*
X157647Y171986D02*
X157699Y171934D01*
X157620D02*
X157812D01*
X155644Y171934D02*
X155870D01*
X155834D02*
X155857Y171957D01*
X155678Y172006D02*
X155750Y171934D01*
X155664Y172299D02*
X155812Y172150D01*
X155694Y172073D02*
X155817Y172195D01*
X156620Y171934D02*
X156870D01*
X156669D02*
X156816Y172081D01*
X156678Y172120D02*
X156863Y171934D01*
X157659Y172252D02*
X157812Y172099D01*
X157677Y172107D02*
X157812Y172242D01*
Y172509D02*
X158678D01*
X152221Y172957D02*
X152328Y172851D01*
X152018D02*
X152124Y172957D01*
X153809Y168873D02*
Y172851D01*
X152499Y172957D02*
X152606Y172851D01*
X153809Y172415D02*
X154352Y172957D01*
X153809Y172693D02*
X154073Y172957D01*
X153891D02*
X154800Y172049D01*
X153809Y172136D02*
X154630Y172957D01*
X154170D02*
X154827Y172300D01*
X153809Y172761D02*
X154864Y171706D01*
X154980Y172472D02*
X155268Y172761D01*
X155186D02*
X155304D01*
X155186Y172530D02*
X155304D01*
X153809Y171580D02*
X155026Y172796D01*
X153809Y171858D02*
X154876Y172925D01*
X154448Y172957D02*
X154952Y172453D01*
X154727Y172957D02*
X155155Y172529D01*
X151386Y172957D02*
X151482Y172861D01*
X147887D02*
X151580D01*
X151626Y172852D01*
X151472Y172861D02*
X151568Y172957D01*
X151739Y172851D02*
X151846Y172957D01*
X151664D02*
X151771Y172851D01*
X152574D02*
X152681Y172957D01*
X151943D02*
X152049Y172851D01*
X152296D02*
X152403Y172957D01*
X152778D02*
X152885Y172851D01*
X151629D02*
X153809D01*
X153131D02*
X153238Y172957D01*
X152853Y172851D02*
X152960Y172957D01*
X153056D02*
X153163Y172851D01*
X153335Y172957D02*
X153441Y172851D01*
X147525Y172957D02*
X154857D01*
X153688Y172851D02*
X153795Y172957D01*
X153410Y172851D02*
X153516Y172957D01*
X153613D02*
X153720Y172851D01*
X155202Y172761D02*
X155468Y172494D01*
X155450Y172790D02*
X155884Y172356D01*
X155526Y172462D02*
X155928Y172864D01*
X155656Y172313D02*
X156111Y172768D01*
X155606Y172913D02*
X156040Y172479D01*
X156125Y172504D02*
X156393Y172771D01*
X156670Y172213D02*
X157217Y172761D01*
X156315Y172761D02*
X156829Y172247D01*
X157812Y171934D02*
Y172509D01*
X157148Y172762D02*
X157421Y172490D01*
X157413Y172777D02*
X157812Y172378D01*
X156523Y172831D02*
X156939Y172415D01*
X156397Y172497D02*
X156857Y172957D01*
X157622Y172331D02*
X158070Y172779D01*
X156573Y172395D02*
X156993Y172814D01*
X157479Y172465D02*
X157903Y172890D01*
X155964Y172834D02*
X156289Y172509D01*
X155633Y172957D02*
X155857D01*
X156186Y172509D02*
X156304D01*
X156186Y172761D02*
X156304D01*
X155316Y172530D02*
X155743Y172957D01*
X155840D02*
X155885Y172912D01*
X156633Y172957D02*
X156856D01*
X157583Y172885D02*
X157959Y172509D01*
X157186Y172761D02*
X157304D01*
X157186Y172509D02*
X157304D01*
X156675Y172957D02*
X157128Y172504D01*
X157243Y172509D02*
X157692Y172957D01*
X157789D02*
X158237Y172509D01*
X157633Y172957D02*
X157857D01*
X158861Y149906D02*
X159622Y150667D01*
X157863Y150890D02*
X158847Y149906D01*
X159418D02*
X159622Y150110D01*
X159139Y149906D02*
X159622Y150389D01*
X158139Y150893D02*
X159125Y149906D01*
X158026D02*
X159622Y151502D01*
X158363Y150947D02*
X159404Y149906D01*
X158534Y151054D02*
X159622Y149967D01*
X158583Y149906D02*
X159622Y150945D01*
X159931Y149936D02*
X159961Y149906D01*
X159622Y149936D02*
X161814D01*
X160253Y149906D02*
X160282Y149936D01*
X159975Y149906D02*
X160004Y149936D01*
X160210D02*
X160239Y149906D01*
X158304D02*
X159622Y151224D01*
X158659Y151207D02*
X159622Y150245D01*
X159696Y149906D02*
X159726Y149936D01*
X159622Y149967D02*
X159653Y149936D01*
X159682Y149906D01*
X158128Y150893D02*
X158190Y150895D01*
X158311Y150924D01*
X158425Y150974D01*
X158527Y151046D01*
X158613Y151136D01*
X158681Y151240D01*
X158727Y151356D01*
X158751Y151540D02*
X158751Y151478D01*
X158727Y151356D02*
X158751Y151478D01*
X158737Y151408D02*
X159622Y150524D01*
X158748Y151464D02*
X159622Y152337D01*
X158751Y151673D02*
X159622Y150802D01*
X158751Y152230D02*
X159622Y151359D01*
X158751Y151951D02*
X159622Y151080D01*
X158751Y151745D02*
X159622Y152616D01*
X158751Y152023D02*
X159622Y152894D01*
X158751Y152508D02*
X159622Y151637D01*
X158751Y153065D02*
X159622Y152194D01*
X158751Y152786D02*
X159622Y151916D01*
X160810Y149906D02*
X160839Y149936D01*
X160766D02*
X160796Y149906D01*
X160997Y149761D02*
X160997Y149906D01*
X160997Y149761D02*
Y149906D01*
X160531D02*
X160561Y149936D01*
X160488D02*
X160517Y149906D01*
X163821Y149943D02*
X163858Y149906D01*
X163543Y149943D02*
X163580Y149906D01*
X163594D02*
X163631Y149943D01*
X164707Y149906D02*
X164744Y149943D01*
X164656D02*
X164693Y149906D01*
X165213Y149943D02*
X165250Y149906D01*
X164935Y149943D02*
X164972Y149906D01*
X164986D02*
X165022Y149943D01*
X164099D02*
X164136Y149906D01*
X163872D02*
X163909Y149943D01*
X164429Y149906D02*
X164466Y149943D01*
X164150Y149906D02*
X164187Y149943D01*
X164378D02*
X164415Y149906D01*
X161088Y149906D02*
X161118Y149936D01*
X161045D02*
X161074Y149906D01*
X161367D02*
X161396Y149936D01*
X161323D02*
X161353Y149906D01*
X161645Y149906D02*
X161674Y149936D01*
X161602D02*
X161631Y149906D01*
X161923D02*
X161960Y149943D01*
X161814Y149951D02*
X161850Y149943D01*
X161872D02*
X161909Y149906D01*
X162986Y149943D02*
X163023Y149906D01*
X162758D02*
X162795Y149943D01*
X163315Y149906D02*
X163352Y149943D01*
X163037Y149906D02*
X163074Y149943D01*
X163264D02*
X163301Y149906D01*
X162202Y149906D02*
X162239Y149943D01*
X162151D02*
X162188Y149906D01*
X162708Y149943D02*
X162744Y149906D01*
X162429Y149943D02*
X162466Y149906D01*
X162480D02*
X162517Y149943D01*
X158751Y152302D02*
X159622Y153173D01*
X158751Y152859D02*
X159622Y153729D01*
Y149936D02*
Y153994D01*
X158751Y153622D02*
X159622Y152751D01*
X158751Y151540D02*
X158751Y154001D01*
X158751Y153137D02*
X159615Y154001D01*
X158751Y153415D02*
X159336Y154001D01*
X158751Y153972D02*
X158779Y154001D01*
X158751Y153694D02*
X159058Y154001D01*
X158751Y153343D02*
X159622Y152472D01*
X158751Y152580D02*
X159622Y153451D01*
X158751Y153900D02*
X159622Y153029D01*
X163978Y153974D02*
X164017Y153948D01*
X164043Y153909D01*
X158929Y154001D02*
X159622Y153308D01*
X159207Y154001D02*
X159622Y153586D01*
X159485Y154001D02*
X159622Y153864D01*
X164016Y153948D02*
X164189Y154121D01*
X164048Y153881D02*
X164260Y154093D01*
X161814Y153976D02*
X161850Y153983D01*
X159622Y153994D02*
X161814D01*
X163931Y153983D02*
X163978Y153974D01*
X161850Y153983D02*
X163931Y153983D01*
X161818Y153977D02*
X161842Y154001D01*
X158751D02*
X163967D01*
X163940D02*
X163963Y153977D01*
X163997Y154001D02*
X164051Y154023D01*
X164093Y154065D01*
X164111Y154108D02*
X164193Y154026D01*
X164093Y154065D02*
X164115Y154119D01*
X164115Y154325D02*
X164144Y154354D01*
X164115Y154604D02*
X164144Y154633D01*
X164115Y154382D02*
X164144Y154353D01*
X164115Y154148D02*
X164115Y159365D01*
X164115Y155439D02*
X164144Y155468D01*
X164115Y154660D02*
X164144Y154631D01*
X164115Y154939D02*
X164144Y154910D01*
X164115Y154882D02*
X164144Y154911D01*
X164115Y155160D02*
X164144Y155190D01*
X164115Y155217D02*
X164144Y155188D01*
X164115Y155495D02*
X164144Y155466D01*
X164115Y155717D02*
X164144Y155746D01*
X164115Y155774D02*
X164144Y155745D01*
X164115Y155996D02*
X164144Y156025D01*
Y154213D02*
Y156257D01*
X164115Y156052D02*
X164144Y156023D01*
X164115Y156552D02*
X164146Y156584D01*
X164144Y154213D02*
X164153Y154167D01*
X164144Y156257D02*
X164152Y156297D01*
X164218Y154102D02*
X164260Y154093D01*
X164153Y154167D02*
X164179Y154128D01*
X164218Y154102D01*
X164115Y156274D02*
X164146Y156305D01*
X164115Y156331D02*
X164146Y156299D01*
Y156297D02*
Y158489D01*
X164115Y156831D02*
X164146Y156862D01*
X164115Y156609D02*
X164146Y156578D01*
X164115Y157388D02*
X164146Y157419D01*
X164115Y157444D02*
X164146Y157413D01*
X164115Y156887D02*
X164146Y156856D01*
X164115Y157109D02*
X164146Y157141D01*
X164115Y157666D02*
X164146Y157697D01*
X164115Y157723D02*
X164146Y157691D01*
X164115Y157944D02*
X164146Y157976D01*
X164115Y159336D02*
X164144Y159365D01*
X164115Y158001D02*
X164146Y157970D01*
X164115Y157166D02*
X164146Y157134D01*
X164115Y158223D02*
X164146Y158254D01*
X164115Y158279D02*
X164146Y158248D01*
X164115Y158558D02*
X164184Y158489D01*
X164115Y158836D02*
X164462Y158489D01*
X164115Y159115D02*
X164741Y158489D01*
X164115Y158501D02*
X164979Y159365D01*
X164143D02*
X165019Y158489D01*
X164115Y159058D02*
X164422Y159365D01*
X164115Y158780D02*
X164700Y159365D01*
X165264Y149906D02*
X165301Y149943D01*
X161850D02*
X165613D01*
X165542Y149906D02*
X165579Y149943D01*
X165491D02*
X165528Y149906D01*
X165613Y149943D02*
X165659Y149952D01*
X165698Y149979D01*
X165724Y150018D01*
Y150110D02*
X165733Y150064D01*
X165724Y150018D02*
X165733Y150064D01*
X165713Y150000D02*
X165807Y149906D01*
X160997Y149906D02*
X165877Y149906D01*
X165755Y150237D02*
X165981Y150011D01*
X165894Y150376D02*
X166120Y150150D01*
X166033Y150515D02*
X166259Y150289D01*
X165728Y150092D02*
X168211Y152575D01*
X165700Y150181D02*
X167927Y152408D01*
X165821Y149906D02*
X168211Y152297D01*
X166173Y150654D02*
X166398Y150428D01*
X165877Y149906D02*
X168211Y152241D01*
X166312Y150793D02*
X166538Y150567D01*
X166451Y150933D02*
X166677Y150707D01*
X166590Y151072D02*
X166816Y150846D01*
X166729Y151211D02*
X166955Y150985D01*
X166868Y151350D02*
X167094Y151124D01*
X167008Y151489D02*
X167234Y151263D01*
X167147Y151629D02*
X167373Y151403D01*
X167286Y151768D02*
X167512Y151542D01*
X167425Y151907D02*
X167651Y151681D01*
X167564Y152046D02*
X167790Y151820D01*
X167704Y152185D02*
X167930Y151959D01*
X167843Y152324D02*
X168069Y152099D01*
X167927Y152408D02*
X167952Y152447D01*
X167992Y152453D02*
X168208Y152238D01*
X167955Y152446D02*
X168002Y152455D01*
X168041Y152481D01*
X168067Y152520D01*
X168068Y156297D02*
X168076Y156257D01*
X168067Y152520D02*
X168076Y152566D01*
X168076Y152927D02*
X168211Y152791D01*
X168076Y152997D02*
X168211Y153132D01*
X168076Y152648D02*
X168211Y152513D01*
X168076Y152718D02*
X168211Y152854D01*
X168076Y156257D02*
X168076Y152566D01*
X168076Y153554D02*
X168211Y153689D01*
X168076Y153205D02*
X168211Y153070D01*
X168076Y153483D02*
X168211Y153348D01*
X168076Y153275D02*
X168211Y153410D01*
X168076Y154110D02*
X168211Y154246D01*
X168076Y154319D02*
X168211Y154183D01*
X168076Y153762D02*
X168211Y153626D01*
X168076Y154040D02*
X168211Y153905D01*
X168076Y153832D02*
X168211Y153967D01*
X168076Y154875D02*
X168211Y154740D01*
X168076Y154945D02*
X168211Y155081D01*
X168076Y154389D02*
X168211Y154524D01*
X168076Y154667D02*
X168211Y154802D01*
X168076Y154597D02*
X168211Y154462D01*
X168093Y156807D02*
X168211Y156689D01*
X168093Y156911D02*
X168211Y157030D01*
X168093Y156529D02*
X168211Y156410D01*
X168093Y156633D02*
X168211Y156751D01*
X168093Y157468D02*
X168211Y157586D01*
X168093Y157642D02*
X168211Y157524D01*
X168093Y157085D02*
X168211Y156967D01*
X168093Y157364D02*
X168211Y157245D01*
X168093Y157190D02*
X168211Y157308D01*
X168076Y155502D02*
X168211Y155638D01*
X168076Y155710D02*
X168211Y155575D01*
X168076Y155154D02*
X168211Y155018D01*
X168076Y155432D02*
X168211Y155297D01*
X168076Y155224D02*
X168211Y155359D01*
X168076Y155989D02*
X168211Y155854D01*
X168074Y156270D02*
X168211Y156132D01*
X168076Y155781D02*
X168211Y155916D01*
X168093Y156355D02*
X168211Y156473D01*
X168076Y156059D02*
X168211Y156194D01*
X165257Y159365D02*
X166133Y158489D01*
X165216D02*
X166092Y159365D01*
X165535D02*
X166411Y158489D01*
X165495D02*
X166371Y159365D01*
X164660Y158489D02*
X165536Y159365D01*
X164422D02*
X165297Y158489D01*
X164978Y159365D02*
X165854Y158489D01*
X164700Y159365D02*
X165576Y158489D01*
X164938D02*
X165814Y159365D01*
X165814D02*
X166689Y158489D01*
X165773D02*
X166651Y159367D01*
X166862Y159429D02*
X167803Y158489D01*
X166092Y159365D02*
X166968Y158489D01*
X166370Y159365D02*
X167246Y158489D01*
X166330D02*
X168211Y160370D01*
X166052Y158489D02*
X168211Y160649D01*
X167026Y159545D02*
X168081Y158489D01*
X166608D02*
X168211Y160092D01*
X166887Y158489D02*
X168211Y159813D01*
X164381Y158489D02*
X165257Y159365D01*
X164115D02*
X166578D01*
X166641Y159365D02*
X166766Y159390D01*
X166578Y159365D02*
X166641Y159365D01*
X166766Y159390D02*
X166884Y159438D01*
X166990Y159509D01*
X167081Y159600D01*
X167152Y159706D01*
X167141Y163094D02*
X167192Y162981D01*
X166647Y159366D02*
X167525Y158489D01*
X164146D02*
X168093D01*
X167165D02*
X168211Y159535D01*
X167152Y159706D02*
X167200Y159824D01*
X167148Y159700D02*
X168211Y158637D01*
X166149Y164319D02*
X168211Y162256D01*
X166428Y164319D02*
X168211Y162535D01*
X167179Y163011D02*
X168211Y161978D01*
X167192Y162981D02*
X167221Y162859D01*
X166706Y164319D02*
X168211Y162813D01*
X168093Y158303D02*
X168211Y158421D01*
X168093Y158477D02*
X168211Y158359D01*
X168093Y158025D02*
X168211Y158143D01*
X168093Y158199D02*
X168211Y158081D01*
X167200Y159824D02*
X167225Y159949D01*
X167225Y160013D02*
X167225Y159949D01*
X168211Y152241D02*
Y170583D01*
X167225Y160013D02*
X167225Y162770D01*
X168093Y156297D02*
Y158489D01*
X167722D02*
X168211Y158978D01*
X167444Y158489D02*
X168211Y159257D01*
X168093Y157746D02*
X168211Y157865D01*
X168000Y158489D02*
X168211Y158700D01*
X168093Y157920D02*
X168211Y157802D01*
X167218Y159910D02*
X168211Y158916D01*
X167223Y159939D02*
X168211Y160927D01*
X167225Y160180D02*
X168211Y159194D01*
X167225Y160737D02*
X168211Y159751D01*
X167225Y160458D02*
X168211Y159473D01*
X167225Y160219D02*
X168211Y161205D01*
X167225Y160498D02*
X168211Y161484D01*
X167225Y161015D02*
X168211Y160029D01*
X167225Y161572D02*
X168211Y160586D01*
X167225Y161850D02*
X168211Y160865D01*
X167221Y162859D02*
X167223Y162797D01*
X167225Y160776D02*
X168211Y161762D01*
X167225Y162129D02*
X168211Y161143D01*
X167225Y161055D02*
X168211Y162041D01*
X167225Y161333D02*
X168211Y162319D01*
X167225Y161611D02*
X168211Y162597D01*
X167225Y161294D02*
X168211Y160308D01*
X167225Y162686D02*
X168211Y161700D01*
X167225Y162407D02*
X168211Y161421D01*
X167225Y161890D02*
X168211Y162876D01*
X167194Y162972D02*
X168211Y163989D01*
X167225Y162168D02*
X168211Y163154D01*
X167225Y162725D02*
X168211Y163711D01*
X167225Y162447D02*
X168211Y163432D01*
X161011Y168900D02*
X161087Y168824D01*
X160797D02*
X160873Y168900D01*
X161290D02*
X161366Y168824D01*
X161075D02*
X161151Y168900D01*
X160240Y168824D02*
X160316Y168900D01*
X160176D02*
X160252Y168824D01*
X160733Y168900D02*
X160809Y168824D01*
X160455Y168900D02*
X160530Y168824D01*
X160518D02*
X160594Y168900D01*
X158765Y168824D02*
X163967Y168824D01*
X162189Y168824D02*
X162235Y168870D01*
X162745Y168824D02*
X162792Y168870D01*
X162432D02*
X162479Y168824D01*
X162711Y168870D02*
X162758Y168824D01*
X161632Y168824D02*
X161708Y168900D01*
X161353Y168824D02*
X161429Y168900D01*
X162154Y168870D02*
X162201Y168824D01*
X161876Y168870D02*
X161922Y168824D01*
X161910D02*
X161957Y168870D01*
X158765Y169198D02*
X159138Y168824D01*
X158765Y168919D02*
X158860Y168824D01*
X159405D02*
X159580Y168998D01*
Y168939D02*
X159619Y168900D01*
X158765Y169476D02*
X159417Y168824D01*
X158765Y169754D02*
X159580Y168939D01*
X159126Y168824D02*
X159580Y169277D01*
X158765Y169019D02*
X159580Y169834D01*
X158848Y168824D02*
X159580Y169555D01*
X161735Y168900D02*
X161765Y168880D01*
X159580Y168900D02*
X161735D01*
X162467Y168824D02*
X162514Y168870D01*
X161765Y168880D02*
X161811Y168870D01*
X163826D01*
X159683Y168824D02*
X159759Y168900D01*
X159619D02*
X159695Y168824D01*
X161568Y168900D02*
X161644Y168824D01*
X159898Y168900D02*
X159974Y168824D01*
X159962D02*
X160037Y168900D01*
X164115Y166853D02*
X164144Y166882D01*
X164115Y166909D02*
X164144Y166880D01*
X164115Y166574D02*
X164144Y166603D01*
X164115Y166631D02*
X164144Y166602D01*
X164115Y163420D02*
Y168676D01*
Y167466D02*
X164144Y167437D01*
X164115Y167131D02*
X164144Y167160D01*
X164115Y167410D02*
X164144Y167439D01*
X164115Y167188D02*
X164144Y167159D01*
X164115Y167745D02*
X164144Y167715D01*
X164115Y167966D02*
X164144Y167995D01*
X164115Y164404D02*
X164151Y164368D01*
X164115Y167688D02*
X164144Y167717D01*
X164115Y165796D02*
X164151Y165760D01*
X164115Y168023D02*
X164144Y167994D01*
X164115Y168245D02*
X164144Y168274D01*
X164144Y166547D02*
X164144Y168569D01*
X164115Y168301D02*
X164144Y168272D01*
X164115Y168523D02*
X164144Y168552D01*
X163024Y168824D02*
X163071Y168870D01*
X162989D02*
X163036Y168824D01*
X163302D02*
X163349Y168870D01*
X163268D02*
X163314Y168824D01*
X163581D02*
X163627Y168870D01*
X163546D02*
X163593Y168824D01*
X163824Y168870D02*
X163871Y168824D01*
X163826Y168870D02*
X163872Y168880D01*
X163911Y168906D01*
X164051Y168801D02*
X164093Y168760D01*
X163997Y168824D02*
X164051Y168801D01*
X164115Y168580D02*
X164144Y168551D01*
X164093Y168760D02*
X164115Y168705D01*
X164083Y168769D02*
X164142Y168829D01*
X163859Y168824D02*
X164003Y168968D01*
X163911Y168906D02*
X163937Y168945D01*
X164083Y168769D02*
X164142Y168829D01*
X163938Y169034D02*
X163946Y168991D01*
X163937Y168945D02*
X163946Y168991D01*
X158765Y169576D02*
X159580Y170390D01*
X158765Y170590D02*
X159580Y169775D01*
X158765Y170033D02*
X159580Y169218D01*
X158765Y169297D02*
X159580Y170112D01*
X158765Y171286D02*
X158765Y171350D01*
X158740Y171475D02*
X158765Y171350D01*
X158765Y168824D02*
Y171286D01*
Y170868D02*
X159580Y170053D01*
X158765Y169854D02*
X159580Y170669D01*
X158765Y170411D02*
X159580Y171226D01*
X158746Y171443D02*
X159580Y170610D01*
X158765Y170311D02*
X159580Y169496D01*
X158765Y171146D02*
X159580Y170331D01*
X158765Y170132D02*
X159580Y170947D01*
X158678Y171790D02*
X159580Y170888D01*
X158678Y172068D02*
X159580Y171167D01*
X158765Y170689D02*
X159580Y171504D01*
X158765Y171246D02*
X159580Y172061D01*
X158765Y170968D02*
X159580Y171782D01*
X158559Y171761D02*
X158620Y171699D01*
X158559Y171761D02*
X158678D01*
X158620Y171699D02*
X158691Y171593D01*
X158678Y171761D02*
Y172509D01*
X158079D02*
X158332Y172762D01*
X158264Y172761D02*
X158516Y172509D01*
X158186Y172761D02*
X158304D01*
X158636Y171674D02*
X159580Y172618D01*
X158492Y172811D02*
X159580Y171723D01*
X158678Y172347D02*
X159580Y171445D01*
X158691Y171593D02*
X158740Y171475D01*
X158733Y171492D02*
X159580Y172339D01*
X158630Y172951D02*
X159580Y172002D01*
X158357Y172509D02*
X158806Y172957D01*
X158678Y171994D02*
X159641Y172957D01*
X158635Y172509D02*
X159084Y172957D01*
X158678Y172273D02*
X159362Y172957D01*
X158902D02*
X159580Y172280D01*
X159181Y172957D02*
X159580Y172559D01*
Y168900D02*
Y172851D01*
X161772Y172834D02*
X161811Y172842D01*
X159459Y172957D02*
X159580Y172837D01*
X161686Y172957D02*
X161803Y172841D01*
X162243Y172957D02*
X162358Y172842D01*
X161965Y172957D02*
X162080Y172842D01*
X162031D02*
X162146Y172957D01*
X163145Y172842D02*
X163260Y172957D01*
X163078D02*
X163193Y172842D01*
X163357Y172957D02*
X163472Y172842D01*
X163423D02*
X163538Y172957D01*
X163702Y172842D02*
X163817Y172957D01*
X162310Y172842D02*
X162425Y172957D01*
X162521D02*
X162636Y172842D01*
X162867D02*
X162982Y172957D01*
X162588Y172842D02*
X162703Y172957D01*
X162800D02*
X162915Y172842D01*
X160573Y172957D02*
X160679Y172851D01*
X160369D02*
X160476Y172957D01*
X160851D02*
X160958Y172851D01*
X160648D02*
X160754Y172957D01*
X159813Y172851D02*
X159919Y172957D01*
X159738D02*
X159844Y172851D01*
X160294Y172957D02*
X160401Y172851D01*
X160016Y172957D02*
X160123Y172851D01*
X160091D02*
X160198Y172957D01*
X160926Y172851D02*
X161033Y172957D01*
X159580Y172851D02*
X161772D01*
X161408Y172957D02*
X161515Y172851D01*
X161129Y172957D02*
X161236Y172851D01*
X161204D02*
X161311Y172957D01*
X161761Y172851D02*
X161868Y172957D01*
X161483Y172851D02*
X161590Y172957D01*
X163980Y172842D02*
X164095Y172957D01*
X163635D02*
X163750Y172842D01*
X163913Y172957D02*
X164028Y172842D01*
X164115Y164125D02*
X164820Y163420D01*
X164115Y163790D02*
X164643Y164319D01*
X164115Y163569D02*
X164264Y163420D01*
X164115Y163847D02*
X164542Y163420D01*
X164200Y164319D02*
X165099Y163420D01*
X164115Y163512D02*
X164921Y164319D01*
X164479D02*
X165377Y163420D01*
X164302Y163420D02*
X165200Y164319D01*
X164580Y163420D02*
X165478Y164319D01*
X164115Y163420D02*
X166576Y163420D01*
X164757Y164319D02*
X165656Y163420D01*
X165137D02*
X166035Y164319D01*
X164858Y163420D02*
X165757Y164319D01*
X165036D02*
X165934Y163420D01*
X165314Y164319D02*
X166212Y163420D01*
X165415Y163420D02*
X166313Y164319D01*
X165871D02*
X166815Y163374D01*
X165592Y164319D02*
X166491Y163420D01*
X165693Y163420D02*
X166592Y164319D01*
X164115Y164682D02*
X164151Y164647D01*
X164115Y164904D02*
X164151Y164940D01*
X164115Y164347D02*
X164151Y164383D01*
X164115Y164626D02*
X164151Y164661D01*
X164115Y164961D02*
X164151Y164925D01*
X164115Y165182D02*
X164151Y165218D01*
Y164319D02*
Y166511D01*
X164115Y166074D02*
X164151Y166039D01*
X164115Y165239D02*
X164151Y165204D01*
X164115Y164069D02*
X164365Y164319D01*
X164115Y165461D02*
X164151Y165496D01*
Y164368D02*
X164200Y164319D01*
X164115Y165517D02*
X164151Y165482D01*
Y164319D02*
X168162D01*
X164115Y165739D02*
X164151Y165775D01*
X164115Y166018D02*
X164151Y166053D01*
X164115Y166296D02*
X164151Y166332D01*
X164115Y166353D02*
X164151Y166317D01*
X164144Y166547D02*
X164151Y166511D01*
X166875Y163350D02*
X166980Y163282D01*
X166760Y163396D02*
X166875Y163350D01*
X167070Y163196D02*
X167141Y163094D01*
X166980Y163282D02*
X167070Y163196D01*
X166250Y163420D02*
X167149Y164319D01*
X165972Y163420D02*
X166870Y164319D01*
X166638Y163420D02*
X166760Y163396D01*
X166576Y163420D02*
X166638Y163420D01*
X166529Y163420D02*
X167427Y164319D01*
X166960Y163295D02*
X167984Y164319D01*
X166777Y163390D02*
X167705Y164319D01*
X166984D02*
X168211Y163092D01*
X168098Y164319D02*
X168211Y164205D01*
X167099Y163155D02*
X168211Y164268D01*
X167263Y164319D02*
X168211Y163370D01*
X167541Y164319D02*
X168211Y163648D01*
X167820Y164319D02*
X168211Y163927D01*
X168162Y164319D02*
Y166511D01*
Y164533D02*
X168211Y164484D01*
X168162Y165089D02*
X168211Y165040D01*
X168162Y165054D02*
X168211Y165103D01*
X168162Y164497D02*
X168211Y164546D01*
X168162Y164811D02*
X168211Y164762D01*
X168162Y165610D02*
X168211Y165660D01*
X168157Y166511D02*
X168165Y166547D01*
X168162Y165368D02*
X168211Y165319D01*
X168162Y165646D02*
X168211Y165597D01*
X168162Y165332D02*
X168211Y165381D01*
X168162Y166203D02*
X168211Y166154D01*
X168162Y166167D02*
X168211Y166216D01*
X168162Y164775D02*
X168211Y164824D01*
X168162Y165889D02*
X168211Y165938D01*
X168162Y165925D02*
X168211Y165875D01*
X168162Y166481D02*
X168211Y166432D01*
X168162Y166446D02*
X168211Y166495D01*
X168165Y166757D02*
X168211Y166711D01*
X168165Y167036D02*
X168211Y166989D01*
X168165Y166726D02*
X168211Y166773D01*
X164144Y168569D02*
X164153Y168615D01*
X163938Y169034D02*
X164286Y168685D01*
X164179Y168654D02*
X164218Y168680D01*
X164265Y168690D01*
X165983Y172340D02*
X166219Y172576D01*
X165844Y172479D02*
X166080Y172715D01*
X166401Y171922D02*
X166636Y172158D01*
X166122Y172201D02*
X166358Y172436D01*
X166262Y172061D02*
X166497Y172297D01*
X166818Y171505D02*
X167054Y171740D01*
X166818Y171505D02*
X167054Y171740D01*
X167236Y171087D02*
X167472Y171323D01*
X166957Y171365D02*
X167193Y171601D01*
X167097Y171226D02*
X167332Y171462D01*
X165680Y172643D02*
X167907Y170416D01*
X165584Y172957D02*
X168078Y170463D01*
X165837Y172957D02*
X168211Y170583D01*
X166540Y171783D02*
X166776Y172019D01*
X166679Y171644D02*
X166915Y171880D01*
X164815Y172842D02*
X164930Y172957D01*
X165027D02*
X165142Y172842D01*
X165305Y172957D02*
X165420Y172842D01*
X165094D02*
X165209Y172957D01*
X164258Y172842D02*
X164373Y172957D01*
X164192D02*
X164307Y172842D01*
X164748Y172957D02*
X164863Y172842D01*
X164470Y172957D02*
X164585Y172842D01*
X164537D02*
X164652Y172957D01*
X165618Y172833D02*
X165657Y172807D01*
X161811Y172842D02*
X165572Y172842D01*
X165683Y172676D02*
X165692Y172722D01*
X165657Y172807D02*
X165683Y172768D01*
X165692Y172722D01*
X165372Y172842D02*
X165487Y172957D01*
X158633D02*
X165837D01*
X165705Y172618D02*
X165940Y172854D01*
X165572Y172842D02*
X165618Y172833D01*
X165632Y172824D02*
X165765Y172957D01*
X168165Y167283D02*
X168211Y167330D01*
X168165Y167593D02*
X168211Y167546D01*
X168165Y167005D02*
X168211Y167051D01*
X168165Y167314D02*
X168211Y167267D01*
X168165Y166547D02*
Y170349D01*
Y168149D02*
X168211Y168103D01*
X168165Y167562D02*
X168211Y167608D01*
X168165Y167840D02*
X168211Y167887D01*
X168165Y167871D02*
X168211Y167824D01*
X168165Y168706D02*
X168211Y168659D01*
X168165Y168675D02*
X168211Y168722D01*
X168165Y168118D02*
X168211Y168165D01*
X168165Y168397D02*
X168211Y168443D01*
X168165Y168428D02*
X168211Y168381D01*
X168165Y169232D02*
X168211Y169279D01*
X168165Y169541D02*
X168211Y169495D01*
X168165Y168985D02*
X168211Y168938D01*
X168165Y169263D02*
X168211Y169216D01*
X168165Y168953D02*
X168211Y169000D01*
X167920Y170396D02*
X167959Y170434D01*
X167998Y170460D01*
X168090D02*
X168129Y170434D01*
X167998Y170460D02*
X168044Y170470D01*
X167514Y170809D02*
X167750Y171044D01*
X167375Y170948D02*
X167611Y171184D01*
X168044Y170470D02*
X168090Y170460D01*
X167653Y170670D02*
X167889Y170905D01*
X167793Y170530D02*
X168028Y170766D01*
X168165Y170098D02*
X168211Y170051D01*
X168165Y170067D02*
X168211Y170114D01*
X168165Y169510D02*
X168211Y169557D01*
X168165Y169789D02*
X168211Y169835D01*
X168165Y169820D02*
X168211Y169773D01*
X168129Y170434D02*
X168155Y170395D01*
X168002Y170461D02*
X168168Y170627D01*
X168158Y170383D02*
X168211Y170330D01*
X168155Y170395D02*
X168165Y170349D01*
X168165Y170345D02*
X168211Y170392D01*
X148782Y153469D02*
X148959Y153292D01*
X148782Y153469D02*
Y153509D01*
D11*
X119778Y142140D02*
D03*
X119689Y124493D02*
D03*
X137317Y124522D02*
D03*
X137298Y142081D02*
D03*
X147936Y142140D02*
D03*
X147847Y124493D02*
D03*
X165475Y124522D02*
D03*
X165455Y142081D02*
D03*
X119778Y170251D02*
D03*
X119689Y152603D02*
D03*
X137317Y152633D02*
D03*
X137298Y170192D02*
D03*
X147936Y170251D02*
D03*
X147847Y152603D02*
D03*
X165475Y152633D02*
D03*
X165455Y170192D02*
D03*
D12*
X127087Y144024D02*
X127502D01*
X126672D02*
X127087D01*
Y144380D01*
X155245Y144024D02*
X155660D01*
X154830D02*
X155245D01*
Y144380D01*
X127087Y172135D02*
X127502D01*
X126672D02*
X127087D01*
Y172491D01*
X155245Y172135D02*
X155660D01*
X154830D02*
X155245D01*
Y172491D01*
D13*
X139429Y124746D02*
D03*
X139114Y124983D02*
D03*
X138804Y125307D02*
D03*
X138483Y125553D02*
D03*
X138169Y125920D02*
D03*
X137854Y126213D02*
D03*
X137539Y126626D02*
D03*
X117686Y141906D02*
D03*
X118001Y141670D02*
D03*
X118312Y141345D02*
D03*
X118632Y141099D02*
D03*
X118946Y140733D02*
D03*
X119261Y140440D02*
D03*
X119576Y140026D02*
D03*
X120836Y138422D02*
D03*
X120521Y138422D02*
D03*
X120206Y138422D02*
D03*
X119891Y138422D02*
D03*
X119576Y138422D02*
D03*
X119261Y138422D02*
D03*
X118946Y138422D02*
D03*
X118001Y138422D02*
D03*
X118316Y138422D02*
D03*
X118631Y138422D02*
D03*
X117371D02*
D03*
X117686Y138422D02*
D03*
X136280Y128231D02*
D03*
X136595Y128231D02*
D03*
X136910Y128231D02*
D03*
X137224Y128231D02*
D03*
X137539Y128231D02*
D03*
X137854Y128231D02*
D03*
X138169Y128231D02*
D03*
X139114Y128231D02*
D03*
X138799Y128231D02*
D03*
X138484Y128231D02*
D03*
X139744D02*
D03*
X139429Y128231D02*
D03*
X120772Y128208D02*
D03*
X120457D02*
D03*
X120142D02*
D03*
X119827D02*
D03*
X119512D02*
D03*
X119197D02*
D03*
X118882D02*
D03*
X117937D02*
D03*
X118252D02*
D03*
X118567D02*
D03*
X117308D02*
D03*
X117623D02*
D03*
Y124724D02*
D03*
X117936Y125019D02*
D03*
X118249Y125364D02*
D03*
X118567Y125639D02*
D03*
X118882Y125944D02*
D03*
X119197Y126299D02*
D03*
X119512Y126594D02*
D03*
X137475Y140029D02*
D03*
X137790Y140275D02*
D03*
X138105Y140679D02*
D03*
X138420Y140934D02*
D03*
X138738Y141210D02*
D03*
X139051Y141555D02*
D03*
X139365Y141850D02*
D03*
Y138366D02*
D03*
X139680D02*
D03*
X138420D02*
D03*
X138735D02*
D03*
X139050D02*
D03*
X138105D02*
D03*
X137790D02*
D03*
X137475D02*
D03*
X137160D02*
D03*
X136845D02*
D03*
X136530D02*
D03*
X136215D02*
D03*
X167587Y124746D02*
D03*
X167272Y124983D02*
D03*
X166961Y125307D02*
D03*
X166641Y125553D02*
D03*
X166327Y125920D02*
D03*
X166012Y126213D02*
D03*
X165697Y126626D02*
D03*
X145844Y141906D02*
D03*
X146159Y141670D02*
D03*
X146469Y141345D02*
D03*
X146790Y141099D02*
D03*
X147104Y140733D02*
D03*
X147418Y140440D02*
D03*
X147733Y140026D02*
D03*
X148993Y138422D02*
D03*
X148678Y138422D02*
D03*
X148363Y138422D02*
D03*
X148048Y138422D02*
D03*
X147733Y138422D02*
D03*
X147418Y138422D02*
D03*
X147104Y138422D02*
D03*
X146159Y138422D02*
D03*
X146474Y138422D02*
D03*
X146789Y138422D02*
D03*
X145529D02*
D03*
X145844Y138422D02*
D03*
X164437Y128231D02*
D03*
X164752Y128231D02*
D03*
X165067Y128231D02*
D03*
X165382Y128231D02*
D03*
X165697Y128231D02*
D03*
X166012Y128231D02*
D03*
X166327Y128231D02*
D03*
X167272Y128231D02*
D03*
X166957Y128231D02*
D03*
X166642Y128231D02*
D03*
X167902D02*
D03*
X167587Y128231D02*
D03*
X148930Y128208D02*
D03*
X148615D02*
D03*
X148300D02*
D03*
X147985D02*
D03*
X147670D02*
D03*
X147355D02*
D03*
X147040D02*
D03*
X146095D02*
D03*
X146410D02*
D03*
X146725D02*
D03*
X145465D02*
D03*
X145780D02*
D03*
Y124724D02*
D03*
X146094Y125019D02*
D03*
X146407Y125364D02*
D03*
X146725Y125639D02*
D03*
X147040Y125944D02*
D03*
X147355Y126299D02*
D03*
X147670Y126594D02*
D03*
X165633Y140029D02*
D03*
X165948Y140275D02*
D03*
X166263Y140679D02*
D03*
X166578Y140934D02*
D03*
X166896Y141210D02*
D03*
X167209Y141555D02*
D03*
X167522Y141850D02*
D03*
Y138366D02*
D03*
X167837D02*
D03*
X166578D02*
D03*
X166893D02*
D03*
X167207D02*
D03*
X166263D02*
D03*
X165948D02*
D03*
X165633D02*
D03*
X165318D02*
D03*
X165003D02*
D03*
X164688D02*
D03*
X164373D02*
D03*
X139429Y152857D02*
D03*
X139114Y153093D02*
D03*
X138804Y153418D02*
D03*
X138483Y153664D02*
D03*
X138169Y154030D02*
D03*
X137854Y154323D02*
D03*
X137539Y154737D02*
D03*
X117686Y170017D02*
D03*
X118001Y169780D02*
D03*
X118312Y169456D02*
D03*
X118632Y169210D02*
D03*
X118946Y168843D02*
D03*
X119261Y168550D02*
D03*
X119576Y168137D02*
D03*
X120836Y166532D02*
D03*
X120521Y166532D02*
D03*
X120206Y166532D02*
D03*
X119891Y166532D02*
D03*
X119576Y166532D02*
D03*
X119261Y166532D02*
D03*
X118946Y166532D02*
D03*
X118001Y166532D02*
D03*
X118316Y166532D02*
D03*
X118631Y166532D02*
D03*
X117371D02*
D03*
X117686Y166532D02*
D03*
X136280Y156341D02*
D03*
X136595Y156341D02*
D03*
X136910Y156341D02*
D03*
X137224Y156341D02*
D03*
X137539Y156341D02*
D03*
X137854Y156341D02*
D03*
X138169Y156341D02*
D03*
X139114Y156341D02*
D03*
X138799Y156341D02*
D03*
X138484Y156341D02*
D03*
X139744D02*
D03*
X139429Y156341D02*
D03*
X120772Y156319D02*
D03*
X120457D02*
D03*
X120142D02*
D03*
X119827D02*
D03*
X119512D02*
D03*
X119197D02*
D03*
X118882D02*
D03*
X117937D02*
D03*
X118252D02*
D03*
X118567D02*
D03*
X117308D02*
D03*
X117623D02*
D03*
Y152834D02*
D03*
X117936Y153130D02*
D03*
X118249Y153474D02*
D03*
X118567Y153750D02*
D03*
X118882Y154055D02*
D03*
X119197Y154409D02*
D03*
X119512Y154704D02*
D03*
X137475Y168140D02*
D03*
X137790Y168386D02*
D03*
X138105Y168789D02*
D03*
X138420Y169045D02*
D03*
X138738Y169321D02*
D03*
X139051Y169665D02*
D03*
X139365Y169960D02*
D03*
Y166476D02*
D03*
X139680D02*
D03*
X138420D02*
D03*
X138735D02*
D03*
X139050D02*
D03*
X138105D02*
D03*
X137790D02*
D03*
X137475D02*
D03*
X137160D02*
D03*
X136845D02*
D03*
X136530D02*
D03*
X136215D02*
D03*
X167587Y152857D02*
D03*
X167272Y153093D02*
D03*
X166961Y153418D02*
D03*
X166641Y153664D02*
D03*
X166327Y154030D02*
D03*
X166012Y154323D02*
D03*
X165697Y154737D02*
D03*
X145844Y170017D02*
D03*
X146159Y169780D02*
D03*
X146469Y169456D02*
D03*
X146790Y169210D02*
D03*
X147104Y168843D02*
D03*
X147418Y168550D02*
D03*
X147733Y168137D02*
D03*
X148993Y166532D02*
D03*
X148678Y166532D02*
D03*
X148363Y166532D02*
D03*
X148048Y166532D02*
D03*
X147733Y166532D02*
D03*
X147418Y166532D02*
D03*
X147104Y166532D02*
D03*
X146159Y166532D02*
D03*
X146474Y166532D02*
D03*
X146789Y166532D02*
D03*
X145529D02*
D03*
X145844Y166532D02*
D03*
X164437Y156341D02*
D03*
X164752Y156341D02*
D03*
X165067Y156341D02*
D03*
X165382Y156341D02*
D03*
X165697Y156341D02*
D03*
X166012Y156341D02*
D03*
X166327Y156341D02*
D03*
X167272Y156341D02*
D03*
X166957Y156341D02*
D03*
X166642Y156341D02*
D03*
X167902D02*
D03*
X167587Y156341D02*
D03*
X148930Y156319D02*
D03*
X148615D02*
D03*
X148300D02*
D03*
X147985D02*
D03*
X147670D02*
D03*
X147355D02*
D03*
X147040D02*
D03*
X146095D02*
D03*
X146410D02*
D03*
X146725D02*
D03*
X145465D02*
D03*
X145780D02*
D03*
Y152834D02*
D03*
X146094Y153130D02*
D03*
X146407Y153474D02*
D03*
X146725Y153750D02*
D03*
X147040Y154055D02*
D03*
X147355Y154409D02*
D03*
X147670Y154704D02*
D03*
X165633Y168140D02*
D03*
X165948Y168386D02*
D03*
X166263Y168789D02*
D03*
X166578Y169045D02*
D03*
X166896Y169321D02*
D03*
X167209Y169665D02*
D03*
X167522Y169960D02*
D03*
Y166476D02*
D03*
X167837D02*
D03*
X166578D02*
D03*
X166893D02*
D03*
X167207D02*
D03*
X166263D02*
D03*
X165948D02*
D03*
X165633D02*
D03*
X165318D02*
D03*
X165003D02*
D03*
X164688D02*
D03*
X164373D02*
D03*
D14*
X119933Y122400D02*
D03*
X120170Y122715D02*
D03*
X120494Y123026D02*
D03*
X120885Y123341D02*
D03*
X121107Y123660D02*
D03*
X121496Y123971D02*
D03*
X121813Y124290D02*
D03*
X135174Y142283D02*
D03*
X135587Y142598D02*
D03*
X135881Y142913D02*
D03*
X136247Y143227D02*
D03*
X136493Y143548D02*
D03*
X136818Y143858D02*
D03*
X137054Y144173D02*
D03*
X123418Y125550D02*
D03*
X123418Y125235D02*
D03*
X123418Y124920D02*
D03*
X123418Y124605D02*
D03*
X123418Y124290D02*
D03*
X123418Y123975D02*
D03*
X123418Y123660D02*
D03*
X123418Y122715D02*
D03*
X123418Y123030D02*
D03*
X123418Y123345D02*
D03*
Y122085D02*
D03*
X123418Y122400D02*
D03*
X133570Y141024D02*
D03*
X133570Y141339D02*
D03*
X133570Y141654D02*
D03*
X133570Y141969D02*
D03*
X133570Y142283D02*
D03*
X133570Y142598D02*
D03*
X133570Y142913D02*
D03*
X133570Y143858D02*
D03*
X133570Y143543D02*
D03*
X133570Y143228D02*
D03*
Y144488D02*
D03*
X133570Y144173D02*
D03*
X123494Y141067D02*
D03*
X123494Y141382D02*
D03*
X123494Y141697D02*
D03*
X123494Y142012D02*
D03*
X123494Y142327D02*
D03*
X123494Y142642D02*
D03*
X123494Y142957D02*
D03*
X123494Y143902D02*
D03*
X123494Y143587D02*
D03*
X123494Y143272D02*
D03*
Y144532D02*
D03*
X123494Y144217D02*
D03*
X120009Y144217D02*
D03*
X120305Y143903D02*
D03*
X120649Y143590D02*
D03*
X120925Y143272D02*
D03*
X121181Y142957D02*
D03*
X121584Y142642D02*
D03*
X121830Y142327D02*
D03*
X133622Y125585D02*
D03*
Y125270D02*
D03*
Y124955D02*
D03*
Y124640D02*
D03*
Y124325D02*
D03*
Y124010D02*
D03*
Y123695D02*
D03*
Y122750D02*
D03*
Y123065D02*
D03*
Y123380D02*
D03*
Y122121D02*
D03*
Y122435D02*
D03*
X137106D02*
D03*
X136811Y122749D02*
D03*
X136466Y123062D02*
D03*
X136190Y123380D02*
D03*
X135935Y123695D02*
D03*
X135531Y124010D02*
D03*
X135285Y124325D02*
D03*
X148091Y122400D02*
D03*
X148327Y122715D02*
D03*
X148652Y123026D02*
D03*
X149043Y123341D02*
D03*
X149264Y123660D02*
D03*
X149653Y123971D02*
D03*
X149971Y124290D02*
D03*
X163332Y142283D02*
D03*
X163745Y142598D02*
D03*
X164038Y142913D02*
D03*
X164404Y143227D02*
D03*
X164651Y143548D02*
D03*
X164975Y143858D02*
D03*
X165212Y144173D02*
D03*
X151575Y125550D02*
D03*
X151575Y125235D02*
D03*
X151575Y124920D02*
D03*
X151575Y124605D02*
D03*
X151575Y124290D02*
D03*
X151575Y123975D02*
D03*
X151575Y123660D02*
D03*
X151575Y122715D02*
D03*
X151575Y123030D02*
D03*
X151575Y123345D02*
D03*
Y122085D02*
D03*
X151575Y122400D02*
D03*
X161727Y141024D02*
D03*
X161727Y141339D02*
D03*
X161727Y141654D02*
D03*
X161727Y141969D02*
D03*
X161727Y142283D02*
D03*
X161727Y142598D02*
D03*
X161727Y142913D02*
D03*
X161727Y143858D02*
D03*
X161727Y143543D02*
D03*
X161727Y143228D02*
D03*
Y144488D02*
D03*
X161727Y144173D02*
D03*
X151651Y141067D02*
D03*
X151651Y141382D02*
D03*
X151651Y141697D02*
D03*
X151651Y142012D02*
D03*
X151651Y142327D02*
D03*
X151651Y142642D02*
D03*
X151651Y142957D02*
D03*
X151651Y143902D02*
D03*
X151651Y143587D02*
D03*
X151651Y143272D02*
D03*
Y144532D02*
D03*
X151651Y144217D02*
D03*
X148167Y144217D02*
D03*
X148462Y143903D02*
D03*
X148807Y143590D02*
D03*
X149082Y143272D02*
D03*
X149338Y142957D02*
D03*
X149742Y142642D02*
D03*
X149988Y142327D02*
D03*
X161779Y125585D02*
D03*
Y125270D02*
D03*
Y124955D02*
D03*
Y124640D02*
D03*
Y124325D02*
D03*
Y124010D02*
D03*
Y123695D02*
D03*
Y122750D02*
D03*
Y123065D02*
D03*
Y123380D02*
D03*
Y122121D02*
D03*
Y122435D02*
D03*
X165264D02*
D03*
X164968Y122749D02*
D03*
X164624Y123062D02*
D03*
X164348Y123380D02*
D03*
X164092Y123695D02*
D03*
X163689Y124010D02*
D03*
X163443Y124325D02*
D03*
X119933Y150511D02*
D03*
X120170Y150826D02*
D03*
X120494Y151137D02*
D03*
X120885Y151452D02*
D03*
X121107Y151771D02*
D03*
X121496Y152081D02*
D03*
X121813Y152401D02*
D03*
X135174Y170394D02*
D03*
X135587Y170709D02*
D03*
X135881Y171024D02*
D03*
X136247Y171337D02*
D03*
X136493Y171658D02*
D03*
X136818Y171969D02*
D03*
X137054Y172284D02*
D03*
X123418Y153661D02*
D03*
X123418Y153346D02*
D03*
X123418Y153031D02*
D03*
X123418Y152716D02*
D03*
X123418Y152401D02*
D03*
X123418Y152086D02*
D03*
X123418Y151771D02*
D03*
X123418Y150826D02*
D03*
X123418Y151141D02*
D03*
X123418Y151456D02*
D03*
Y150196D02*
D03*
X123418Y150511D02*
D03*
X133570Y169134D02*
D03*
X133570Y169449D02*
D03*
X133570Y169764D02*
D03*
X133570Y170079D02*
D03*
X133570Y170394D02*
D03*
X133570Y170709D02*
D03*
X133570Y171024D02*
D03*
X133570Y171969D02*
D03*
X133570Y171654D02*
D03*
X133570Y171339D02*
D03*
Y172599D02*
D03*
X133570Y172284D02*
D03*
X123494Y169178D02*
D03*
X123494Y169493D02*
D03*
X123494Y169808D02*
D03*
X123494Y170123D02*
D03*
X123494Y170438D02*
D03*
X123494Y170753D02*
D03*
X123494Y171068D02*
D03*
X123494Y172013D02*
D03*
X123494Y171698D02*
D03*
X123494Y171383D02*
D03*
Y172642D02*
D03*
X123494Y172328D02*
D03*
X120009Y172328D02*
D03*
X120305Y172014D02*
D03*
X120649Y171701D02*
D03*
X120925Y171383D02*
D03*
X121181Y171068D02*
D03*
X121584Y170753D02*
D03*
X121830Y170438D02*
D03*
X133622Y153696D02*
D03*
Y153381D02*
D03*
Y153066D02*
D03*
Y152751D02*
D03*
Y152436D02*
D03*
Y152121D02*
D03*
Y151806D02*
D03*
Y150861D02*
D03*
Y151176D02*
D03*
Y151491D02*
D03*
Y150231D02*
D03*
Y150546D02*
D03*
X137106D02*
D03*
X136811Y150860D02*
D03*
X136466Y151173D02*
D03*
X136190Y151491D02*
D03*
X135935Y151806D02*
D03*
X135531Y152121D02*
D03*
X135285Y152436D02*
D03*
X148091Y150511D02*
D03*
X148327Y150826D02*
D03*
X148652Y151137D02*
D03*
X149043Y151452D02*
D03*
X149264Y151771D02*
D03*
X149653Y152081D02*
D03*
X149971Y152401D02*
D03*
X163332Y170394D02*
D03*
X163745Y170709D02*
D03*
X164038Y171024D02*
D03*
X164404Y171337D02*
D03*
X164651Y171658D02*
D03*
X164975Y171969D02*
D03*
X165212Y172284D02*
D03*
X151575Y153661D02*
D03*
X151575Y153346D02*
D03*
X151575Y153031D02*
D03*
X151575Y152716D02*
D03*
X151575Y152401D02*
D03*
X151575Y152086D02*
D03*
X151575Y151771D02*
D03*
X151575Y150826D02*
D03*
X151575Y151141D02*
D03*
X151575Y151456D02*
D03*
Y150196D02*
D03*
X151575Y150511D02*
D03*
X161727Y169134D02*
D03*
X161727Y169449D02*
D03*
X161727Y169764D02*
D03*
X161727Y170079D02*
D03*
X161727Y170394D02*
D03*
X161727Y170709D02*
D03*
X161727Y171024D02*
D03*
X161727Y171969D02*
D03*
X161727Y171654D02*
D03*
X161727Y171339D02*
D03*
Y172599D02*
D03*
X161727Y172284D02*
D03*
X151651Y169178D02*
D03*
X151651Y169493D02*
D03*
X151651Y169808D02*
D03*
X151651Y170123D02*
D03*
X151651Y170438D02*
D03*
X151651Y170753D02*
D03*
X151651Y171068D02*
D03*
X151651Y172013D02*
D03*
X151651Y171698D02*
D03*
X151651Y171383D02*
D03*
Y172642D02*
D03*
X151651Y172328D02*
D03*
X148167Y172328D02*
D03*
X148462Y172014D02*
D03*
X148807Y171701D02*
D03*
X149082Y171383D02*
D03*
X149338Y171068D02*
D03*
X149742Y170753D02*
D03*
X149988Y170438D02*
D03*
X161779Y153696D02*
D03*
Y153381D02*
D03*
Y153066D02*
D03*
Y152751D02*
D03*
Y152436D02*
D03*
Y152121D02*
D03*
Y151806D02*
D03*
Y150861D02*
D03*
Y151176D02*
D03*
Y151491D02*
D03*
Y150231D02*
D03*
Y150546D02*
D03*
X165264D02*
D03*
X164968Y150860D02*
D03*
X164624Y151173D02*
D03*
X164348Y151491D02*
D03*
X164092Y151806D02*
D03*
X163689Y152121D02*
D03*
X163443Y152436D02*
D03*
D15*
X124555Y142751D02*
D03*
X152713D02*
D03*
X124555Y170862D02*
D03*
X152713D02*
D03*
D16*
X119045Y137370D02*
D03*
Y129270D02*
D03*
X147203Y137370D02*
D03*
Y129270D02*
D03*
X119045Y165481D02*
D03*
Y157380D02*
D03*
X147203Y165481D02*
D03*
Y157380D02*
D03*
D17*
X137999Y137304D02*
D03*
X166156D02*
D03*
X137999Y165415D02*
D03*
X166156D02*
D03*
D18*
X132518Y142765D02*
D03*
X160676D02*
D03*
X132518Y170875D02*
D03*
X160676D02*
D03*
D19*
X124467Y123840D02*
D03*
X152624D02*
D03*
X124467Y151951D02*
D03*
X152624D02*
D03*
D20*
X137962Y129282D02*
D03*
X166120D02*
D03*
X137962Y157393D02*
D03*
X166120D02*
D03*
D21*
X132560Y123854D02*
D03*
X160718D02*
D03*
X132560Y151965D02*
D03*
X160718D02*
D03*
D22*
X130087Y144024D02*
D03*
X158245D02*
D03*
X130087Y172135D02*
D03*
X158245D02*
D03*
D23*
X130087Y145024D02*
D03*
X129087Y144024D02*
D03*
Y145024D02*
D03*
X128087Y144024D02*
D03*
Y145024D02*
D03*
X127087Y144024D02*
D03*
Y145024D02*
D03*
X158245D02*
D03*
X157245Y144024D02*
D03*
Y145024D02*
D03*
X156245Y144024D02*
D03*
Y145024D02*
D03*
X155245Y144024D02*
D03*
Y145024D02*
D03*
X130087Y173135D02*
D03*
X129087Y172135D02*
D03*
Y173135D02*
D03*
X128087Y172135D02*
D03*
Y173135D02*
D03*
X127087Y172135D02*
D03*
Y173135D02*
D03*
X158245D02*
D03*
X157245Y172135D02*
D03*
Y173135D02*
D03*
X156245Y172135D02*
D03*
Y173135D02*
D03*
X155245Y172135D02*
D03*
Y173135D02*
D03*
D24*
X136412Y141166D02*
D03*
X136471Y125339D02*
D03*
X120536Y141304D02*
D03*
X120624Y125398D02*
D03*
X164570Y141166D02*
D03*
X164629Y125339D02*
D03*
X148694Y141304D02*
D03*
X148782Y125398D02*
D03*
X136412Y169276D02*
D03*
X136471Y153450D02*
D03*
X120536Y169414D02*
D03*
X120624Y153509D02*
D03*
X164570Y169276D02*
D03*
X164629Y153450D02*
D03*
X148694Y169414D02*
D03*
X148782Y153509D02*
D03*
M02*
