G04*
G04 #@! TF.GenerationSoftware,Altium Limited,Altium Designer,18.1.11 (251)*
G04*
G04 Layer_Color=32768*
%FSLAX24Y24*%
%MOIN*%
G70*
G01*
G75*
%ADD10C,0.0079*%
%ADD27C,0.0787*%
D10*
X112516Y117317D02*
X172752D01*
X172752Y177435D02*
X172752Y117317D01*
X112516Y177435D02*
X172752D01*
X112516Y117317D02*
Y177435D01*
X126687Y123428D02*
G03*
X127187Y122928I500J0D01*
G01*
X138422Y131402D02*
G03*
X138922Y131902I0J500D01*
G01*
X130461Y143176D02*
G03*
X129961Y143676I-500J0D01*
G01*
X118128Y131916D02*
G03*
X118628Y131416I500J0D01*
G01*
X118626Y135176D02*
G03*
X118126Y134676I0J-500D01*
G01*
X127201Y143674D02*
G03*
X126701Y143174I0J-500D01*
G01*
X138920Y134662D02*
G03*
X138420Y135162I-500J0D01*
G01*
X129947Y122930D02*
G03*
X130447Y123430I0J500D01*
G01*
Y126038D02*
X135811D01*
X130447Y123430D02*
Y126038D01*
X130461Y140565D02*
X135811D01*
X126701Y140565D02*
Y143174D01*
X118126Y131918D02*
Y134676D01*
X121235Y140565D02*
X126701D01*
X135810Y131402D02*
X138422D01*
X135811Y135162D02*
X138420D01*
X126687Y123428D02*
Y126038D01*
X127203Y143676D02*
X129961D01*
X121237Y135176D02*
Y140565D01*
X138922Y131902D02*
Y134660D01*
X121237Y126038D02*
Y131416D01*
X118628D02*
X121237D01*
X135811Y126038D02*
Y131404D01*
Y135162D02*
Y140565D01*
X121237Y126038D02*
X126687D01*
X130461Y140563D02*
Y143176D01*
X127187Y122928D02*
X129945D01*
X118626Y135176D02*
X121237D01*
X154845Y123428D02*
G03*
X155345Y122928I500J0D01*
G01*
X166580Y131402D02*
G03*
X167080Y131902I0J500D01*
G01*
X158619Y143176D02*
G03*
X158119Y143676I-500J0D01*
G01*
X146286Y131916D02*
G03*
X146786Y131416I500J0D01*
G01*
X146784Y135176D02*
G03*
X146284Y134676I0J-500D01*
G01*
X155359Y143674D02*
G03*
X154859Y143174I0J-500D01*
G01*
X167078Y134662D02*
G03*
X166578Y135162I-500J0D01*
G01*
X158105Y122930D02*
G03*
X158605Y123430I0J500D01*
G01*
Y126038D02*
X163969D01*
X158605Y123430D02*
Y126038D01*
X158619Y140565D02*
X163969D01*
X154859Y140565D02*
Y143174D01*
X146284Y131918D02*
Y134676D01*
X149392Y140565D02*
X154859D01*
X163967Y131402D02*
X166580D01*
X163969Y135162D02*
X166578D01*
X154845Y123428D02*
Y126038D01*
X155361Y143676D02*
X158119D01*
X149394Y135176D02*
Y140565D01*
X167080Y131902D02*
Y134660D01*
X149394Y126038D02*
Y131416D01*
X146786D02*
X149394D01*
X163969Y126038D02*
Y131404D01*
Y135162D02*
Y140565D01*
X149394Y126038D02*
X154845D01*
X158619Y140563D02*
Y143176D01*
X155345Y122928D02*
X158103D01*
X146784Y135176D02*
X149394D01*
X126687Y151538D02*
G03*
X127187Y151038I500J0D01*
G01*
X138422Y159513D02*
G03*
X138922Y160013I0J500D01*
G01*
X130461Y171286D02*
G03*
X129961Y171786I-500J0D01*
G01*
X118128Y160026D02*
G03*
X118628Y159526I500J0D01*
G01*
X118626Y163286D02*
G03*
X118126Y162786I0J-500D01*
G01*
X127201Y171784D02*
G03*
X126701Y171284I0J-500D01*
G01*
X138920Y162772D02*
G03*
X138420Y163272I-500J0D01*
G01*
X129947Y151040D02*
G03*
X130447Y151540I0J500D01*
G01*
Y154148D02*
X135811D01*
X130447Y151540D02*
Y154148D01*
X130461Y168676D02*
X135811D01*
X126701Y168676D02*
Y171284D01*
X118126Y160028D02*
Y162786D01*
X121235Y168676D02*
X126701D01*
X135810Y159513D02*
X138422D01*
X135811Y163272D02*
X138420D01*
X126687Y151538D02*
Y154148D01*
X127203Y171786D02*
X129961D01*
X121237Y163286D02*
Y168676D01*
X138922Y160013D02*
Y162770D01*
X121237Y154148D02*
Y159526D01*
X118628D02*
X121237D01*
X135811Y154148D02*
Y159515D01*
Y163272D02*
Y168676D01*
X121237Y154148D02*
X126687D01*
X130461Y168674D02*
Y171286D01*
X127187Y151038D02*
X129945D01*
X118626Y163286D02*
X121237D01*
X154845Y151538D02*
G03*
X155345Y151038I500J0D01*
G01*
X166580Y159513D02*
G03*
X167080Y160013I0J500D01*
G01*
X158619Y171286D02*
G03*
X158119Y171786I-500J0D01*
G01*
X146286Y160026D02*
G03*
X146786Y159526I500J0D01*
G01*
X146784Y163286D02*
G03*
X146284Y162786I0J-500D01*
G01*
X155359Y171784D02*
G03*
X154859Y171284I0J-500D01*
G01*
X167078Y162772D02*
G03*
X166578Y163272I-500J0D01*
G01*
X158105Y151040D02*
G03*
X158605Y151540I0J500D01*
G01*
Y154148D02*
X163969D01*
X158605Y151540D02*
Y154148D01*
X158619Y168676D02*
X163969D01*
X154859Y168676D02*
Y171284D01*
X146284Y160028D02*
Y162786D01*
X149392Y168676D02*
X154859D01*
X163967Y159513D02*
X166580D01*
X163969Y163272D02*
X166578D01*
X154845Y151538D02*
Y154148D01*
X155361Y171786D02*
X158119D01*
X149394Y163286D02*
Y168676D01*
X167080Y160013D02*
Y162770D01*
X149394Y154148D02*
Y159526D01*
X146786D02*
X149394D01*
X163969Y154148D02*
Y159515D01*
Y163272D02*
Y168676D01*
X149394Y154148D02*
X154845D01*
X158619Y168674D02*
Y171286D01*
X155345Y151038D02*
X158103D01*
X146784Y163286D02*
X149394D01*
D27*
X115605Y142288D02*
X119502Y146185D01*
X137483Y146197D02*
X141380Y142300D01*
X137546Y120420D02*
X141443Y124317D01*
X115666Y124304D02*
X119563Y120406D01*
X143763Y142288D02*
X147660Y146185D01*
X165641Y146197D02*
X169538Y142300D01*
X165704Y120420D02*
X169601Y124317D01*
X143824Y124304D02*
X147721Y120406D01*
X115605Y170399D02*
X119502Y174296D01*
X137483Y174308D02*
X141380Y170410D01*
X137546Y148530D02*
X141443Y152428D01*
X115666Y152414D02*
X119563Y148517D01*
X143763Y170399D02*
X147660Y174296D01*
X165641Y174308D02*
X169538Y170410D01*
X165704Y148530D02*
X169601Y152428D01*
X143824Y152414D02*
X147721Y148517D01*
M02*
